<svg width="1920" height="973" viewBox="0 0 1920 973" fill="none" xmlns="http://www.w3.org/2000/svg">
<g clip-path="url(#clip0)">
<rect width="1920" height="973" fill="#F0F2F4"/>
<path d="M336.443 192.929L315.064 176.456C314.658 176.145 314.134 176.028 313.633 176.14L249.551 190.441C249.05 190.553 248.626 190.88 248.391 191.335L236.043 215.335C235.736 215.932 235.801 216.652 236.211 217.181C236.621 217.711 237.301 217.958 237.956 217.812L335.765 195.984C336.419 195.838 336.93 195.326 337.076 194.672C337.221 194.02 336.976 193.34 336.443 192.929ZM240.804 213.636L251.093 193.636L313.595 179.688L331.411 193.415L240.804 213.636Z" fill="#B8C8D7"/>
<path d="M283.383 183.983C282.981 183.411 282.274 183.138 281.593 183.29L249.552 190.441C248.948 190.576 248.463 191.022 248.279 191.614C248.094 192.206 248.239 192.848 248.661 193.302L264.981 210.904C265.345 211.296 265.87 211.499 266.405 211.451C266.479 211.443 266.553 211.432 266.623 211.416C267.069 211.317 267.46 211.045 267.707 210.655L283.428 185.903C283.802 185.313 283.785 184.555 283.383 183.983ZM265.99 206.912L253.239 193.159L278.273 187.572L265.99 206.912Z" fill="#B8C8D7"/>
<path d="M336.736 193.209C336.324 192.697 335.656 192.464 335.015 192.607L237.206 214.435C236.565 214.578 236.061 215.073 235.904 215.711C235.749 216.35 235.968 217.021 236.471 217.444L299.677 270.612C300.089 270.959 300.64 271.095 301.166 270.977C301.692 270.86 302.133 270.503 302.355 270.014L336.959 195.018C337.235 194.422 337.147 193.721 336.736 193.209ZM300.169 266.512L241.368 217.049L332.362 196.742L300.169 266.512Z" fill="#B8C8D7"/>
<path d="M302.283 268.423L267.746 208.857C267.367 208.205 266.611 207.873 265.874 208.037L237.206 214.435C236.565 214.578 236.061 215.073 235.904 215.711C235.749 216.35 235.968 217.021 236.471 217.444L299.677 270.612C300.1 270.969 300.653 271.092 301.166 270.977C301.429 270.919 301.682 270.798 301.899 270.612C302.542 270.074 302.703 269.149 302.283 268.423ZM241.367 217.049L265.391 211.688L294.333 261.604L241.367 217.049Z" fill="#B8C8D7"/>
<path d="M315.293 176.658C314.875 176.201 314.245 176.003 313.642 176.138L281.6 183.289C280.919 183.441 280.395 183.988 280.274 184.677C280.154 185.366 280.461 186.059 281.051 186.433L305.803 202.154C306.191 202.402 306.66 202.481 307.106 202.382C307.178 202.365 307.25 202.344 307.32 202.32C307.823 202.137 308.214 201.731 308.376 201.22L315.665 178.349C315.851 177.759 315.71 177.116 315.293 176.658ZM305.764 198.036L286.424 185.753L311.458 180.166L305.764 198.036Z" fill="#B8C8D7"/>
<path d="M336.73 193.211C336.318 192.699 335.65 192.466 335.009 192.609L306.341 199.006C305.604 199.171 305.06 199.793 304.995 200.544L299.06 269.142C298.987 269.976 299.527 270.745 300.338 270.96C300.613 271.033 300.893 271.035 301.156 270.976C301.667 270.862 302.116 270.516 302.349 270.016L336.953 195.02C337.229 194.423 337.142 193.722 336.73 193.211ZM303.354 259.587L308.328 202.102L332.352 196.74L303.354 259.587Z" fill="#B8C8D7"/>
<path d="M30.4432 168.929L9.06353 152.456C8.65776 152.145 8.13421 152.028 7.63324 152.14L-56.4489 166.441C-56.9497 166.553 -57.3743 166.88 -57.609 167.335L-69.9566 191.335C-70.2644 191.932 -70.1993 192.652 -69.789 193.181C-69.3786 193.711 -68.6987 193.958 -68.0444 193.812L29.765 171.984C30.4193 171.838 30.9299 171.326 31.0761 170.672C31.2212 170.02 30.9757 169.34 30.4432 168.929ZM-65.1964 189.636L-54.9073 169.636L7.59464 155.688L25.4105 169.415L-65.1964 189.636Z" fill="#B8C8D7"/>
<path d="M30.7356 169.209C30.3238 168.697 29.6558 168.464 29.0149 168.607L-68.7945 190.435C-69.4354 190.578 -69.9393 191.073 -70.0959 191.711C-70.2509 192.35 -70.032 193.021 -69.5288 193.444L-6.32305 246.612C-5.91096 246.959 -5.36018 247.095 -4.83411 246.977C-4.30804 246.86 -3.86716 246.503 -3.64508 246.014L30.9588 171.018C31.2347 170.422 31.1471 169.721 30.7356 169.209ZM-5.83065 242.512L-64.6316 193.049L26.3616 172.742L-5.83065 242.512Z" fill="#B8C8D7"/>
<path d="M9.29245 152.658C8.87521 152.201 8.24525 152.003 7.64151 152.138L-24.3997 159.289C-25.0809 159.441 -25.605 159.988 -25.7257 160.677C-25.8464 161.366 -25.5395 162.059 -24.9495 162.433L-0.196967 178.154C0.191154 178.402 0.660297 178.481 1.10554 178.382C1.17806 178.365 1.24945 178.344 1.32012 178.32C1.82285 178.137 2.21379 177.731 2.37596 177.22L9.66438 154.349C9.85128 153.759 9.70968 153.116 9.29245 152.658ZM-0.236096 174.036L-19.5762 161.753L5.45795 156.166L-0.236096 174.036Z" fill="#B8C8D7"/>
<path d="M30.73 169.211C30.3183 168.699 29.6503 168.466 29.0094 168.609L0.340993 175.006C-0.395938 175.171 -0.940393 175.793 -1.00477 176.544L-6.94027 245.142C-7.01266 245.976 -6.47295 246.745 -5.66177 246.96C-5.38696 247.033 -5.10698 247.035 -4.84394 246.976C-4.33289 246.862 -3.88442 246.516 -3.6508 246.016L30.9531 171.02C31.229 170.423 31.1415 169.722 30.73 169.211ZM-2.64611 235.587L2.32779 178.102L26.3519 172.74L-2.64611 235.587Z" fill="#B8C8D7"/>
<path d="M30.4432 519.929L9.06353 503.456C8.65776 503.145 8.13421 503.028 7.63324 503.14L-56.4489 517.441C-56.9497 517.553 -57.3743 517.88 -57.609 518.335L-69.9566 542.335C-70.2644 542.932 -70.1993 543.652 -69.789 544.181C-69.3786 544.711 -68.6987 544.958 -68.0444 544.812L29.765 522.984C30.4193 522.838 30.9299 522.326 31.0761 521.672C31.2212 521.02 30.9757 520.34 30.4432 519.929ZM-65.1964 540.636L-54.9073 520.636L7.59464 506.688L25.4105 520.415L-65.1964 540.636Z" fill="#B8C8D7"/>
<path d="M30.7356 520.209C30.3238 519.697 29.6558 519.464 29.0149 519.607L-68.7945 541.435C-69.4354 541.578 -69.9393 542.073 -70.0959 542.711C-70.2509 543.35 -70.032 544.021 -69.5288 544.444L-6.32306 597.612C-5.91098 597.959 -5.3602 598.095 -4.83413 597.977C-4.30806 597.86 -3.86718 597.503 -3.6451 597.014L30.9588 522.018C31.2346 521.422 31.1471 520.721 30.7356 520.209ZM-5.83066 593.512L-64.6316 544.049L26.3616 523.742L-5.83066 593.512Z" fill="#B8C8D7"/>
<path d="M9.29245 503.658C8.87521 503.201 8.24525 503.003 7.64151 503.138L-24.3997 510.289C-25.0809 510.441 -25.605 510.988 -25.7257 511.677C-25.8464 512.366 -25.5395 513.059 -24.9495 513.433L-0.196968 529.154C0.191153 529.402 0.660295 529.481 1.10554 529.382C1.17806 529.365 1.24945 529.344 1.32012 529.32C1.82285 529.137 2.21379 528.731 2.37596 528.22L9.66438 505.349C9.85128 504.759 9.70968 504.116 9.29245 503.658ZM-0.236097 525.036L-19.5762 512.753L5.45795 507.166L-0.236097 525.036Z" fill="#B8C8D7"/>
<path d="M30.73 520.211C30.3183 519.699 29.6503 519.466 29.0094 519.609L0.340993 526.006C-0.395938 526.171 -0.940393 526.793 -1.00477 527.544L-6.94028 596.142C-7.01266 596.976 -6.47295 597.745 -5.66177 597.96C-5.38696 598.033 -5.10698 598.035 -4.84395 597.976C-4.3329 597.862 -3.88443 597.516 -3.6508 597.016L30.9531 522.02C31.229 521.423 31.1415 520.722 30.73 520.211ZM-2.64611 586.587L2.32779 529.102L26.3519 523.74L-2.64611 586.587Z" fill="#B8C8D7"/>
<path d="M186.523 468.409L184.553 457.009C184.515 456.793 184.383 456.604 184.193 456.494L159.818 442.421C159.627 442.311 159.399 442.291 159.192 442.367L148.334 446.361C148.064 446.46 147.875 446.706 147.851 446.992C147.827 447.278 147.97 447.554 148.219 447.697L185.423 469.177C185.672 469.32 185.981 469.307 186.217 469.143C186.452 468.979 186.572 468.693 186.523 468.409ZM150.329 447.205L159.378 443.877L183.152 457.603L184.793 467.103L150.329 447.205Z" fill="#B8C8D7"/>
<path d="M172.37 450.196C172.409 449.898 172.265 449.607 172.006 449.458L159.818 442.421C159.588 442.289 159.306 442.289 159.076 442.422C158.846 442.555 158.706 442.8 158.707 443.066L158.753 453.356C158.754 453.585 158.861 453.801 159.044 453.941C159.069 453.96 159.096 453.978 159.123 453.993C159.292 454.091 159.494 454.119 159.686 454.068L171.827 450.814C172.116 450.737 172.331 450.493 172.37 450.196ZM160.229 452.388L160.194 444.349L169.716 449.846L160.229 452.388Z" fill="#B8C8D7"/>
<path d="M186.534 468.583C186.552 468.302 186.409 468.034 186.165 467.894L148.962 446.414C148.718 446.273 148.415 446.283 148.181 446.439C147.947 446.596 147.821 446.872 147.857 447.151L152.386 482.266C152.416 482.495 152.55 482.697 152.75 482.813C152.95 482.928 153.193 482.943 153.405 482.854L186.08 469.219C186.34 469.11 186.515 468.864 186.534 468.583ZM153.731 481.114L149.518 448.446L184.129 468.429L153.731 481.114Z" fill="#B8C8D7"/>
<path d="M153.844 482.33L160.219 453.511C160.289 453.196 160.147 452.872 159.866 452.71L148.962 446.414C148.718 446.273 148.415 446.283 148.181 446.439C147.947 446.596 147.821 446.872 147.857 447.151L152.386 482.265C152.416 482.501 152.555 482.7 152.75 482.813C152.85 482.87 152.965 482.906 153.088 482.91C153.447 482.927 153.766 482.681 153.844 482.33ZM149.517 448.446L158.655 453.722L153.312 477.872L149.517 448.446Z" fill="#B8C8D7"/>
<path d="M184.566 457.139C184.567 456.873 184.426 456.628 184.196 456.496L172.009 449.459C171.749 449.31 171.425 449.33 171.187 449.513C170.949 449.695 170.845 450.003 170.923 450.292L174.176 462.434C174.227 462.625 174.352 462.786 174.521 462.884C174.549 462.899 174.577 462.913 174.607 462.926C174.819 463.014 175.06 463 175.259 462.885L184.193 457.78C184.423 457.648 184.565 457.404 184.566 457.139ZM175.358 461.123L172.816 451.636L182.338 457.134L175.358 461.123Z" fill="#B8C8D7"/>
<path d="M186.532 468.581C186.55 468.3 186.407 468.033 186.163 467.892L175.259 461.596C174.979 461.434 174.626 461.473 174.388 461.691L152.618 481.622C152.353 481.864 152.301 482.264 152.494 482.567C152.56 482.67 152.648 482.751 152.748 482.809C152.942 482.921 153.184 482.942 153.403 482.852L186.078 469.217C186.338 469.109 186.513 468.862 186.532 468.581ZM156.745 479.852L174.988 463.15L184.126 468.425L156.745 479.852Z" fill="#B8C8D7"/>
<path d="M186.523 130.062L184.553 118.661C184.515 118.446 184.383 118.257 184.193 118.147L159.818 104.074C159.627 103.964 159.399 103.944 159.192 104.02L148.334 108.014C148.064 108.113 147.875 108.359 147.851 108.645C147.827 108.931 147.97 109.206 148.219 109.35L185.423 130.83C185.672 130.973 185.981 130.96 186.217 130.796C186.452 130.632 186.572 130.346 186.523 130.062ZM150.329 108.858L159.378 105.53L183.152 119.255L184.793 128.756L150.329 108.858Z" fill="#B8C8D7"/>
<path d="M172.37 111.848C172.409 111.551 172.265 111.26 172.006 111.111L159.818 104.074C159.588 103.942 159.306 103.942 159.076 104.075C158.846 104.208 158.706 104.453 158.707 104.719L158.753 115.009C158.754 115.238 158.861 115.454 159.044 115.594C159.069 115.613 159.096 115.631 159.123 115.646C159.292 115.744 159.494 115.772 159.686 115.721L171.827 112.467C172.116 112.39 172.331 112.146 172.37 111.848ZM160.229 114.041L160.194 106.001L169.716 111.499L160.229 114.041Z" fill="#B8C8D7"/>
<path d="M186.534 130.236C186.552 129.955 186.409 129.687 186.165 129.546L148.962 108.067C148.718 107.926 148.415 107.936 148.181 108.092C147.947 108.249 147.821 108.524 147.857 108.804L152.386 143.918C152.416 144.147 152.55 144.35 152.75 144.465C152.95 144.581 153.193 144.596 153.405 144.506L186.08 130.871C186.34 130.763 186.515 130.517 186.534 130.236ZM153.731 142.767L149.518 110.099L184.129 130.082L153.731 142.767Z" fill="#B8C8D7"/>
<path d="M153.844 143.983L160.219 115.164C160.289 114.849 160.147 114.524 159.866 114.363L148.962 108.067C148.718 107.926 148.415 107.936 148.181 108.092C147.947 108.249 147.821 108.524 147.857 108.804L152.386 143.918C152.416 144.154 152.555 144.353 152.75 144.465C152.85 144.523 152.965 144.559 153.088 144.563C153.447 144.579 153.766 144.334 153.844 143.983ZM149.517 110.099L158.655 115.375L153.312 139.525L149.517 110.099Z" fill="#B8C8D7"/>
<path d="M184.566 118.792C184.567 118.526 184.426 118.281 184.196 118.149L172.009 111.112C171.749 110.963 171.425 110.983 171.187 111.166C170.949 111.348 170.845 111.656 170.923 111.945L174.176 124.087C174.227 124.278 174.352 124.439 174.521 124.536C174.549 124.552 174.577 124.566 174.607 124.579C174.819 124.667 175.06 124.652 175.259 124.538L184.193 119.433C184.423 119.301 184.565 119.057 184.566 118.792ZM175.358 122.776L172.816 113.289L182.338 118.787L175.358 122.776Z" fill="#B8C8D7"/>
<path d="M186.532 130.234C186.55 129.953 186.407 129.686 186.163 129.545L175.259 123.249C174.979 123.087 174.626 123.126 174.388 123.344L152.618 143.275C152.353 143.517 152.301 143.916 152.494 144.22C152.56 144.322 152.648 144.404 152.748 144.462C152.942 144.574 153.184 144.595 153.403 144.505L186.078 130.87C186.338 130.762 186.513 130.515 186.532 130.234ZM156.745 141.504L174.988 124.802L184.126 130.078L156.745 141.504Z" fill="#B8C8D7"/>
<path d="M186.523 841.062L184.553 829.661C184.515 829.446 184.383 829.257 184.193 829.147L159.818 815.074C159.627 814.964 159.399 814.944 159.192 815.02L148.334 819.014C148.064 819.113 147.875 819.359 147.851 819.645C147.827 819.931 147.97 820.206 148.219 820.35L185.423 841.83C185.672 841.973 185.981 841.96 186.217 841.796C186.452 841.632 186.572 841.346 186.523 841.062ZM150.329 819.858L159.378 816.53L183.152 830.255L184.793 839.756L150.329 819.858Z" fill="#B8C8D7"/>
<path d="M172.37 822.848C172.409 822.551 172.265 822.26 172.006 822.111L159.818 815.074C159.588 814.942 159.306 814.942 159.076 815.075C158.846 815.208 158.706 815.453 158.707 815.719L158.753 826.009C158.754 826.238 158.861 826.454 159.044 826.594C159.069 826.613 159.096 826.631 159.123 826.646C159.292 826.744 159.494 826.772 159.686 826.721L171.827 823.467C172.116 823.39 172.331 823.146 172.37 822.848ZM160.229 825.041L160.194 817.001L169.716 822.499L160.229 825.041Z" fill="#B8C8D7"/>
<path d="M186.534 841.236C186.552 840.955 186.409 840.687 186.165 840.546L148.962 819.067C148.718 818.926 148.415 818.936 148.181 819.092C147.947 819.249 147.821 819.524 147.857 819.804L152.386 854.918C152.416 855.147 152.55 855.35 152.75 855.465C152.95 855.581 153.193 855.596 153.405 855.506L186.08 841.871C186.34 841.763 186.515 841.517 186.534 841.236ZM153.731 853.767L149.518 821.099L184.129 841.082L153.731 853.767Z" fill="#B8C8D7"/>
<path d="M153.844 854.983L160.219 826.164C160.289 825.849 160.147 825.524 159.866 825.363L148.962 819.067C148.718 818.926 148.415 818.936 148.181 819.092C147.947 819.249 147.821 819.524 147.857 819.804L152.386 854.918C152.416 855.154 152.555 855.353 152.75 855.465C152.85 855.523 152.965 855.559 153.088 855.563C153.447 855.579 153.766 855.334 153.844 854.983ZM149.517 821.099L158.655 826.375L153.312 850.525L149.517 821.099Z" fill="#B8C8D7"/>
<path d="M184.566 829.792C184.567 829.526 184.426 829.281 184.196 829.149L172.009 822.112C171.749 821.963 171.425 821.983 171.187 822.166C170.949 822.348 170.845 822.656 170.923 822.945L174.176 835.087C174.227 835.278 174.352 835.439 174.521 835.536C174.549 835.552 174.577 835.566 174.607 835.579C174.819 835.667 175.06 835.652 175.259 835.538L184.193 830.433C184.423 830.301 184.565 830.057 184.566 829.792ZM175.358 833.776L172.816 824.289L182.338 829.787L175.358 833.776Z" fill="#B8C8D7"/>
<path d="M186.532 841.234C186.55 840.953 186.407 840.686 186.163 840.545L175.259 834.249C174.979 834.087 174.626 834.126 174.388 834.344L152.618 854.275C152.353 854.517 152.301 854.916 152.494 855.22C152.56 855.322 152.648 855.404 152.748 855.462C152.942 855.574 153.184 855.595 153.403 855.505L186.078 841.87C186.338 841.761 186.513 841.515 186.532 841.234ZM156.745 852.504L174.988 835.802L184.126 841.078L156.745 852.504Z" fill="#B8C8D7"/>
<path d="M163.083 278.791L151.692 266.371C151.476 266.137 151.156 266 150.817 266H107.531C107.193 266 106.873 266.136 106.656 266.371L95.265 278.791C94.9813 279.099 94.9198 279.528 95.1077 279.892C95.2957 280.255 95.6977 280.488 96.1397 280.488H162.208C162.65 280.488 163.052 280.255 163.24 279.892C163.427 279.53 163.367 279.1 163.083 278.791ZM98.5719 278.418L108.064 268.069H150.283L159.775 278.418H98.5719Z" fill="#B8C8D7"/>
<path d="M130.227 266.639C130.05 266.252 129.635 266 129.174 266H107.531C107.124 266 106.748 266.198 106.544 266.52C106.34 266.841 106.341 267.236 106.547 267.557L114.521 279.976C114.699 280.252 115.007 280.439 115.358 280.481C115.407 280.486 115.456 280.489 115.504 280.489C115.805 280.489 116.095 280.381 116.311 280.186L129.98 267.767C130.306 267.471 130.404 267.026 130.227 266.639ZM115.743 277.773L109.513 268.07H126.423L115.743 277.773Z" fill="#B8C8D7"/>
<path d="M163.231 278.992C163.04 278.64 162.643 278.416 162.21 278.416H96.1419C95.709 278.416 95.3137 278.64 95.1212 278.992C94.9298 279.345 94.9743 279.767 95.2374 280.079L128.272 319.406C128.487 319.663 128.822 319.814 129.177 319.814C129.533 319.814 129.868 319.663 130.081 319.406L163.115 280.079C163.378 279.767 163.422 279.345 163.231 278.992ZM129.177 317.074L98.4451 280.487H159.909L129.177 317.074Z" fill="#B8C8D7"/>
<path d="M130.263 318.467L116.594 279.139C116.443 278.709 116.005 278.416 115.507 278.416H96.1419C95.709 278.416 95.3137 278.64 95.1212 278.992C94.9298 279.345 94.9743 279.767 95.2374 280.079L128.272 319.406C128.493 319.67 128.831 319.814 129.177 319.814C129.355 319.814 129.535 319.777 129.701 319.696C130.192 319.465 130.429 318.946 130.263 318.467ZM98.4441 280.487H114.672L126.127 313.443L98.4441 280.487Z" fill="#B8C8D7"/>
<path d="M151.81 266.52C151.608 266.198 151.231 266 150.823 266H129.18C128.719 266 128.304 266.252 128.127 266.639C127.95 267.026 128.048 267.471 128.374 267.767L142.044 280.186C142.258 280.381 142.548 280.489 142.849 280.489C142.898 280.489 142.947 280.486 142.996 280.481C143.346 280.439 143.655 280.253 143.833 279.976L151.807 267.557C152.012 267.236 152.013 266.841 151.81 266.52ZM142.61 277.773L131.929 268.07H148.839L142.61 277.773Z" fill="#B8C8D7"/>
<path d="M163.227 278.992C163.036 278.64 162.64 278.416 162.207 278.416H142.842C142.344 278.416 141.904 278.709 141.755 279.139L128.086 318.467C127.919 318.945 128.156 319.464 128.647 319.696C128.814 319.775 128.994 319.812 129.171 319.812C129.516 319.812 129.855 319.668 130.077 319.406L163.111 280.079C163.374 279.766 163.419 279.345 163.227 278.992ZM132.221 313.441L143.676 280.485H159.903L132.221 313.441Z" fill="#B8C8D7"/>
<path d="M311.358 599.954L291.348 593.656C290.969 593.537 290.538 593.589 290.174 593.8L243.509 620.742C243.144 620.952 242.884 621.298 242.797 621.687L238.247 642.165C238.133 642.674 238.334 643.175 238.762 643.45C239.191 643.725 239.77 643.725 240.246 643.45L311.471 602.328C311.947 602.053 312.236 601.552 312.213 601.043C312.189 600.537 311.856 600.111 311.358 599.954ZM241.58 639.705L245.371 622.64L290.885 596.362L307.56 601.611L241.58 639.705Z" fill="#B8C8D7"/>
<path d="M268.374 607.304C267.943 606.996 267.338 606.984 266.842 607.27L243.509 620.741C243.07 620.995 242.788 621.442 242.768 621.916C242.749 622.39 242.995 622.814 243.417 623.032L259.743 631.457C260.107 631.645 260.556 631.654 260.96 631.481C261.016 631.456 261.071 631.429 261.122 631.399C261.447 631.212 261.693 630.915 261.803 630.57L268.81 608.674C268.977 608.152 268.805 607.611 268.374 607.304ZM259.69 628.322L246.935 621.739L265.164 611.214L259.69 628.322Z" fill="#B8C8D7"/>
<path d="M311.643 600.08C311.217 599.818 310.651 599.824 310.184 600.094L238.959 641.215C238.492 641.485 238.205 641.972 238.217 642.472C238.231 642.972 238.541 643.398 239.019 643.571L299.109 665.407C299.501 665.55 299.956 665.504 300.339 665.283C300.722 665.062 300.989 664.69 301.059 664.281L312.194 601.324C312.283 600.823 312.069 600.341 311.643 600.08ZM298.634 662.329L242.731 642.014L308.992 603.758L298.634 662.329Z" fill="#B8C8D7"/>
<path d="M300.671 663.155L261.457 629.266C261.027 628.895 260.372 628.853 259.835 629.162L238.959 641.215C238.492 641.485 238.205 641.972 238.217 642.472C238.231 642.972 238.541 643.398 239.019 643.571L299.109 665.407C299.512 665.554 299.966 665.498 300.339 665.283C300.531 665.172 300.702 665.02 300.831 664.83C301.216 664.275 301.148 663.568 300.671 663.155ZM242.73 642.015L260.224 631.915L293.085 660.313L242.73 642.015Z" fill="#B8C8D7"/>
<path d="M291.568 593.742C291.149 593.521 290.619 593.543 290.18 593.796L266.847 607.267C266.351 607.554 266.06 608.084 266.11 608.611C266.161 609.138 266.543 609.557 267.079 609.673L289.545 614.554C289.897 614.631 290.277 614.566 290.602 614.379C290.654 614.349 290.705 614.315 290.755 614.279C291.106 614.017 291.324 613.623 291.343 613.213L292.209 594.862C292.231 594.388 291.987 593.963 291.568 593.742ZM288.653 611.601L271.1 607.787L289.33 597.262L288.653 611.601Z" fill="#B8C8D7"/>
<path d="M311.639 600.082C311.213 599.821 310.647 599.827 310.18 600.096L289.304 612.149C288.767 612.459 288.475 613.048 288.582 613.605L298.324 664.51C298.442 665.129 299.021 665.541 299.695 665.486C299.923 665.467 300.14 665.395 300.332 665.285C300.704 665.07 300.979 664.704 301.055 664.284L312.19 601.326C312.279 600.825 312.065 600.343 311.639 600.082ZM299.654 656.518L291.49 613.86L308.985 603.76L299.654 656.518Z" fill="#B8C8D7"/>
<path d="M118.135 702.084L108.074 690.351C107.883 690.129 107.6 690 107.301 690L69.0681 690C68.7693 690 68.4866 690.128 68.2954 690.351L58.234 702.084C57.9835 702.376 57.9291 702.781 58.0951 703.124C58.2611 703.468 58.6163 703.688 59.0067 703.688L117.363 703.688C117.753 703.688 118.108 703.468 118.274 703.124C118.439 702.782 118.386 702.377 118.135 702.084ZM61.1549 701.732L69.539 691.955L106.829 691.955L115.214 701.732L61.1549 701.732Z" fill="#B8C8D7"/>
<path d="M89.1148 690.603C88.9588 690.238 88.5917 690 88.1851 690L69.0686 690C68.7084 690 68.3764 690.187 68.1963 690.491C68.0163 690.795 68.0172 691.167 68.1994 691.471L75.2423 703.204C75.3992 703.465 75.6719 703.642 75.9818 703.681C76.0251 703.686 76.0683 703.689 76.1106 703.689C76.3762 703.689 76.6328 703.587 76.8229 703.402L88.8966 691.669C89.1843 691.389 89.2708 690.969 89.1148 690.603ZM76.3218 701.123L70.8193 691.956L85.7553 691.956L76.3218 701.123Z" fill="#B8C8D7"/>
<path d="M118.266 702.275C118.097 701.942 117.747 701.73 117.365 701.73L59.0086 701.73C58.6263 701.73 58.2771 701.942 58.1071 702.275C57.938 702.609 57.9773 703.006 58.2097 703.302L87.3877 740.457C87.5779 740.699 87.8737 740.842 88.1876 740.842C88.5015 740.842 88.7973 740.699 88.9855 740.457L118.163 703.302C118.396 703.006 118.435 702.609 118.266 702.275ZM88.1876 738.253L61.043 703.687L115.332 703.687L88.1876 738.253Z" fill="#B8C8D7"/>
<path d="M89.1465 739.569L77.0729 702.414C76.9401 702.007 76.5527 701.73 76.113 701.73L59.0086 701.73C58.6263 701.73 58.2771 701.942 58.1071 702.275C57.938 702.609 57.9773 703.006 58.2097 703.302L87.3877 740.457C87.5829 740.706 87.8817 740.842 88.1876 740.842C88.3445 740.842 88.5035 740.807 88.6504 740.731C89.0842 740.513 89.2933 740.022 89.1465 739.569ZM61.0421 703.687L75.3755 703.687L85.4932 734.823L61.0421 703.687Z" fill="#B8C8D7"/>
<path d="M108.179 690.491C108 690.187 107.667 690 107.306 690L88.1897 690C87.7833 690 87.416 690.238 87.26 690.603C87.104 690.969 87.1906 691.389 87.4784 691.669L99.5521 703.402C99.7412 703.587 99.9977 703.689 100.263 703.689C100.307 703.689 100.35 703.686 100.393 703.681C100.702 703.642 100.976 703.466 101.133 703.204L108.176 691.471C108.357 691.168 108.358 690.795 108.179 690.491ZM100.052 701.123L90.6185 691.956L105.555 691.956L100.052 701.123Z" fill="#B8C8D7"/>
<path d="M118.263 702.275C118.094 701.942 117.744 701.73 117.361 701.73L100.257 701.73C99.8173 701.73 99.4289 702.007 99.2971 702.414L87.2235 739.569C87.0765 740.021 87.2858 740.512 87.7195 740.731C87.8664 740.805 88.0253 740.84 88.1823 740.84C88.4872 740.84 88.786 740.704 88.9822 740.457L118.16 703.302C118.393 703.006 118.432 702.608 118.263 702.275ZM90.8758 734.821L100.994 703.685L115.327 703.685L90.8758 734.821Z" fill="#B8C8D7"/>
<path d="M1582.31 192.929L1603.69 176.456C1604.1 176.145 1604.62 176.028 1605.12 176.14L1669.2 190.441C1669.7 190.553 1670.13 190.88 1670.36 191.335L1682.71 215.335C1683.02 215.932 1682.95 216.652 1682.54 217.181C1682.13 217.711 1681.45 217.958 1680.8 217.812L1582.99 195.984C1582.33 195.838 1581.82 195.326 1581.68 194.672C1581.53 194.02 1581.78 193.34 1582.31 192.929ZM1677.95 213.636L1667.66 193.636L1605.16 179.688L1587.34 193.415L1677.95 213.636Z" fill="#B8C8D7"/>
<path d="M1635.37 183.983C1635.77 183.411 1636.48 183.138 1637.16 183.29L1669.2 190.441C1669.81 190.576 1670.29 191.022 1670.48 191.614C1670.66 192.206 1670.52 192.848 1670.09 193.302L1653.77 210.904C1653.41 211.296 1652.88 211.499 1652.35 211.451C1652.28 211.443 1652.2 211.432 1652.13 211.416C1651.69 211.317 1651.29 211.045 1651.05 210.655L1635.33 185.903C1634.95 185.313 1634.97 184.555 1635.37 183.983ZM1652.76 206.912L1665.52 193.159L1640.48 187.572L1652.76 206.912Z" fill="#B8C8D7"/>
<path d="M1582.02 193.209C1582.43 192.698 1583.1 192.464 1583.74 192.607L1681.55 214.435C1682.19 214.578 1682.69 215.073 1682.85 215.711C1683.01 216.35 1682.79 217.021 1682.28 217.444L1619.08 270.612C1618.67 270.959 1618.11 271.095 1617.59 270.977C1617.06 270.86 1616.62 270.503 1616.4 270.014L1581.8 195.018C1581.52 194.422 1581.61 193.721 1582.02 193.209ZM1618.58 266.512L1677.39 217.049L1586.39 196.742L1618.58 266.512Z" fill="#B8C8D7"/>
<path d="M1616.47 268.423L1651.01 208.857C1651.39 208.205 1652.14 207.873 1652.88 208.037L1681.55 214.435C1682.19 214.578 1682.69 215.073 1682.85 215.711C1683.01 216.35 1682.79 217.021 1682.28 217.444L1619.08 270.612C1618.65 270.969 1618.1 271.092 1617.59 270.977C1617.33 270.919 1617.07 270.798 1616.86 270.612C1616.21 270.074 1616.05 269.149 1616.47 268.423ZM1677.39 217.049L1653.36 211.688L1624.42 261.604L1677.39 217.049Z" fill="#B8C8D7"/>
<path d="M1603.46 176.659C1603.88 176.201 1604.51 176.003 1605.11 176.138L1637.15 183.289C1637.83 183.441 1638.36 183.988 1638.48 184.677C1638.6 185.366 1638.29 186.059 1637.7 186.433L1612.95 202.154C1612.56 202.402 1612.09 202.481 1611.65 202.382C1611.58 202.365 1611.5 202.344 1611.43 202.32C1610.93 202.137 1610.54 201.731 1610.38 201.22L1603.09 178.349C1602.9 177.759 1603.04 177.116 1603.46 176.659ZM1612.99 198.036L1632.33 185.753L1607.3 180.166L1612.99 198.036Z" fill="#B8C8D7"/>
<path d="M1582.02 193.211C1582.44 192.699 1583.1 192.466 1583.74 192.609L1612.41 199.006C1613.15 199.171 1613.69 199.793 1613.76 200.544L1619.69 269.142C1619.77 269.976 1619.23 270.745 1618.42 270.96C1618.14 271.033 1617.86 271.035 1617.6 270.976C1617.09 270.862 1616.64 270.516 1616.4 270.016L1581.8 195.02C1581.53 194.423 1581.61 193.722 1582.02 193.211ZM1615.4 259.587L1610.43 202.102L1586.4 196.74L1615.4 259.587Z" fill="#B8C8D7"/>
<path d="M1888.31 168.929L1909.69 152.456C1910.1 152.145 1910.62 152.028 1911.12 152.14L1975.2 166.441C1975.7 166.553 1976.13 166.88 1976.36 167.335L1988.71 191.335C1989.02 191.932 1988.95 192.652 1988.54 193.181C1988.13 193.711 1987.45 193.958 1986.8 193.812L1888.99 171.984C1888.33 171.838 1887.82 171.326 1887.68 170.672C1887.53 170.02 1887.78 169.34 1888.31 168.929ZM1983.95 189.636L1973.66 169.636L1911.16 155.688L1893.34 169.415L1983.95 189.636Z" fill="#B8C8D7"/>
<path d="M1888.02 169.209C1888.43 168.698 1889.1 168.464 1889.74 168.607L1987.55 190.435C1988.19 190.578 1988.69 191.073 1988.85 191.711C1989.01 192.35 1988.79 193.021 1988.28 193.444L1925.08 246.612C1924.67 246.959 1924.11 247.095 1923.59 246.977C1923.06 246.86 1922.62 246.503 1922.4 246.014L1887.8 171.018C1887.52 170.422 1887.61 169.721 1888.02 169.209ZM1924.58 242.512L1983.39 193.049L1892.39 172.742L1924.58 242.512Z" fill="#B8C8D7"/>
<path d="M1909.46 152.658C1909.88 152.201 1910.51 152.003 1911.11 152.138L1943.15 159.289C1943.83 159.441 1944.36 159.988 1944.48 160.677C1944.6 161.366 1944.29 162.059 1943.7 162.433L1918.95 178.154C1918.56 178.402 1918.09 178.481 1917.65 178.382C1917.58 178.365 1917.5 178.344 1917.43 178.32C1916.93 178.137 1916.54 177.731 1916.38 177.22L1909.09 154.349C1908.9 153.759 1909.04 153.116 1909.46 152.658ZM1918.99 174.036L1938.33 161.753L1913.3 156.166L1918.99 174.036Z" fill="#B8C8D7"/>
<path d="M1888.02 169.211C1888.44 168.699 1889.1 168.466 1889.74 168.609L1918.41 175.006C1919.15 175.171 1919.69 175.793 1919.76 176.544L1925.69 245.142C1925.77 245.976 1925.23 246.745 1924.42 246.96C1924.14 247.033 1923.86 247.035 1923.6 246.976C1923.09 246.862 1922.64 246.516 1922.4 246.016L1887.8 171.02C1887.53 170.423 1887.61 169.722 1888.02 169.211ZM1921.4 235.587L1916.43 178.102L1892.4 172.74L1921.4 235.587Z" fill="#B8C8D7"/>
<path d="M1888.31 519.929L1909.69 503.456C1910.1 503.145 1910.62 503.028 1911.12 503.14L1975.2 517.441C1975.7 517.553 1976.13 517.88 1976.36 518.335L1988.71 542.335C1989.02 542.932 1988.95 543.652 1988.54 544.181C1988.13 544.711 1987.45 544.958 1986.8 544.812L1888.99 522.984C1888.33 522.838 1887.82 522.326 1887.68 521.672C1887.53 521.02 1887.78 520.34 1888.31 519.929ZM1983.95 540.636L1973.66 520.636L1911.16 506.688L1893.34 520.415L1983.95 540.636Z" fill="#B8C8D7"/>
<path d="M1888.02 520.209C1888.43 519.698 1889.1 519.464 1889.74 519.607L1987.55 541.435C1988.19 541.578 1988.69 542.073 1988.85 542.711C1989.01 543.35 1988.79 544.021 1988.28 544.444L1925.08 597.612C1924.67 597.959 1924.11 598.095 1923.59 597.977C1923.06 597.86 1922.62 597.503 1922.4 597.014L1887.8 522.018C1887.52 521.422 1887.61 520.721 1888.02 520.209ZM1924.58 593.512L1983.39 544.049L1892.39 523.742L1924.58 593.512Z" fill="#B8C8D7"/>
<path d="M1909.46 503.658C1909.88 503.201 1910.51 503.003 1911.11 503.138L1943.15 510.289C1943.83 510.441 1944.36 510.988 1944.48 511.677C1944.6 512.366 1944.29 513.059 1943.7 513.433L1918.95 529.154C1918.56 529.402 1918.09 529.481 1917.65 529.382C1917.58 529.365 1917.5 529.344 1917.43 529.32C1916.93 529.137 1916.54 528.731 1916.38 528.22L1909.09 505.349C1908.9 504.759 1909.04 504.116 1909.46 503.658ZM1918.99 525.036L1938.33 512.753L1913.3 507.166L1918.99 525.036Z" fill="#B8C8D7"/>
<path d="M1888.02 520.211C1888.44 519.699 1889.1 519.466 1889.74 519.609L1918.41 526.006C1919.15 526.171 1919.69 526.793 1919.76 527.544L1925.69 596.142C1925.77 596.976 1925.23 597.745 1924.42 597.96C1924.14 598.033 1923.86 598.035 1923.6 597.976C1923.09 597.862 1922.64 597.516 1922.4 597.016L1887.8 522.02C1887.53 521.423 1887.61 520.722 1888.02 520.211ZM1921.4 586.587L1916.43 529.102L1892.4 523.74L1921.4 586.587Z" fill="#B8C8D7"/>
<path d="M1732.23 468.409L1734.2 457.009C1734.24 456.793 1734.37 456.604 1734.56 456.494L1758.94 442.421C1759.13 442.311 1759.36 442.291 1759.56 442.367L1770.42 446.361C1770.69 446.46 1770.88 446.706 1770.9 446.992C1770.93 447.278 1770.78 447.554 1770.54 447.697L1733.33 469.177C1733.08 469.32 1732.77 469.307 1732.54 469.143C1732.3 468.979 1732.18 468.693 1732.23 468.409ZM1768.42 447.205L1759.38 443.877L1735.6 457.602L1733.96 467.103L1768.42 447.205Z" fill="#B8C8D7"/>
<path d="M1746.38 450.196C1746.35 449.898 1746.49 449.607 1746.75 449.458L1758.94 442.421C1759.17 442.289 1759.45 442.289 1759.68 442.422C1759.91 442.555 1760.05 442.8 1760.05 443.066L1760 453.356C1760 453.585 1759.89 453.801 1759.71 453.941C1759.68 453.96 1759.66 453.978 1759.63 453.994C1759.46 454.091 1759.26 454.119 1759.07 454.068L1746.93 450.815C1746.64 450.737 1746.42 450.493 1746.38 450.196ZM1758.52 452.388L1758.56 444.349L1749.04 449.846L1758.52 452.388Z" fill="#B8C8D7"/>
<path d="M1732.22 468.583C1732.2 468.302 1732.34 468.034 1732.59 467.894L1769.79 446.414C1770.04 446.273 1770.34 446.283 1770.57 446.439C1770.81 446.596 1770.93 446.872 1770.9 447.151L1766.37 482.266C1766.34 482.495 1766.2 482.697 1766 482.813C1765.8 482.928 1765.56 482.943 1765.35 482.854L1732.67 469.219C1732.41 469.11 1732.24 468.864 1732.22 468.583ZM1765.02 481.114L1769.24 448.446L1734.63 468.429L1765.02 481.114Z" fill="#B8C8D7"/>
<path d="M1764.91 482.331L1758.53 453.512C1758.47 453.196 1758.61 452.872 1758.89 452.71L1769.79 446.414C1770.04 446.273 1770.34 446.283 1770.57 446.439C1770.81 446.596 1770.93 446.872 1770.9 447.151L1766.37 482.266C1766.34 482.501 1766.2 482.7 1766 482.813C1765.9 482.87 1765.79 482.906 1765.67 482.91C1765.31 482.927 1764.99 482.682 1764.91 482.331ZM1769.24 448.446L1760.1 453.722L1765.44 477.872L1769.24 448.446Z" fill="#B8C8D7"/>
<path d="M1734.19 457.139C1734.19 456.873 1734.33 456.628 1734.56 456.496L1746.75 449.459C1747 449.31 1747.33 449.33 1747.57 449.513C1747.8 449.695 1747.91 450.003 1747.83 450.292L1744.58 462.434C1744.53 462.625 1744.4 462.786 1744.23 462.884C1744.21 462.899 1744.18 462.913 1744.15 462.926C1743.94 463.014 1743.69 463 1743.5 462.885L1734.56 457.78C1734.33 457.648 1734.19 457.404 1734.19 457.139ZM1743.4 461.123L1745.94 451.636L1736.42 457.134L1743.4 461.123Z" fill="#B8C8D7"/>
<path d="M1732.22 468.581C1732.2 468.3 1732.35 468.033 1732.59 467.892L1743.5 461.596C1743.78 461.434 1744.13 461.473 1744.37 461.691L1766.14 481.622C1766.4 481.864 1766.45 482.264 1766.26 482.567C1766.19 482.67 1766.11 482.751 1766.01 482.809C1765.81 482.921 1765.57 482.942 1765.35 482.852L1732.68 469.217C1732.42 469.109 1732.24 468.862 1732.22 468.581ZM1762.01 479.852L1743.77 463.15L1734.63 468.425L1762.01 479.852Z" fill="#B8C8D7"/>
<path d="M1732.23 130.062L1734.2 118.661C1734.24 118.446 1734.37 118.257 1734.56 118.147L1758.94 104.074C1759.13 103.964 1759.36 103.944 1759.56 104.02L1770.42 108.014C1770.69 108.113 1770.88 108.359 1770.9 108.645C1770.93 108.931 1770.78 109.206 1770.54 109.35L1733.33 130.83C1733.08 130.973 1732.77 130.96 1732.54 130.796C1732.3 130.632 1732.18 130.346 1732.23 130.062ZM1768.42 108.858L1759.38 105.53L1735.6 119.255L1733.96 128.756L1768.42 108.858Z" fill="#B8C8D7"/>
<path d="M1746.38 111.849C1746.35 111.551 1746.49 111.26 1746.75 111.111L1758.94 104.074C1759.17 103.942 1759.45 103.942 1759.68 104.075C1759.91 104.208 1760.05 104.453 1760.05 104.719L1760 115.009C1760 115.238 1759.89 115.454 1759.71 115.594C1759.68 115.613 1759.66 115.631 1759.63 115.646C1759.46 115.744 1759.26 115.772 1759.07 115.721L1746.93 112.467C1746.64 112.39 1746.42 112.146 1746.38 111.849ZM1758.52 114.041L1758.56 106.001L1749.04 111.499L1758.52 114.041Z" fill="#B8C8D7"/>
<path d="M1732.22 130.236C1732.2 129.955 1732.34 129.687 1732.59 129.546L1769.79 108.067C1770.04 107.926 1770.34 107.936 1770.57 108.092C1770.81 108.249 1770.93 108.524 1770.9 108.804L1766.37 143.918C1766.34 144.147 1766.2 144.35 1766 144.465C1765.8 144.581 1765.56 144.596 1765.35 144.506L1732.67 130.871C1732.41 130.763 1732.24 130.517 1732.22 130.236ZM1765.02 142.767L1769.24 110.099L1734.63 130.082L1765.02 142.767Z" fill="#B8C8D7"/>
<path d="M1764.91 143.983L1758.53 115.164C1758.47 114.849 1758.61 114.524 1758.89 114.363L1769.79 108.067C1770.04 107.926 1770.34 107.936 1770.57 108.092C1770.81 108.249 1770.93 108.524 1770.9 108.804L1766.37 143.918C1766.34 144.154 1766.2 144.353 1766 144.466C1765.9 144.523 1765.79 144.559 1765.67 144.563C1765.31 144.579 1764.99 144.334 1764.91 143.983ZM1769.24 110.099L1760.1 115.375L1765.44 139.525L1769.24 110.099Z" fill="#B8C8D7"/>
<path d="M1734.19 118.792C1734.19 118.526 1734.33 118.281 1734.56 118.149L1746.75 111.112C1747 110.963 1747.33 110.983 1747.57 111.166C1747.8 111.348 1747.91 111.656 1747.83 111.945L1744.58 124.087C1744.53 124.278 1744.4 124.439 1744.23 124.536C1744.21 124.552 1744.18 124.566 1744.15 124.579C1743.94 124.667 1743.69 124.652 1743.5 124.538L1734.56 119.433C1734.33 119.301 1734.19 119.057 1734.19 118.792ZM1743.4 122.776L1745.94 113.289L1736.42 118.787L1743.4 122.776Z" fill="#B8C8D7"/>
<path d="M1732.22 130.234C1732.2 129.953 1732.35 129.686 1732.59 129.545L1743.5 123.249C1743.78 123.087 1744.13 123.126 1744.37 123.344L1766.14 143.275C1766.4 143.517 1766.45 143.916 1766.26 144.22C1766.19 144.322 1766.11 144.404 1766.01 144.462C1765.81 144.574 1765.57 144.595 1765.35 144.505L1732.68 130.87C1732.42 130.761 1732.24 130.515 1732.22 130.234ZM1762.01 141.504L1743.77 124.802L1734.63 130.078L1762.01 141.504Z" fill="#B8C8D7"/>
<path d="M1732.23 841.062L1734.2 829.661C1734.24 829.446 1734.37 829.257 1734.56 829.147L1758.94 815.074C1759.13 814.964 1759.36 814.944 1759.56 815.02L1770.42 819.014C1770.69 819.113 1770.88 819.359 1770.9 819.645C1770.93 819.931 1770.78 820.206 1770.54 820.35L1733.33 841.83C1733.08 841.973 1732.77 841.96 1732.54 841.796C1732.3 841.632 1732.18 841.346 1732.23 841.062ZM1768.42 819.858L1759.38 816.53L1735.6 830.255L1733.96 839.756L1768.42 819.858Z" fill="#B8C8D7"/>
<path d="M1746.38 822.848C1746.35 822.551 1746.49 822.26 1746.75 822.11L1758.94 815.074C1759.17 814.942 1759.45 814.942 1759.68 815.075C1759.91 815.208 1760.05 815.453 1760.05 815.719L1760 826.009C1760 826.238 1759.89 826.454 1759.71 826.594C1759.68 826.613 1759.66 826.631 1759.63 826.646C1759.46 826.744 1759.26 826.772 1759.07 826.721L1746.93 823.467C1746.64 823.39 1746.42 823.146 1746.38 822.848ZM1758.52 825.041L1758.56 817.001L1749.04 822.499L1758.52 825.041Z" fill="#B8C8D7"/>
<path d="M1732.22 841.236C1732.2 840.955 1732.34 840.687 1732.59 840.547L1769.79 819.067C1770.04 818.926 1770.34 818.936 1770.57 819.092C1770.81 819.249 1770.93 819.524 1770.9 819.804L1766.37 854.918C1766.34 855.147 1766.2 855.35 1766 855.466C1765.8 855.581 1765.56 855.596 1765.35 855.506L1732.67 841.871C1732.41 841.763 1732.24 841.517 1732.22 841.236ZM1765.02 853.767L1769.24 821.099L1734.63 841.082L1765.02 853.767Z" fill="#B8C8D7"/>
<path d="M1764.91 854.983L1758.53 826.164C1758.47 825.849 1758.61 825.524 1758.89 825.363L1769.79 819.067C1770.04 818.926 1770.34 818.936 1770.57 819.092C1770.81 819.249 1770.93 819.524 1770.9 819.804L1766.37 854.918C1766.34 855.154 1766.2 855.353 1766 855.466C1765.9 855.523 1765.79 855.559 1765.67 855.563C1765.31 855.579 1764.99 855.334 1764.91 854.983ZM1769.24 821.099L1760.1 826.375L1765.44 850.525L1769.24 821.099Z" fill="#B8C8D7"/>
<path d="M1734.19 829.792C1734.19 829.526 1734.33 829.281 1734.56 829.149L1746.75 822.112C1747 821.963 1747.33 821.983 1747.57 822.166C1747.8 822.348 1747.91 822.656 1747.83 822.945L1744.58 835.087C1744.53 835.278 1744.4 835.439 1744.23 835.536C1744.21 835.552 1744.18 835.566 1744.15 835.579C1743.94 835.667 1743.69 835.652 1743.5 835.538L1734.56 830.433C1734.33 830.301 1734.19 830.057 1734.19 829.792ZM1743.4 833.776L1745.94 824.289L1736.42 829.787L1743.4 833.776Z" fill="#B8C8D7"/>
<path d="M1732.22 841.234C1732.2 840.953 1732.35 840.686 1732.59 840.545L1743.5 834.25C1743.78 834.088 1744.13 834.126 1744.37 834.345L1766.14 854.276C1766.4 854.518 1766.45 854.917 1766.26 855.22C1766.19 855.323 1766.11 855.405 1766.01 855.462C1765.81 855.575 1765.57 855.595 1765.35 855.505L1732.68 841.87C1732.42 841.762 1732.24 841.515 1732.22 841.234ZM1762.01 852.505L1743.77 835.803L1734.63 841.079L1762.01 852.505Z" fill="#B8C8D7"/>
<path d="M1755.67 278.791L1767.06 266.371C1767.28 266.137 1767.6 266 1767.94 266H1811.22C1811.56 266 1811.88 266.136 1812.1 266.371L1823.49 278.791C1823.77 279.099 1823.83 279.528 1823.65 279.892C1823.46 280.255 1823.06 280.488 1822.61 280.488H1756.55C1756.1 280.488 1755.7 280.255 1755.51 279.892C1755.33 279.53 1755.39 279.1 1755.67 278.791ZM1820.18 278.418L1810.69 268.069H1768.47L1758.98 278.418H1820.18Z" fill="#B8C8D7"/>
<path d="M1788.53 266.639C1788.7 266.252 1789.12 266 1789.58 266H1811.22C1811.63 266 1812.01 266.198 1812.21 266.52C1812.41 266.841 1812.41 267.236 1812.21 267.557L1804.23 279.976C1804.06 280.252 1803.75 280.439 1803.4 280.481C1803.35 280.486 1803.3 280.489 1803.25 280.489C1802.95 280.489 1802.66 280.381 1802.44 280.186L1788.77 267.767C1788.45 267.471 1788.35 267.026 1788.53 266.639ZM1803.01 277.773L1809.24 268.07H1792.33L1803.01 277.773Z" fill="#B8C8D7"/>
<path d="M1755.52 278.992C1755.71 278.64 1756.11 278.416 1756.54 278.416H1822.61C1823.05 278.416 1823.44 278.64 1823.63 278.992C1823.82 279.345 1823.78 279.767 1823.52 280.079L1790.48 319.406C1790.27 319.663 1789.93 319.814 1789.58 319.814C1789.22 319.814 1788.89 319.663 1788.67 319.406L1755.64 280.079C1755.38 279.767 1755.33 279.345 1755.52 278.992ZM1789.58 317.074L1820.31 280.487H1758.84L1789.58 317.074Z" fill="#B8C8D7"/>
<path d="M1788.49 318.467L1802.16 279.139C1802.31 278.709 1802.75 278.416 1803.25 278.416H1822.61C1823.05 278.416 1823.44 278.64 1823.63 278.992C1823.82 279.345 1823.78 279.767 1823.52 280.079L1790.48 319.406C1790.26 319.67 1789.92 319.814 1789.58 319.814C1789.4 319.814 1789.22 319.777 1789.05 319.696C1788.56 319.465 1788.33 318.946 1788.49 318.467ZM1820.31 280.487H1804.08L1792.63 313.443L1820.31 280.487Z" fill="#B8C8D7"/>
<path d="M1766.94 266.52C1767.15 266.198 1767.52 266 1767.93 266H1789.57C1790.03 266 1790.45 266.252 1790.63 266.639C1790.8 267.026 1790.71 267.471 1790.38 267.767L1776.71 280.186C1776.5 280.381 1776.21 280.489 1775.91 280.489C1775.86 280.489 1775.81 280.486 1775.76 280.481C1775.41 280.439 1775.1 280.253 1774.92 279.976L1766.95 267.557C1766.74 267.236 1766.74 266.841 1766.94 266.52ZM1776.14 277.773L1786.82 268.07H1769.91L1776.14 277.773Z" fill="#B8C8D7"/>
<path d="M1755.53 278.992C1755.72 278.64 1756.11 278.416 1756.55 278.416H1775.91C1776.41 278.416 1776.85 278.709 1777 279.139L1790.67 318.467C1790.83 318.945 1790.6 319.464 1790.11 319.696C1789.94 319.775 1789.76 319.812 1789.58 319.812C1789.24 319.812 1788.9 319.668 1788.68 319.406L1755.64 280.079C1755.38 279.766 1755.34 279.345 1755.53 278.992ZM1786.53 313.441L1775.08 280.485H1758.85L1786.53 313.441Z" fill="#B8C8D7"/>
<path d="M1607.4 599.954L1627.41 593.656C1627.79 593.537 1628.22 593.589 1628.58 593.8L1675.25 620.742C1675.61 620.952 1675.87 621.298 1675.96 621.687L1680.51 642.165C1680.62 642.674 1680.42 643.175 1679.99 643.45C1679.56 643.725 1678.98 643.725 1678.51 643.45L1607.28 602.328C1606.81 602.053 1606.52 601.552 1606.54 601.043C1606.57 600.537 1606.9 600.111 1607.4 599.954ZM1677.17 639.705L1673.38 622.64L1627.87 596.362L1611.19 601.611L1677.17 639.705Z" fill="#B8C8D7"/>
<path d="M1650.38 607.304C1650.81 606.996 1651.42 606.984 1651.91 607.27L1675.24 620.741C1675.68 620.995 1675.97 621.442 1675.99 621.916C1676.01 622.39 1675.76 622.814 1675.34 623.032L1659.01 631.457C1658.65 631.645 1658.2 631.654 1657.79 631.481C1657.74 631.456 1657.68 631.429 1657.63 631.399C1657.31 631.212 1657.06 630.915 1656.95 630.57L1649.94 608.674C1649.78 608.152 1649.95 607.611 1650.38 607.304ZM1659.06 628.322L1671.82 621.739L1653.59 611.214L1659.06 628.322Z" fill="#B8C8D7"/>
<path d="M1607.11 600.08C1607.54 599.818 1608.1 599.824 1608.57 600.094L1679.8 641.215C1680.26 641.485 1680.55 641.972 1680.54 642.472C1680.52 642.972 1680.21 643.398 1679.74 643.571L1619.64 665.407C1619.25 665.55 1618.8 665.504 1618.41 665.283C1618.03 665.062 1617.76 664.69 1617.69 664.281L1606.56 601.324C1606.47 600.823 1606.69 600.341 1607.11 600.08ZM1620.12 662.329L1676.02 642.014L1609.76 603.758L1620.12 662.329Z" fill="#B8C8D7"/>
<path d="M1618.08 663.155L1657.3 629.266C1657.73 628.895 1658.38 628.852 1658.92 629.162L1679.8 641.215C1680.26 641.485 1680.55 641.972 1680.54 642.472C1680.52 642.972 1680.21 643.398 1679.74 643.571L1619.64 665.407C1619.24 665.554 1618.79 665.498 1618.41 665.283C1618.22 665.172 1618.05 665.02 1617.92 664.83C1617.54 664.275 1617.61 663.568 1618.08 663.155ZM1676.02 642.015L1658.53 631.915L1625.67 660.313L1676.02 642.015Z" fill="#B8C8D7"/>
<path d="M1627.19 593.742C1627.61 593.521 1628.13 593.543 1628.57 593.796L1651.91 607.267C1652.4 607.554 1652.69 608.084 1652.64 608.611C1652.59 609.138 1652.21 609.557 1651.68 609.673L1629.21 614.554C1628.86 614.631 1628.48 614.566 1628.15 614.379C1628.1 614.349 1628.05 614.315 1628 614.279C1627.65 614.017 1627.43 613.623 1627.41 613.213L1626.54 594.862C1626.52 594.388 1626.77 593.963 1627.19 593.742ZM1630.1 611.601L1647.65 607.787L1629.42 597.262L1630.1 611.601Z" fill="#B8C8D7"/>
<path d="M1607.12 600.082C1607.54 599.821 1608.11 599.827 1608.57 600.096L1629.45 612.149C1629.99 612.459 1630.28 613.048 1630.17 613.605L1620.43 664.51C1620.31 665.129 1619.73 665.541 1619.06 665.486C1618.83 665.467 1618.61 665.395 1618.42 665.285C1618.05 665.07 1617.78 664.704 1617.7 664.284L1606.56 601.326C1606.47 600.825 1606.69 600.343 1607.12 600.082ZM1619.1 656.518L1627.26 613.86L1609.77 603.76L1619.1 656.518Z" fill="#B8C8D7"/>
<path d="M1800.62 702.084L1810.68 690.351C1810.87 690.129 1811.15 690 1811.45 690L1849.69 690C1849.98 690 1850.27 690.128 1850.46 690.351L1860.52 702.084C1860.77 702.376 1860.83 702.781 1860.66 703.124C1860.49 703.468 1860.14 703.688 1859.75 703.688L1801.39 703.688C1801 703.688 1800.65 703.468 1800.48 703.124C1800.31 702.782 1800.37 702.377 1800.62 702.084ZM1857.6 701.732L1849.22 691.955L1811.92 691.955L1803.54 701.732L1857.6 701.732Z" fill="#B8C8D7"/>
<path d="M1829.64 690.603C1829.8 690.238 1830.16 690 1830.57 690L1849.69 690C1850.05 690 1850.38 690.187 1850.56 690.491C1850.74 690.795 1850.74 691.167 1850.55 691.471L1843.51 703.204C1843.35 703.465 1843.08 703.642 1842.77 703.681C1842.73 703.686 1842.69 703.689 1842.64 703.689C1842.38 703.689 1842.12 703.587 1841.93 703.402L1829.86 691.669C1829.57 691.389 1829.48 690.969 1829.64 690.603ZM1842.43 701.123L1847.93 691.956L1833 691.956L1842.43 701.123Z" fill="#B8C8D7"/>
<path d="M1800.49 702.275C1800.66 701.942 1801.01 701.73 1801.39 701.73L1859.75 701.73C1860.13 701.73 1860.48 701.942 1860.65 702.275C1860.82 702.609 1860.78 703.006 1860.54 703.302L1831.37 740.457C1831.18 740.699 1830.88 740.842 1830.57 740.842C1830.25 740.842 1829.96 740.699 1829.77 740.457L1800.59 703.302C1800.36 703.006 1800.32 702.609 1800.49 702.275ZM1830.57 738.253L1857.71 703.687L1803.42 703.687L1830.57 738.253Z" fill="#B8C8D7"/>
<path d="M1829.61 739.569L1841.68 702.414C1841.81 702.007 1842.2 701.73 1842.64 701.73L1859.75 701.73C1860.13 701.73 1860.48 701.942 1860.65 702.275C1860.82 702.609 1860.78 703.006 1860.54 703.302L1831.37 740.457C1831.17 740.706 1830.87 740.842 1830.57 740.842C1830.41 740.842 1830.25 740.807 1830.1 740.731C1829.67 740.513 1829.46 740.022 1829.61 739.569ZM1857.71 703.687L1843.38 703.687L1833.26 734.823L1857.71 703.687Z" fill="#B8C8D7"/>
<path d="M1810.58 690.491C1810.75 690.187 1811.09 690 1811.45 690L1830.56 690C1830.97 690 1831.34 690.238 1831.49 690.603C1831.65 690.969 1831.56 691.389 1831.28 691.669L1819.2 703.402C1819.01 703.587 1818.76 703.689 1818.49 703.689C1818.45 703.689 1818.4 703.686 1818.36 703.681C1818.05 703.642 1817.78 703.466 1817.62 703.204L1810.58 691.471C1810.4 691.168 1810.4 690.795 1810.58 690.491ZM1818.7 701.123L1828.14 691.956L1813.2 691.956L1818.7 701.123Z" fill="#B8C8D7"/>
<path d="M1800.49 702.275C1800.66 701.942 1801.01 701.73 1801.39 701.73L1818.5 701.73C1818.94 701.73 1819.33 702.007 1819.46 702.414L1831.53 739.569C1831.68 740.021 1831.47 740.512 1831.03 740.731C1830.89 740.805 1830.73 740.84 1830.57 740.84C1830.27 740.84 1829.97 740.704 1829.77 740.457L1800.59 703.302C1800.36 703.006 1800.32 702.608 1800.49 702.275ZM1827.88 734.821L1817.76 703.685L1803.43 703.685L1827.88 734.821Z" fill="#B8C8D7"/>
<path d="M469.915 8.01364L459.057 4.01967C458.851 3.94441 458.622 3.96384 458.431 4.07386L434.056 18.1468C433.866 18.2567 433.734 18.4448 433.697 18.6614L431.726 30.0621C431.677 30.3455 431.796 30.6317 432.032 30.7957C432.267 30.9598 432.577 30.9734 432.826 30.8297L470.03 9.35004C470.279 9.20634 470.422 8.9313 470.398 8.64506C470.373 8.3598 470.186 8.11317 469.915 8.01364ZM433.455 28.7561L435.097 19.2557L458.871 5.52978L467.919 8.85819L433.455 28.7561Z" fill="#B8C8D7"/>
<path d="M447.065 11.1637C446.827 10.9813 446.503 10.9605 446.244 11.1102L434.057 18.1466C433.827 18.2792 433.686 18.5239 433.686 18.7897C433.687 19.0555 433.828 19.2995 434.059 19.4313L442.994 24.5362C443.192 24.6497 443.433 24.6655 443.646 24.5771C443.675 24.5644 443.704 24.5503 443.731 24.5348C443.9 24.437 444.025 24.2759 444.076 24.0846L447.33 11.9432C447.407 11.6539 447.303 11.3462 447.065 11.1637ZM442.894 22.7739L435.913 18.7851L445.436 13.2875L442.894 22.7739Z" fill="#B8C8D7"/>
<path d="M470.071 8.09079C469.837 7.93428 469.534 7.9246 469.29 8.06534L432.086 29.5449C431.842 29.6857 431.7 29.9527 431.717 30.2341C431.736 30.515 431.912 30.7616 432.172 30.8698L464.847 44.5049C465.06 44.594 465.302 44.5787 465.502 44.4632C465.703 44.3477 465.837 44.1451 465.865 43.9168L470.394 8.80207C470.431 8.52281 470.305 8.24734 470.071 8.09079ZM464.522 42.7647L434.124 30.0797L468.735 10.097L464.522 42.7647Z" fill="#B8C8D7"/>
<path d="M465.632 43.2751L443.861 23.3442C443.623 23.1263 443.271 23.0873 442.991 23.2492L432.086 29.5449C431.842 29.6857 431.7 29.9527 431.717 30.2341C431.736 30.515 431.912 30.7616 432.172 30.8698L464.847 44.5049C465.065 44.5967 465.307 44.5758 465.502 44.4632C465.602 44.4054 465.69 44.3239 465.755 44.2197C465.949 43.9171 465.897 43.5181 465.632 43.2751ZM434.123 30.0801L443.261 24.8042L461.505 41.5063L434.123 30.0801Z" fill="#B8C8D7"/>
<path d="M459.176 4.0731C458.947 3.93952 458.664 3.93955 458.434 4.07214L446.247 11.1086C445.988 11.2582 445.844 11.5493 445.883 11.8465C445.922 12.1438 446.136 12.3878 446.426 12.4653L458.567 15.7186C458.758 15.7702 458.96 15.7425 459.129 15.6447C459.157 15.6288 459.183 15.6109 459.209 15.5918C459.391 15.4525 459.499 15.2363 459.5 15.0066L459.546 4.71692C459.546 4.45144 459.406 4.20667 459.176 4.0731ZM458.023 14.0394L448.536 11.4975L458.058 5.99987L458.023 14.0394Z" fill="#B8C8D7"/>
<path d="M470.069 8.09188C469.835 7.93537 469.531 7.92569 469.288 8.06643L458.383 14.3622C458.103 14.524 457.96 14.8485 458.03 15.1639L464.406 43.9829C464.483 44.3333 464.802 44.5783 465.162 44.5624C465.284 44.557 465.398 44.5217 465.498 44.4639C465.693 44.3517 465.832 44.1525 465.863 43.918L470.392 8.80327C470.428 8.52383 470.303 8.24836 470.069 8.09188ZM464.936 39.5236L459.593 15.3733L468.731 10.0974L464.936 39.5236Z" fill="#B8C8D7"/>
<path d="M999.915 8.01364L989.057 4.01967C988.851 3.94441 988.622 3.96384 988.431 4.07386L964.056 18.1468C963.866 18.2567 963.734 18.4448 963.697 18.6614L961.726 30.0621C961.677 30.3455 961.796 30.6317 962.032 30.7957C962.267 30.9598 962.577 30.9734 962.826 30.8297L1000.03 9.35004C1000.28 9.20634 1000.42 8.9313 1000.4 8.64506C1000.37 8.3598 1000.19 8.11317 999.915 8.01364ZM963.455 28.7561L965.097 19.2557L988.871 5.52978L997.919 8.85819L963.455 28.7561Z" fill="#B8C8D7"/>
<path d="M977.065 11.1637C976.827 10.9813 976.503 10.9605 976.244 11.1102L964.057 18.1466C963.827 18.2792 963.686 18.5239 963.686 18.7897C963.687 19.0555 963.828 19.2995 964.059 19.4313L972.994 24.5362C973.192 24.6497 973.433 24.6655 973.646 24.5771C973.675 24.5644 973.704 24.5503 973.731 24.5348C973.9 24.437 974.025 24.2759 974.076 24.0846L977.33 11.9432C977.407 11.6539 977.303 11.3462 977.065 11.1637ZM972.894 22.7739L965.913 18.7851L975.436 13.2875L972.894 22.7739Z" fill="#B8C8D7"/>
<path d="M1000.07 8.09079C999.837 7.93428 999.534 7.9246 999.29 8.06534L962.086 29.5449C961.842 29.6857 961.7 29.9527 961.717 30.2341C961.736 30.515 961.912 30.7616 962.172 30.8698L994.847 44.5049C995.06 44.594 995.302 44.5787 995.502 44.4632C995.703 44.3477 995.837 44.1451 995.865 43.9168L1000.39 8.80207C1000.43 8.52281 1000.3 8.24734 1000.07 8.09079ZM994.522 42.7647L964.124 30.0797L998.735 10.097L994.522 42.7647Z" fill="#B8C8D7"/>
<path d="M995.632 43.2751L973.861 23.3442C973.623 23.1263 973.271 23.0873 972.991 23.2492L962.086 29.5449C961.842 29.6857 961.7 29.9527 961.717 30.2341C961.736 30.515 961.912 30.7616 962.172 30.8698L994.847 44.5049C995.065 44.5967 995.307 44.5758 995.502 44.4632C995.602 44.4054 995.69 44.3239 995.755 44.2197C995.949 43.9171 995.897 43.5181 995.632 43.2751ZM964.123 30.0801L973.261 24.8042L991.505 41.5063L964.123 30.0801Z" fill="#B8C8D7"/>
<path d="M989.176 4.07311C988.947 3.93953 988.664 3.93956 988.434 4.07215L976.247 11.1086C975.988 11.2582 975.844 11.5493 975.883 11.8465C975.922 12.1438 976.136 12.3878 976.426 12.4653L988.567 15.7186C988.758 15.7703 988.96 15.7425 989.129 15.6447C989.157 15.6288 989.183 15.6109 989.209 15.5918C989.391 15.4525 989.499 15.2363 989.5 15.0066L989.546 4.71693C989.546 4.45145 989.406 4.20668 989.176 4.07311ZM988.023 14.0394L978.536 11.4975L988.058 5.99988L988.023 14.0394Z" fill="#B8C8D7"/>
<path d="M1000.07 8.09188C999.835 7.93537 999.531 7.92569 999.288 8.06643L988.383 14.3622C988.103 14.524 987.96 14.8485 988.03 15.1639L994.406 43.9829C994.483 44.3333 994.802 44.5783 995.162 44.5624C995.284 44.557 995.398 44.5217 995.498 44.4639C995.693 44.3517 995.832 44.1525 995.863 43.918L1000.39 8.80327C1000.43 8.52383 1000.3 8.24836 1000.07 8.09188ZM994.936 39.5236L989.593 15.3733L998.731 10.0974L994.936 39.5236Z" fill="#B8C8D7"/>
<path d="M1524.92 8.01358L1514.06 4.01962C1513.85 3.94436 1513.62 3.96379 1513.43 4.07381L1489.06 18.1467C1488.87 18.2567 1488.73 18.4448 1488.7 18.6614L1486.73 30.0622C1486.68 30.3455 1486.8 30.6317 1487.03 30.7957C1487.27 30.9598 1487.58 30.9734 1487.83 30.8297L1525.03 9.34998C1525.28 9.20629 1525.42 8.93125 1525.4 8.64501C1525.37 8.35975 1525.19 8.11312 1524.92 8.01358ZM1488.46 28.7561L1490.1 19.2556L1513.87 5.52974L1522.92 8.85814L1488.46 28.7561Z" fill="#B8C8D7"/>
<path d="M1502.07 11.1638C1501.83 10.9813 1501.5 10.9606 1501.24 11.1102L1489.06 18.1466C1488.83 18.2792 1488.69 18.5239 1488.69 18.7897C1488.69 19.0555 1488.83 19.2995 1489.06 19.4313L1497.99 24.5362C1498.19 24.6497 1498.43 24.6655 1498.65 24.5771C1498.68 24.5644 1498.7 24.5503 1498.73 24.5348C1498.9 24.437 1499.03 24.2759 1499.08 24.0846L1502.33 11.9433C1502.41 11.6539 1502.3 11.3462 1502.07 11.1638ZM1497.89 22.7739L1490.91 18.7851L1500.44 13.2875L1497.89 22.7739Z" fill="#B8C8D7"/>
<path d="M1525.07 8.09077C1524.84 7.93426 1524.53 7.92457 1524.29 8.06532L1487.09 29.5449C1486.84 29.6857 1486.7 29.9527 1486.72 30.2341C1486.74 30.515 1486.91 30.7616 1487.17 30.8698L1519.85 44.5049C1520.06 44.594 1520.3 44.5787 1520.5 44.4632C1520.7 44.3477 1520.84 44.1451 1520.87 43.9168L1525.39 8.80204C1525.43 8.52279 1525.3 8.24732 1525.07 8.09077ZM1519.52 42.7647L1489.12 30.0797L1523.74 10.097L1519.52 42.7647Z" fill="#B8C8D7"/>
<path d="M1520.63 43.2751L1498.86 23.3442C1498.62 23.1263 1498.27 23.0873 1497.99 23.2492L1487.09 29.5449C1486.84 29.6857 1486.7 29.9527 1486.72 30.2341C1486.74 30.515 1486.91 30.7616 1487.17 30.8698L1519.85 44.5049C1520.07 44.5967 1520.31 44.5758 1520.5 44.4632C1520.6 44.4054 1520.69 44.3239 1520.76 44.2197C1520.95 43.9171 1520.9 43.5181 1520.63 43.2751ZM1489.12 30.0801L1498.26 24.8042L1516.51 41.5063L1489.12 30.0801Z" fill="#B8C8D7"/>
<path d="M1514.18 4.07309C1513.95 3.93951 1513.66 3.93954 1513.43 4.07213L1501.25 11.1086C1500.99 11.2582 1500.84 11.5493 1500.88 11.8465C1500.92 12.1438 1501.14 12.3878 1501.43 12.4653L1513.57 15.7186C1513.76 15.7702 1513.96 15.7425 1514.13 15.6447C1514.16 15.6288 1514.18 15.6109 1514.21 15.5918C1514.39 15.4525 1514.5 15.2363 1514.5 15.0066L1514.55 4.71691C1514.55 4.45143 1514.41 4.20666 1514.18 4.07309ZM1513.02 14.0394L1503.54 11.4975L1513.06 5.99986L1513.02 14.0394Z" fill="#B8C8D7"/>
<path d="M1525.07 8.09197C1524.83 7.93547 1524.53 7.92578 1524.29 8.06652L1513.38 14.3622C1513.1 14.5241 1512.96 14.8486 1513.03 15.1639L1519.41 43.9828C1519.48 44.3332 1519.8 44.5782 1520.16 44.5623C1520.28 44.5569 1520.4 44.5216 1520.5 44.4638C1520.69 44.3516 1520.83 44.1525 1520.86 43.918L1525.39 8.80336C1525.43 8.52392 1525.3 8.24845 1525.07 8.09197ZM1519.94 39.5235L1514.59 15.3733L1523.73 10.0975L1519.94 39.5235Z" fill="#B8C8D7"/>
<path d="M669.791 59.157L660.834 48.4084C660.664 48.2051 660.412 48.0869 660.146 48.0869L626.109 48.0869C625.843 48.0869 625.591 48.2043 625.421 48.4084L616.464 59.1571C616.241 59.424 616.192 59.7957 616.34 60.1101C616.488 60.4244 616.804 60.626 617.151 60.626L669.103 60.6259C669.451 60.6259 669.767 60.4244 669.915 60.11C670.062 59.7966 670.014 59.4248 669.791 59.157ZM619.064 58.8346L626.528 49.8774L659.726 49.8774L667.19 58.8346L619.064 58.8346Z" fill="#B8C8D7"/>
<path d="M643.955 48.6396C643.816 48.3046 643.49 48.0869 643.128 48.0869L626.109 48.0869C625.788 48.0869 625.493 48.258 625.332 48.5366C625.172 48.8152 625.173 49.1564 625.335 49.4341L631.605 60.1827C631.745 60.4218 631.988 60.584 632.264 60.6198C632.302 60.6243 632.341 60.6269 632.378 60.6269C632.615 60.6269 632.843 60.5338 633.012 60.3645L643.761 49.6159C644.017 49.3598 644.094 48.9745 643.955 48.6396ZM632.566 58.2766L627.668 49.8784L640.964 49.8784L632.566 58.2766Z" fill="#B8C8D7"/>
<path d="M669.907 59.3319C669.757 59.0265 669.445 58.833 669.105 58.833L617.153 58.833C616.813 58.833 616.502 59.0265 616.351 59.3319C616.2 59.6374 616.235 60.0019 616.442 60.2724L642.418 94.3098C642.587 94.5319 642.85 94.6627 643.13 94.6627C643.409 94.6627 643.673 94.5319 643.84 94.3098L669.816 60.2724C670.023 60.0019 670.058 59.6374 669.907 59.3319ZM643.13 92.2908L618.964 60.6254L667.296 60.6254L643.13 92.2908Z" fill="#B8C8D7"/>
<path d="M643.984 93.4965L633.235 59.4591C633.117 59.0865 632.772 58.833 632.381 58.833L617.153 58.833C616.813 58.833 616.502 59.0265 616.351 59.3319C616.2 59.6374 616.235 60.0019 616.442 60.2724L642.418 94.3098C642.592 94.5382 642.858 94.6627 643.13 94.6627C643.27 94.6627 643.411 94.6304 643.542 94.5605C643.928 94.3609 644.114 93.9112 643.984 93.4965ZM618.964 60.6254L631.724 60.6254L640.731 89.1487L618.964 60.6254Z" fill="#B8C8D7"/>
<path d="M660.927 48.5366C660.768 48.258 660.471 48.0869 660.15 48.0869L643.132 48.0869C642.77 48.0869 642.443 48.3046 642.304 48.6396C642.165 48.9745 642.242 49.3597 642.499 49.6159L653.247 60.3645C653.416 60.5338 653.644 60.6269 653.88 60.6269C653.919 60.6269 653.957 60.6242 653.996 60.6198C654.271 60.584 654.515 60.4228 654.654 60.1827L660.924 49.4341C661.086 49.1564 661.086 48.8152 660.927 48.5366ZM653.692 58.2766L645.294 49.8784L658.591 49.8784L653.692 58.2766Z" fill="#B8C8D7"/>
<path d="M669.905 59.3319C669.754 59.0265 669.442 58.833 669.102 58.833L653.875 58.833C653.483 58.833 653.138 59.0865 653.02 59.4591L642.272 93.4965C642.141 93.9103 642.327 94.3599 642.713 94.5606C642.844 94.6287 642.985 94.661 643.125 94.661C643.397 94.661 643.663 94.5365 643.837 94.3099L669.813 60.2725C670.02 60.0018 670.055 59.6373 669.905 59.3319ZM645.523 89.1468L654.53 60.6234L667.291 60.6234L645.523 89.1468Z" fill="#B8C8D7"/>
<path d="M1199.79 59.157L1190.83 48.4084C1190.66 48.2051 1190.41 48.0869 1190.15 48.0869L1156.11 48.0869C1155.84 48.0869 1155.59 48.2043 1155.42 48.4084L1146.46 59.1571C1146.24 59.424 1146.19 59.7957 1146.34 60.1101C1146.49 60.4244 1146.8 60.626 1147.15 60.626L1199.1 60.6259C1199.45 60.6259 1199.77 60.4244 1199.91 60.11C1200.06 59.7966 1200.01 59.4248 1199.79 59.157ZM1149.06 58.8346L1156.53 49.8774L1189.73 49.8774L1197.19 58.8346L1149.06 58.8346Z" fill="#B8C8D7"/>
<path d="M1173.96 48.6396C1173.82 48.3046 1173.49 48.0869 1173.13 48.0869L1156.11 48.0869C1155.79 48.0869 1155.49 48.258 1155.33 48.5366C1155.17 48.8152 1155.17 49.1564 1155.34 49.4341L1161.61 60.1827C1161.75 60.4218 1161.99 60.584 1162.26 60.6198C1162.3 60.6243 1162.34 60.6269 1162.38 60.6269C1162.61 60.6269 1162.84 60.5338 1163.01 60.3645L1173.76 49.6159C1174.02 49.3598 1174.09 48.9745 1173.96 48.6396ZM1162.57 58.2766L1157.67 49.8784L1170.96 49.8784L1162.57 58.2766Z" fill="#B8C8D7"/>
<path d="M1199.91 59.3319C1199.76 59.0265 1199.45 58.833 1199.1 58.833L1147.15 58.833C1146.81 58.833 1146.5 59.0265 1146.35 59.3319C1146.2 59.6374 1146.24 60.0019 1146.44 60.2724L1172.42 94.3098C1172.59 94.5319 1172.85 94.6627 1173.13 94.6627C1173.41 94.6627 1173.67 94.5319 1173.84 94.3098L1199.82 60.2724C1200.02 60.0019 1200.06 59.6374 1199.91 59.3319ZM1173.13 92.2908L1148.96 60.6254L1197.3 60.6254L1173.13 92.2908Z" fill="#B8C8D7"/>
<path d="M1173.98 93.4965L1163.24 59.4591C1163.12 59.0865 1162.77 58.833 1162.38 58.833L1147.15 58.833C1146.81 58.833 1146.5 59.0265 1146.35 59.3319C1146.2 59.6374 1146.24 60.0019 1146.44 60.2724L1172.42 94.3098C1172.59 94.5382 1172.86 94.6627 1173.13 94.6627C1173.27 94.6627 1173.41 94.6304 1173.54 94.5605C1173.93 94.3609 1174.11 93.9112 1173.98 93.4965ZM1148.96 60.6254L1161.72 60.6254L1170.73 89.1487L1148.96 60.6254Z" fill="#B8C8D7"/>
<path d="M1190.93 48.5366C1190.77 48.258 1190.47 48.0869 1190.15 48.0869L1173.13 48.0869C1172.77 48.0869 1172.44 48.3046 1172.3 48.6396C1172.17 48.9745 1172.24 49.3597 1172.5 49.6159L1183.25 60.3645C1183.42 60.5338 1183.64 60.6269 1183.88 60.6269C1183.92 60.6269 1183.96 60.6242 1184 60.6198C1184.27 60.584 1184.51 60.4228 1184.65 60.1827L1190.92 49.4341C1191.09 49.1564 1191.09 48.8152 1190.93 48.5366ZM1183.69 58.2766L1175.29 49.8784L1188.59 49.8784L1183.69 58.2766Z" fill="#B8C8D7"/>
<path d="M1199.9 59.3319C1199.75 59.0265 1199.44 58.833 1199.1 58.833L1183.87 58.833C1183.48 58.833 1183.14 59.0865 1183.02 59.4591L1172.27 93.4965C1172.14 93.9103 1172.33 94.3599 1172.71 94.5606C1172.84 94.6287 1172.99 94.661 1173.13 94.661C1173.4 94.661 1173.66 94.5365 1173.84 94.3099L1199.81 60.2725C1200.02 60.0018 1200.06 59.6373 1199.9 59.3319ZM1175.52 89.1468L1184.53 60.6234L1197.29 60.6234L1175.52 89.1468Z" fill="#B8C8D7"/>
<path d="M869.294 67.3196L871.272 45.5661C871.308 45.1538 871.161 44.7455 870.867 44.4517L833.293 6.87738C832.999 6.58375 832.592 6.43543 832.179 6.47286L810.425 8.45049C809.884 8.49893 809.42 8.85583 809.236 9.36602C809.053 9.87622 809.179 10.4477 809.563 10.8314L866.913 68.1816C867.297 68.5653 867.868 68.6918 868.378 68.5079C868.887 68.3243 869.245 67.8615 869.294 67.3196ZM813.652 10.9651L831.779 9.31677L868.427 45.9646L866.779 64.0922L813.652 10.9651Z" fill="#B8C8D7"/>
<path d="M852.384 27.1888C852.6 26.6657 852.48 26.0646 852.08 25.665L833.293 6.8779C832.939 6.5239 832.424 6.38647 831.94 6.51707C831.455 6.64766 831.079 7.02529 830.952 7.51081L826.008 26.2979C825.898 26.7161 825.987 27.1632 826.252 27.5072C826.29 27.5547 826.329 27.6001 826.371 27.6416C826.632 27.9027 826.987 28.0521 827.36 28.0521L851.092 28.052C851.657 28.052 852.167 27.7118 852.384 27.1888ZM829.173 25.2547L833.036 10.576L847.715 25.2547L829.173 25.2547Z" fill="#B8C8D7"/>
<path d="M869.23 67.6408C869.401 67.1374 869.27 66.5798 868.894 66.2041L811.544 8.85386C811.168 8.47808 810.612 8.34853 810.107 8.51863C809.604 8.68967 809.24 9.13068 809.17 9.65768L800.271 75.9072C800.213 76.3393 800.359 76.7744 800.667 77.0828C800.976 77.3913 801.411 77.5376 801.841 77.4774L868.091 68.5782C868.618 68.508 869.058 68.144 869.23 67.6408ZM803.286 74.4645L811.565 12.8318L864.918 66.1854L803.286 74.4645Z" fill="#B8C8D7"/>
<path d="M802.897 76.7379L828.606 27.298C828.887 26.7562 828.786 26.0955 828.354 25.6635L811.544 8.85386C811.168 8.47808 810.612 8.34853 810.107 8.51863C809.604 8.68967 809.24 9.13068 809.17 9.65768L800.271 75.9072C800.21 76.3511 800.367 76.7823 800.667 77.0828C800.822 77.2371 801.013 77.3577 801.235 77.4249C801.882 77.6308 802.584 77.34 802.897 76.7379ZM811.564 12.8309L825.65 26.9173L804.106 68.348L811.564 12.8309Z" fill="#B8C8D7"/>
<path d="M871.233 45.8101C871.364 45.3266 871.226 44.8105 870.872 44.4565L852.085 25.6692C851.685 25.2698 851.084 25.1492 850.561 25.3656C850.038 25.5821 849.698 26.0924 849.698 26.658L849.698 50.3892C849.697 50.7619 849.846 51.1169 850.107 51.3779C850.15 51.4205 850.195 51.46 850.243 51.4976C850.586 51.7617 851.033 51.8527 851.452 51.7419L870.239 46.7978C870.724 46.6693 871.101 46.2937 871.233 45.8101ZM852.494 48.5757L852.494 30.0338L867.173 44.7124L852.494 48.5757Z" fill="#B8C8D7"/>
<path d="M869.227 67.6377C869.398 67.1344 869.267 66.5768 868.891 66.201L852.082 49.3914C851.65 48.9593 850.988 48.8575 850.447 49.1393L801.007 74.848C800.406 75.1604 800.115 75.8625 800.32 76.5103C800.389 76.7297 800.51 76.9216 800.664 77.0758C800.964 77.3755 801.395 77.5317 801.838 77.4743L868.087 68.5752C868.615 68.5048 869.055 68.1409 869.227 67.6377ZM809.398 73.6358L850.829 52.0917L864.916 66.1782L809.398 73.6358Z" fill="#B8C8D7"/>
<path d="M1399.29 59.3196L1401.27 37.5661C1401.31 37.1538 1401.16 36.7454 1400.87 36.4517L1363.29 -1.12263C1363 -1.41626 1362.59 -1.56458 1362.18 -1.52715L1340.43 0.450483C1339.88 0.498919 1339.42 0.855815 1339.24 1.36601C1339.05 1.87621 1339.18 2.4477 1339.56 2.83136L1396.91 60.1816C1397.3 60.5652 1397.87 60.6918 1398.38 60.5079C1398.89 60.3242 1399.24 59.8614 1399.29 59.3196ZM1343.65 2.96508L1361.78 1.31676L1398.43 37.9646L1396.78 56.0921L1343.65 2.96508Z" fill="#B8C8D7"/>
<path d="M1382.38 19.1888C1382.6 18.6658 1382.48 18.0646 1382.08 17.6651L1363.29 -1.1221C1362.94 -1.4761 1362.42 -1.61352 1361.94 -1.48293C1361.46 -1.35234 1361.08 -0.974705 1360.95 -0.489189L1356.01 18.298C1355.9 18.7162 1355.99 19.1632 1356.25 19.5073C1356.29 19.5548 1356.33 19.6002 1356.37 19.6417C1356.63 19.9027 1356.99 20.0521 1357.36 20.0521L1381.09 20.0521C1381.66 20.0521 1382.17 19.7119 1382.38 19.1888ZM1359.17 17.2548L1363.04 2.57605L1377.71 17.2547L1359.17 17.2548Z" fill="#B8C8D7"/>
<path d="M1399.23 59.6408C1399.4 59.1374 1399.27 58.5798 1398.89 58.2041L1341.54 0.853859C1341.17 0.478078 1340.61 0.348531 1340.11 0.518635C1339.6 0.689666 1339.24 1.13068 1339.17 1.65768L1330.27 67.9072C1330.21 68.3393 1330.36 68.7744 1330.67 69.0828C1330.98 69.3913 1331.41 69.5376 1331.84 69.4774L1398.09 60.5782C1398.62 60.508 1399.06 60.144 1399.23 59.6408ZM1333.29 66.4645L1341.56 4.83184L1394.92 58.1854L1333.29 66.4645Z" fill="#B8C8D7"/>
<path d="M1332.9 68.7379L1358.61 19.298C1358.89 18.7562 1358.79 18.0956 1358.35 17.6635L1341.54 0.85386C1341.17 0.478078 1340.61 0.348531 1340.11 0.518635C1339.6 0.689666 1339.24 1.13068 1339.17 1.65768L1330.27 67.9072C1330.21 68.3511 1330.37 68.7823 1330.67 69.0829C1330.82 69.2371 1331.01 69.3577 1331.23 69.425C1331.88 69.6309 1332.58 69.34 1332.9 68.7379ZM1341.56 4.83091L1355.65 18.9173L1334.11 60.348L1341.56 4.83091Z" fill="#B8C8D7"/>
<path d="M1401.23 37.8101C1401.36 37.3266 1401.23 36.8105 1400.87 36.4565L1382.08 17.6692C1381.69 17.2698 1381.08 17.1492 1380.56 17.3656C1380.04 17.5821 1379.7 18.0924 1379.7 18.658L1379.7 42.3892C1379.7 42.7619 1379.85 43.1169 1380.11 43.3779C1380.15 43.4205 1380.2 43.46 1380.24 43.4976C1380.59 43.7617 1381.03 43.8527 1381.45 43.7419L1400.24 38.7978C1400.72 38.6693 1401.1 38.2937 1401.23 37.8101ZM1382.49 40.5757L1382.49 22.0338L1397.17 36.7124L1382.49 40.5757Z" fill="#B8C8D7"/>
<path d="M1399.23 59.6377C1399.4 59.1343 1399.27 58.5767 1398.89 58.201L1382.08 41.3914C1381.65 40.9593 1380.99 40.8574 1380.45 41.1392L1331.01 66.848C1330.41 67.1604 1330.12 67.8625 1330.32 68.5102C1330.39 68.7297 1330.51 68.9216 1330.66 69.0758C1330.96 69.3754 1331.39 69.5316 1331.84 69.4743L1398.09 60.5751C1398.61 60.5048 1399.06 60.1408 1399.23 59.6377ZM1339.4 65.6357L1380.83 44.0917L1394.92 58.1781L1339.4 65.6357Z" fill="#B8C8D7"/>
<path d="M469.915 886.014L459.057 882.02C458.851 881.945 458.622 881.964 458.431 882.074L434.056 896.147C433.866 896.257 433.734 896.445 433.697 896.662L431.726 908.063C431.677 908.346 431.796 908.632 432.032 908.796C432.267 908.96 432.577 908.974 432.826 908.83L470.03 887.351C470.279 887.207 470.422 886.932 470.398 886.646C470.373 886.36 470.186 886.114 469.915 886.014ZM433.455 906.757L435.097 897.256L458.871 883.53L467.919 886.859L433.455 906.757Z" fill="#B8C8D7"/>
<path d="M447.065 889.164C446.827 888.982 446.503 888.961 446.244 889.111L434.057 896.147C433.827 896.28 433.686 896.524 433.686 896.79C433.687 897.056 433.828 897.3 434.059 897.432L442.994 902.537C443.192 902.65 443.433 902.666 443.646 902.578C443.675 902.565 443.704 902.551 443.731 902.535C443.9 902.437 444.025 902.276 444.076 902.085L447.33 889.944C447.407 889.654 447.303 889.347 447.065 889.164ZM442.894 900.774L435.913 896.786L445.436 891.288L442.894 900.774Z" fill="#B8C8D7"/>
<path d="M470.071 886.091C469.837 885.935 469.534 885.925 469.29 886.066L432.086 907.545C431.842 907.686 431.7 907.953 431.717 908.235C431.736 908.516 431.912 908.762 432.172 908.87L464.847 922.505C465.06 922.594 465.302 922.579 465.502 922.464C465.703 922.348 465.837 922.146 465.865 921.917L470.394 886.803C470.431 886.523 470.305 886.248 470.071 886.091ZM464.522 920.765L434.124 908.08L468.735 888.098L464.522 920.765Z" fill="#B8C8D7"/>
<path d="M465.632 921.276L443.861 901.345C443.623 901.127 443.271 901.088 442.991 901.25L432.086 907.545C431.842 907.686 431.7 907.953 431.717 908.235C431.736 908.516 431.912 908.762 432.172 908.87L464.846 922.505C465.065 922.597 465.307 922.576 465.502 922.464C465.602 922.406 465.69 922.324 465.755 922.22C465.949 921.918 465.897 921.519 465.632 921.276ZM434.123 908.081L443.261 902.805L461.505 919.507L434.123 908.081Z" fill="#B8C8D7"/>
<path d="M459.177 882.074C458.947 881.94 458.664 881.94 458.434 882.073L446.247 889.109C445.988 889.259 445.844 889.55 445.883 889.847C445.922 890.144 446.136 890.388 446.426 890.466L458.567 893.719C458.758 893.771 458.96 893.743 459.129 893.645C459.157 893.629 459.183 893.611 459.209 893.592C459.391 893.453 459.499 893.237 459.5 893.007L459.546 882.717C459.546 882.452 459.406 882.207 459.177 882.074ZM458.023 892.04L448.536 889.498L458.058 884L458.023 892.04Z" fill="#B8C8D7"/>
<path d="M470.069 886.092C469.834 885.936 469.531 885.926 469.288 886.067L458.383 892.363C458.103 892.525 457.96 892.849 458.03 893.164L464.405 921.983C464.483 922.334 464.802 922.579 465.162 922.563C465.283 922.558 465.398 922.522 465.498 922.464C465.693 922.352 465.832 922.153 465.863 921.919L470.392 886.804C470.428 886.524 470.303 886.249 470.069 886.092ZM464.936 917.524L459.593 893.374L468.731 888.098L464.936 917.524Z" fill="#B8C8D7"/>
<path d="M999.915 886.014L989.057 882.02C988.851 881.945 988.622 881.964 988.431 882.074L964.056 896.147C963.866 896.257 963.734 896.445 963.697 896.662L961.726 908.063C961.677 908.346 961.796 908.632 962.032 908.796C962.267 908.96 962.577 908.974 962.826 908.83L1000.03 887.351C1000.28 887.207 1000.42 886.932 1000.4 886.646C1000.37 886.36 1000.19 886.114 999.915 886.014ZM963.455 906.757L965.097 897.256L988.871 883.53L997.919 886.859L963.455 906.757Z" fill="#B8C8D7"/>
<path d="M977.065 889.164C976.827 888.982 976.503 888.961 976.244 889.111L964.057 896.147C963.827 896.28 963.686 896.524 963.686 896.79C963.687 897.056 963.828 897.3 964.059 897.432L972.994 902.537C973.192 902.65 973.433 902.666 973.646 902.578C973.675 902.565 973.704 902.551 973.731 902.535C973.9 902.437 974.025 902.276 974.076 902.085L977.33 889.944C977.407 889.654 977.303 889.347 977.065 889.164ZM972.894 900.774L965.913 896.786L975.436 891.288L972.894 900.774Z" fill="#B8C8D7"/>
<path d="M1000.07 886.091C999.837 885.935 999.534 885.925 999.29 886.066L962.086 907.545C961.842 907.686 961.7 907.953 961.717 908.235C961.736 908.516 961.912 908.762 962.172 908.87L994.847 922.505C995.06 922.594 995.302 922.579 995.502 922.464C995.703 922.348 995.837 922.146 995.865 921.917L1000.39 886.803C1000.43 886.523 1000.3 886.248 1000.07 886.091ZM994.522 920.765L964.124 908.08L998.735 888.098L994.522 920.765Z" fill="#B8C8D7"/>
<path d="M995.631 921.276L973.861 901.345C973.623 901.127 973.271 901.088 972.991 901.25L962.086 907.545C961.842 907.686 961.7 907.953 961.717 908.235C961.736 908.516 961.912 908.762 962.172 908.87L994.846 922.505C995.065 922.597 995.307 922.576 995.502 922.464C995.602 922.406 995.69 922.324 995.755 922.22C995.949 921.918 995.897 921.519 995.631 921.276ZM964.123 908.081L973.261 902.805L991.505 919.507L964.123 908.081Z" fill="#B8C8D7"/>
<path d="M989.176 882.074C988.947 881.94 988.664 881.94 988.434 882.073L976.247 889.109C975.988 889.259 975.844 889.55 975.883 889.847C975.922 890.144 976.136 890.388 976.426 890.466L988.567 893.719C988.758 893.771 988.96 893.743 989.129 893.645C989.157 893.629 989.183 893.611 989.209 893.592C989.391 893.453 989.499 893.237 989.5 893.007L989.546 882.717C989.546 882.452 989.406 882.207 989.176 882.074ZM988.023 892.04L978.536 889.498L988.058 884L988.023 892.04Z" fill="#B8C8D7"/>
<path d="M1000.07 886.092C999.835 885.936 999.531 885.926 999.288 886.067L988.383 892.363C988.103 892.525 987.96 892.849 988.03 893.164L994.406 921.983C994.483 922.334 994.802 922.579 995.162 922.563C995.284 922.558 995.398 922.522 995.498 922.464C995.693 922.352 995.832 922.153 995.863 921.919L1000.39 886.804C1000.43 886.524 1000.3 886.249 1000.07 886.092ZM994.936 917.524L989.593 893.374L998.731 888.098L994.936 917.524Z" fill="#B8C8D7"/>
<path d="M1524.92 886.014L1514.06 882.02C1513.85 881.944 1513.62 881.964 1513.43 882.074L1489.06 896.147C1488.87 896.257 1488.73 896.445 1488.7 896.661L1486.73 908.062C1486.68 908.346 1486.8 908.632 1487.03 908.796C1487.27 908.96 1487.58 908.973 1487.83 908.83L1525.03 887.35C1525.28 887.206 1525.42 886.931 1525.4 886.645C1525.37 886.36 1525.19 886.113 1524.92 886.014ZM1488.46 906.756L1490.1 897.256L1513.87 883.53L1522.92 886.858L1488.46 906.756Z" fill="#B8C8D7"/>
<path d="M1502.07 889.164C1501.83 888.981 1501.5 888.961 1501.24 889.11L1489.06 896.147C1488.83 896.279 1488.69 896.524 1488.69 896.79C1488.69 897.055 1488.83 897.299 1489.06 897.431L1497.99 902.536C1498.19 902.65 1498.43 902.665 1498.65 902.577C1498.68 902.564 1498.7 902.55 1498.73 902.535C1498.9 902.437 1499.03 902.276 1499.08 902.085L1502.33 889.943C1502.41 889.654 1502.3 889.346 1502.07 889.164ZM1497.89 900.774L1490.91 896.785L1500.44 891.288L1497.89 900.774Z" fill="#B8C8D7"/>
<path d="M1525.07 886.091C1524.84 885.934 1524.53 885.925 1524.29 886.065L1487.09 907.545C1486.84 907.686 1486.7 907.953 1486.72 908.234C1486.74 908.515 1486.91 908.762 1487.17 908.87L1519.85 922.505C1520.06 922.594 1520.3 922.579 1520.5 922.463C1520.7 922.348 1520.84 922.145 1520.87 921.917L1525.39 886.802C1525.43 886.523 1525.3 886.247 1525.07 886.091ZM1519.52 920.765L1489.12 908.08L1523.74 888.097L1519.52 920.765Z" fill="#B8C8D7"/>
<path d="M1520.63 921.275L1498.86 901.344C1498.62 901.126 1498.27 901.087 1497.99 901.249L1487.09 907.545C1486.84 907.686 1486.7 907.953 1486.72 908.234C1486.74 908.515 1486.91 908.762 1487.17 908.87L1519.85 922.505C1520.07 922.597 1520.31 922.576 1520.5 922.463C1520.6 922.405 1520.69 922.324 1520.76 922.22C1520.95 921.917 1520.9 921.518 1520.63 921.275ZM1489.12 908.08L1498.26 902.804L1516.51 919.506L1489.12 908.08Z" fill="#B8C8D7"/>
<path d="M1514.18 882.073C1513.95 881.94 1513.66 881.94 1513.43 882.072L1501.25 889.109C1500.99 889.258 1500.84 889.549 1500.88 889.847C1500.92 890.144 1501.14 890.388 1501.43 890.465L1513.57 893.719C1513.76 893.77 1513.96 893.742 1514.13 893.645C1514.16 893.629 1514.18 893.611 1514.21 893.592C1514.39 893.452 1514.5 893.236 1514.5 893.007L1514.55 882.717C1514.55 882.451 1514.41 882.207 1514.18 882.073ZM1513.02 892.039L1503.54 889.498L1513.06 884L1513.02 892.039Z" fill="#B8C8D7"/>
<path d="M1525.07 886.092C1524.83 885.935 1524.53 885.926 1524.29 886.067L1513.38 892.362C1513.1 892.524 1512.96 892.849 1513.03 893.164L1519.41 921.983C1519.48 922.333 1519.8 922.578 1520.16 922.562C1520.28 922.557 1520.4 922.522 1520.5 922.464C1520.69 922.352 1520.83 922.152 1520.86 921.918L1525.39 886.803C1525.43 886.524 1525.3 886.248 1525.07 886.092ZM1519.94 917.524L1514.59 893.373L1523.73 888.097L1519.94 917.524Z" fill="#B8C8D7"/>
<path d="M669.791 937.157L660.834 926.408C660.664 926.205 660.412 926.087 660.146 926.087L626.109 926.087C625.843 926.087 625.591 926.204 625.421 926.408L616.464 937.157C616.241 937.424 616.192 937.796 616.34 938.11C616.488 938.424 616.804 938.626 617.151 938.626L669.103 938.626C669.451 938.626 669.767 938.424 669.915 938.11C670.062 937.797 670.014 937.425 669.791 937.157ZM619.064 936.835L626.528 927.877L659.726 927.877L667.19 936.835L619.064 936.835Z" fill="#B8C8D7"/>
<path d="M643.955 926.64C643.816 926.305 643.49 926.087 643.128 926.087L626.109 926.087C625.788 926.087 625.493 926.258 625.332 926.537C625.172 926.815 625.173 927.156 625.335 927.434L631.605 938.183C631.745 938.422 631.988 938.584 632.264 938.62C632.302 938.624 632.341 938.627 632.378 938.627C632.615 938.627 632.843 938.534 633.012 938.365L643.761 927.616C644.017 927.36 644.094 926.975 643.955 926.64ZM632.566 936.277L627.668 927.878L640.964 927.878L632.566 936.277Z" fill="#B8C8D7"/>
<path d="M669.907 937.332C669.757 937.026 669.445 936.833 669.105 936.833L617.153 936.833C616.813 936.833 616.502 937.026 616.351 937.332C616.2 937.637 616.235 938.002 616.442 938.272L642.418 972.31C642.587 972.532 642.85 972.663 643.13 972.663C643.409 972.663 643.673 972.532 643.84 972.31L669.816 938.272C670.023 938.002 670.058 937.637 669.907 937.332ZM643.13 970.291L618.964 938.625L667.296 938.625L643.13 970.291Z" fill="#B8C8D7"/>
<path d="M643.984 971.496L633.235 937.459C633.117 937.086 632.772 936.833 632.381 936.833L617.153 936.833C616.813 936.833 616.502 937.026 616.351 937.332C616.2 937.637 616.235 938.002 616.442 938.272L642.418 972.31C642.592 972.538 642.858 972.663 643.13 972.663C643.27 972.663 643.411 972.63 643.542 972.561C643.928 972.361 644.114 971.911 643.984 971.496ZM618.964 938.625L631.724 938.625L640.731 967.149L618.964 938.625Z" fill="#B8C8D7"/>
<path d="M660.927 926.537C660.768 926.258 660.471 926.087 660.15 926.087L643.132 926.087C642.77 926.087 642.443 926.305 642.304 926.64C642.165 926.975 642.242 927.36 642.499 927.616L653.247 938.365C653.416 938.534 653.644 938.627 653.88 938.627C653.919 938.627 653.957 938.624 653.996 938.62C654.271 938.584 654.515 938.423 654.654 938.183L660.924 927.434C661.086 927.156 661.086 926.815 660.927 926.537ZM653.692 936.277L645.294 927.878L658.591 927.878L653.692 936.277Z" fill="#B8C8D7"/>
<path d="M669.905 937.332C669.754 937.026 669.442 936.833 669.102 936.833L653.875 936.833C653.483 936.833 653.138 937.087 653.02 937.459L642.272 971.496C642.141 971.91 642.327 972.36 642.713 972.561C642.844 972.629 642.985 972.661 643.125 972.661C643.397 972.661 643.663 972.537 643.837 972.31L669.813 938.273C670.02 938.002 670.055 937.637 669.905 937.332ZM645.523 967.147L654.53 938.623L667.291 938.623L645.523 967.147Z" fill="#B8C8D7"/>
<path d="M1199.79 937.157L1190.83 926.408C1190.66 926.205 1190.41 926.087 1190.15 926.087L1156.11 926.087C1155.84 926.087 1155.59 926.204 1155.42 926.408L1146.46 937.157C1146.24 937.424 1146.19 937.796 1146.34 938.11C1146.49 938.424 1146.8 938.626 1147.15 938.626L1199.1 938.626C1199.45 938.626 1199.77 938.424 1199.91 938.11C1200.06 937.797 1200.01 937.425 1199.79 937.157ZM1149.06 936.835L1156.53 927.877L1189.73 927.877L1197.19 936.835L1149.06 936.835Z" fill="#B8C8D7"/>
<path d="M1173.96 926.64C1173.82 926.305 1173.49 926.087 1173.13 926.087L1156.11 926.087C1155.79 926.087 1155.49 926.258 1155.33 926.537C1155.17 926.815 1155.17 927.156 1155.34 927.434L1161.61 938.183C1161.75 938.422 1161.99 938.584 1162.26 938.62C1162.3 938.624 1162.34 938.627 1162.38 938.627C1162.61 938.627 1162.84 938.534 1163.01 938.365L1173.76 927.616C1174.02 927.36 1174.09 926.975 1173.96 926.64ZM1162.57 936.277L1157.67 927.878L1170.96 927.878L1162.57 936.277Z" fill="#B8C8D7"/>
<path d="M1199.91 937.332C1199.76 937.026 1199.45 936.833 1199.1 936.833L1147.15 936.833C1146.81 936.833 1146.5 937.026 1146.35 937.332C1146.2 937.637 1146.24 938.002 1146.44 938.272L1172.42 972.31C1172.59 972.532 1172.85 972.663 1173.13 972.663C1173.41 972.663 1173.67 972.532 1173.84 972.31L1199.82 938.272C1200.02 938.002 1200.06 937.637 1199.91 937.332ZM1173.13 970.291L1148.96 938.625L1197.3 938.625L1173.13 970.291Z" fill="#B8C8D7"/>
<path d="M1173.98 971.496L1163.24 937.459C1163.12 937.086 1162.77 936.833 1162.38 936.833L1147.15 936.833C1146.81 936.833 1146.5 937.026 1146.35 937.332C1146.2 937.637 1146.24 938.002 1146.44 938.272L1172.42 972.31C1172.59 972.538 1172.86 972.663 1173.13 972.663C1173.27 972.663 1173.41 972.63 1173.54 972.561C1173.93 972.361 1174.11 971.911 1173.98 971.496ZM1148.96 938.625L1161.72 938.625L1170.73 967.149L1148.96 938.625Z" fill="#B8C8D7"/>
<path d="M1190.93 926.537C1190.77 926.258 1190.47 926.087 1190.15 926.087L1173.13 926.087C1172.77 926.087 1172.44 926.305 1172.3 926.64C1172.17 926.975 1172.24 927.36 1172.5 927.616L1183.25 938.365C1183.42 938.534 1183.64 938.627 1183.88 938.627C1183.92 938.627 1183.96 938.624 1184 938.62C1184.27 938.584 1184.51 938.423 1184.65 938.183L1190.92 927.434C1191.09 927.156 1191.09 926.815 1190.93 926.537ZM1183.69 936.277L1175.29 927.878L1188.59 927.878L1183.69 936.277Z" fill="#B8C8D7"/>
<path d="M1199.9 937.332C1199.75 937.026 1199.44 936.833 1199.1 936.833L1183.87 936.833C1183.48 936.833 1183.14 937.087 1183.02 937.459L1172.27 971.496C1172.14 971.91 1172.33 972.36 1172.71 972.561C1172.84 972.629 1172.99 972.661 1173.13 972.661C1173.4 972.661 1173.66 972.537 1173.84 972.31L1199.81 938.273C1200.02 938.002 1200.06 937.637 1199.9 937.332ZM1175.52 967.147L1184.53 938.623L1197.29 938.623L1175.52 967.147Z" fill="#B8C8D7"/>
<path d="M869.294 945.32L871.272 923.566C871.308 923.154 871.161 922.745 870.867 922.452L833.293 884.877C832.999 884.584 832.592 884.435 832.179 884.473L810.425 886.45C809.884 886.499 809.42 886.856 809.236 887.366C809.053 887.876 809.179 888.448 809.563 888.831L866.913 946.182C867.297 946.565 867.868 946.692 868.378 946.508C868.887 946.324 869.245 945.861 869.294 945.32ZM813.652 888.965L831.779 887.317L868.427 923.965L866.779 942.092L813.652 888.965Z" fill="#B8C8D7"/>
<path d="M852.384 905.189C852.6 904.666 852.48 904.065 852.08 903.665L833.293 884.878C832.939 884.524 832.424 884.386 831.94 884.517C831.455 884.648 831.079 885.025 830.952 885.511L826.008 904.298C825.898 904.716 825.987 905.163 826.252 905.507C826.29 905.555 826.329 905.6 826.371 905.642C826.632 905.903 826.987 906.052 827.361 906.052L851.092 906.052C851.657 906.052 852.167 905.712 852.384 905.189ZM829.173 903.255L833.036 888.576L847.715 903.255L829.173 903.255Z" fill="#B8C8D7"/>
<path d="M869.23 945.641C869.401 945.137 869.27 944.58 868.894 944.204L811.544 886.854C811.168 886.478 810.612 886.349 810.107 886.519C809.604 886.69 809.24 887.131 809.17 887.658L800.271 953.907C800.213 954.339 800.359 954.774 800.667 955.083C800.976 955.391 801.411 955.538 801.841 955.477L868.091 946.578C868.618 946.508 869.058 946.144 869.23 945.641ZM803.286 952.465L811.565 890.832L864.918 944.185L803.286 952.465Z" fill="#B8C8D7"/>
<path d="M802.897 954.738L828.606 905.298C828.887 904.756 828.786 904.096 828.354 903.663L811.544 886.854C811.169 886.478 810.612 886.349 810.108 886.519C809.604 886.69 809.24 887.131 809.17 887.658L800.271 953.907C800.211 954.351 800.367 954.782 800.667 955.083C800.822 955.237 801.013 955.358 801.235 955.425C801.882 955.631 802.584 955.34 802.897 954.738ZM811.564 890.831L825.65 904.917L804.106 946.348L811.564 890.831Z" fill="#B8C8D7"/>
<path d="M871.233 923.811C871.364 923.327 871.226 922.811 870.872 922.457L852.085 903.67C851.685 903.27 851.084 903.15 850.561 903.366C850.038 903.583 849.698 904.093 849.698 904.658L849.698 928.39C849.697 928.762 849.846 929.117 850.107 929.378C850.15 929.421 850.195 929.46 850.243 929.498C850.586 929.762 851.033 929.853 851.452 929.742L870.239 924.798C870.724 924.67 871.101 924.294 871.233 923.811ZM852.494 926.576L852.494 908.034L867.173 922.713L852.494 926.576Z" fill="#B8C8D7"/>
<path d="M869.227 945.638C869.398 945.134 869.267 944.577 868.891 944.201L852.082 927.391C851.65 926.959 850.988 926.857 850.447 927.139L801.007 952.848C800.406 953.16 800.115 953.863 800.32 954.51C800.389 954.73 800.51 954.922 800.664 955.076C800.964 955.375 801.395 955.532 801.838 955.474L868.087 946.575C868.615 946.505 869.056 946.141 869.227 945.638ZM809.398 951.636L850.829 930.092L864.916 944.178L809.398 951.636Z" fill="#B8C8D7"/>
<path d="M1399.29 937.32L1401.27 915.566C1401.31 915.154 1401.16 914.745 1400.87 914.452L1363.29 876.877C1363 876.584 1362.59 876.435 1362.18 876.473L1340.43 878.45C1339.88 878.499 1339.42 878.856 1339.24 879.366C1339.05 879.876 1339.18 880.448 1339.56 880.831L1396.91 938.182C1397.3 938.565 1397.87 938.692 1398.38 938.508C1398.89 938.324 1399.24 937.861 1399.29 937.32ZM1343.65 880.965L1361.78 879.317L1398.43 915.965L1396.78 934.092L1343.65 880.965Z" fill="#B8C8D7"/>
<path d="M1382.38 897.189C1382.6 896.666 1382.48 896.065 1382.08 895.665L1363.29 876.878C1362.94 876.524 1362.42 876.386 1361.94 876.517C1361.46 876.648 1361.08 877.025 1360.95 877.511L1356.01 896.298C1355.9 896.716 1355.99 897.163 1356.25 897.507C1356.29 897.555 1356.33 897.6 1356.37 897.642C1356.63 897.903 1356.99 898.052 1357.36 898.052L1381.09 898.052C1381.66 898.052 1382.17 897.712 1382.38 897.189ZM1359.17 895.255L1363.04 880.576L1377.71 895.255L1359.17 895.255Z" fill="#B8C8D7"/>
<path d="M1399.23 937.641C1399.4 937.137 1399.27 936.58 1398.89 936.204L1341.54 878.854C1341.17 878.478 1340.61 878.349 1340.11 878.519C1339.6 878.69 1339.24 879.131 1339.17 879.658L1330.27 945.907C1330.21 946.339 1330.36 946.774 1330.67 947.083C1330.98 947.391 1331.41 947.538 1331.84 947.477L1398.09 938.578C1398.62 938.508 1399.06 938.144 1399.23 937.641ZM1333.29 944.465L1341.56 882.832L1394.92 936.185L1333.29 944.465Z" fill="#B8C8D7"/>
<path d="M1332.9 946.738L1358.61 897.298C1358.89 896.756 1358.79 896.096 1358.35 895.663L1341.54 878.854C1341.17 878.478 1340.61 878.349 1340.11 878.519C1339.6 878.69 1339.24 879.131 1339.17 879.658L1330.27 945.907C1330.21 946.351 1330.37 946.782 1330.67 947.083C1330.82 947.237 1331.01 947.358 1331.23 947.425C1331.88 947.631 1332.58 947.34 1332.9 946.738ZM1341.56 882.831L1355.65 896.917L1334.11 938.348L1341.56 882.831Z" fill="#B8C8D7"/>
<path d="M1401.23 915.811C1401.36 915.327 1401.23 914.811 1400.87 914.457L1382.08 895.67C1381.69 895.27 1381.08 895.15 1380.56 895.366C1380.04 895.583 1379.7 896.093 1379.7 896.658L1379.7 920.39C1379.7 920.762 1379.85 921.117 1380.11 921.378C1380.15 921.421 1380.2 921.46 1380.24 921.498C1380.59 921.762 1381.03 921.853 1381.45 921.742L1400.24 916.798C1400.72 916.67 1401.1 916.294 1401.23 915.811ZM1382.49 918.576L1382.49 900.034L1397.17 914.713L1382.49 918.576Z" fill="#B8C8D7"/>
<path d="M1399.23 937.638C1399.4 937.134 1399.27 936.577 1398.89 936.201L1382.08 919.391C1381.65 918.959 1380.99 918.857 1380.45 919.139L1331.01 944.848C1330.41 945.16 1330.12 945.862 1330.32 946.51C1330.39 946.73 1330.51 946.922 1330.66 947.076C1330.96 947.375 1331.39 947.532 1331.84 947.474L1398.09 938.575C1398.61 938.505 1399.06 938.141 1399.23 937.638ZM1339.4 943.636L1380.83 922.092L1394.92 936.178L1339.4 943.636Z" fill="#B8C8D7"/>
</g>
<defs>
<clipPath id="clip0">
<rect width="1920" height="973" fill="white"/>
</clipPath>
</defs>
</svg>
