<svg width="218" height="64" viewBox="0 0 218 64" fill="none" xmlns="http://www.w3.org/2000/svg">
<g clip-path="url(#clip0)">
<path fill-rule="evenodd" clip-rule="evenodd" d="M209.494 64H8.67654C4.24761 64 0.640625 60.393 0.640625 56V8C0.640625 3.59102 4.24761 0 8.67654 0H209.494C213.919 0 217.53 3.59102 217.53 8V56C217.53 60.393 213.919 64 209.494 64Z" fill="black"/>
<path fill-rule="evenodd" clip-rule="evenodd" d="M209.494 1.2808C213.209 1.2808 216.25 4.30125 216.25 8V56C216.25 59.6988 213.229 62.7192 209.494 62.7192H8.67654C4.96182 62.7192 1.92142 59.6988 1.92142 56V8C1.92142 4.30125 4.94187 1.2808 8.67654 1.2808H209.494ZM209.494 0H8.67654C4.24761 0 0.640625 3.60698 0.640625 8V56C0.640625 60.409 4.24761 64 8.67654 64H209.494C213.919 64 217.53 60.409 217.53 56V8C217.53 3.60698 213.919 0 209.494 0Z" fill="#A6A6A6"/>
<path d="M114.899 21.1704C113.451 21.1704 112.23 20.6636 111.264 19.6661C110.306 18.6965 109.772 17.3599 109.796 15.9953C109.796 14.5389 110.29 13.306 111.264 12.3285C112.226 11.331 113.447 10.8242 114.895 10.8242C116.327 10.8242 117.548 11.331 118.53 12.3285C119.503 13.3379 119.998 14.5709 119.998 15.9953C119.982 17.4556 119.487 18.6886 118.53 19.6621C117.568 20.6676 116.347 21.1704 114.899 21.1704ZM71.8028 21.1704C70.3863 21.1704 69.1574 20.6716 68.1519 19.6861C67.1544 18.7045 66.6477 17.4636 66.6477 15.9993C66.6477 14.5349 67.1544 13.294 68.1519 12.3125C69.1375 11.327 70.3664 10.8282 71.8028 10.8282C72.505 10.8282 73.1873 10.9679 73.8417 11.2512C74.4841 11.5265 75.0068 11.9015 75.3938 12.3604L75.4896 12.4761L74.4083 13.5374L74.2966 13.4058C73.6861 12.6796 72.8681 12.3245 71.7868 12.3245C70.8213 12.3245 69.9794 12.6676 69.2851 13.3459C68.5868 14.0282 68.2317 14.922 68.2317 16.0033C68.2317 17.0846 68.5868 17.9783 69.2851 18.6606C69.9794 19.3389 70.8213 19.6821 71.7868 19.6821C72.8163 19.6821 73.6821 19.3389 74.3564 18.6606C74.7554 18.2616 75.0028 17.703 75.0906 16.9968H71.6232V15.5045H76.5788L76.5988 15.6402C76.6347 15.8916 76.6706 16.1509 76.6706 16.3903C76.6706 17.7669 76.2557 18.8801 75.4337 19.702C74.5 20.6756 73.2791 21.1704 71.8028 21.1704ZM129.103 20.9589H127.575L122.895 13.4696L122.935 14.8182V20.9549H121.407V11.0397H123.15L123.198 11.1155L127.599 18.1699L127.559 16.8252V11.0397H129.103V20.9589ZM103.416 20.9589H101.868V12.5319H99.1823V11.0397H106.097V12.5319H103.412V20.9589H103.416ZM97.9214 20.9589H96.3773V11.0397H97.9214V20.9589ZM89.2431 20.9589H87.699V12.5319H85.0137V11.0397H91.9284V12.5319H89.2431V20.9589ZM84.0362 20.9429H78.115V11.0397H84.0362V12.5319H79.6631V15.2531H83.6092V16.7295H79.6631V19.4507H84.0362V20.9429ZM112.397 18.6407C113.087 19.331 113.925 19.6781 114.899 19.6781C115.9 19.6781 116.718 19.3389 117.401 18.6407C118.079 17.9624 118.422 17.0726 118.422 15.9993C118.422 14.926 118.079 14.0322 117.405 13.3579C116.714 12.6676 115.872 12.3205 114.903 12.3205C113.901 12.3205 113.083 12.6596 112.405 13.3579C111.727 14.0362 111.384 14.926 111.384 15.9993C111.384 17.0726 111.723 17.9664 112.397 18.6407Z" fill="white"/>
<path fill-rule="evenodd" clip-rule="evenodd" d="M109.652 34.8071C105.881 34.8071 102.825 37.668 102.825 41.6141C102.825 45.5243 105.901 48.4211 109.652 48.4211C113.422 48.4211 116.478 45.5403 116.478 41.6141C116.478 37.668 113.422 34.8071 109.652 34.8071ZM109.652 45.7238C107.589 45.7238 105.813 44.0161 105.813 41.5981C105.813 39.1443 107.593 37.4724 109.652 37.4724C111.714 37.4724 113.49 39.1443 113.49 41.5981C113.494 44.032 111.714 45.7238 109.652 45.7238ZM94.7567 34.8071C90.9862 34.8071 87.9298 37.668 87.9298 41.6141C87.9298 45.5243 91.0061 48.4211 94.7567 48.4211C98.5273 48.4211 101.584 45.5403 101.584 41.6141C101.584 37.668 98.5233 34.8071 94.7567 34.8071ZM94.7567 45.7238C92.6939 45.7238 90.9183 44.0161 90.9183 41.5981C90.9183 39.1443 92.6979 37.4724 94.7567 37.4724C96.8196 37.4724 98.5951 39.1443 98.5951 41.5981C98.5951 44.032 96.8196 45.7238 94.7567 45.7238ZM77.033 36.8859V39.7667H83.9478C83.7363 41.3827 83.2016 42.5757 82.3837 43.3936C81.3702 44.4071 79.8061 45.5084 77.049 45.5084C72.7996 45.5084 69.4759 42.0769 69.4759 37.8276C69.4759 33.5782 72.7996 30.1468 77.049 30.1468C79.3433 30.1468 81.0151 31.0525 82.256 32.2096L84.2989 30.1667C82.5752 28.5148 80.2809 27.25 77.065 27.25C71.2355 27.25 66.3438 31.9981 66.3438 37.8116C66.3438 43.641 71.2315 48.3732 77.065 48.3732C80.2131 48.3732 82.5752 47.3438 84.4425 45.4046C86.3458 43.5014 86.9483 40.8161 86.9483 38.6495C86.9483 37.9752 86.8964 37.3687 86.7887 36.854H77.029C77.033 36.85 77.033 36.8859 77.033 36.8859ZM149.528 39.1283C148.957 37.6001 147.234 34.7911 143.698 34.7911C140.195 34.7911 137.282 37.5483 137.282 41.5981C137.282 45.4206 140.163 48.4051 144.038 48.4051C147.15 48.4051 148.961 46.5019 149.707 45.3847L147.397 43.8365C146.631 44.9737 145.566 45.7198 144.054 45.7198C142.525 45.7198 141.456 45.0256 140.746 43.657L149.847 39.8864C149.847 39.8904 149.528 39.1283 149.528 39.1283ZM140.247 41.4026C140.175 38.7732 142.29 37.4365 143.802 37.4365C144.995 37.4365 145.989 38.0231 146.328 38.8769L140.247 41.4026ZM132.854 47.9981H135.842V28.0001H132.854V47.9981ZM127.946 36.3193H127.838C127.164 35.5173 125.883 34.7911 124.247 34.7911C120.852 34.7911 117.723 37.7797 117.723 41.6181C117.723 45.4405 120.836 48.3931 124.247 48.3931C125.863 48.3931 127.164 47.663 127.838 46.845H127.946V47.8226C127.946 50.4201 126.557 51.8206 124.319 51.8206C122.487 51.8206 121.35 50.5039 120.887 49.4026L118.29 50.4879C119.036 52.2834 121.027 54.5059 124.315 54.5059C127.818 54.5059 130.787 52.443 130.787 47.4116V35.1981H127.962V36.3193C127.966 36.3193 127.946 36.3193 127.946 36.3193ZM124.514 45.7238C122.452 45.7238 120.728 44.0001 120.728 41.6181C120.728 39.2161 122.452 37.4764 124.514 37.4764C126.557 37.4764 128.141 39.236 128.141 41.6181C128.161 44.0001 126.561 45.7238 124.514 45.7238ZM163.521 28.0001H156.375V47.9981H159.363V40.4251H163.525C166.833 40.4251 170.084 38.0271 170.084 34.2206C170.084 30.4141 166.845 28.0001 163.521 28.0001ZM163.609 37.632H159.359V30.7692H163.609C165.847 30.7692 167.112 32.6166 167.112 34.2006C167.112 35.7687 165.831 37.632 163.609 37.632ZM182.063 34.7712C179.892 34.7712 177.654 35.7328 176.728 37.8276L179.377 38.9288C179.948 37.8276 180.993 37.4525 182.098 37.4525C183.647 37.4525 185.211 38.3782 185.247 40.0301V40.2415C184.712 39.9383 183.539 39.4754 182.134 39.4754C179.274 39.4754 176.373 41.0395 176.373 43.9722C176.373 46.6575 178.719 48.3812 181.332 48.3812C183.339 48.3812 184.445 47.4754 185.135 46.4261H185.243V47.9742H188.123V40.3133C188.123 36.7463 185.474 34.7712 182.063 34.7712ZM181.687 45.7238C180.71 45.7238 179.341 45.245 179.341 44.0161C179.341 42.468 181.049 41.8814 182.505 41.8814C183.822 41.8814 184.445 42.1647 185.227 42.5557C185.011 44.3512 183.495 45.7079 181.687 45.7238ZM198.633 35.1981L195.202 43.8724H195.094L191.539 35.1981H188.323L193.658 47.3238L190.617 54.063H193.729L201.937 35.1981H198.633ZM171.732 47.9981H174.721V28.0001H171.732V47.9981Z" fill="white"/>
<path fill-rule="evenodd" clip-rule="evenodd" d="M17.3354 12.056C16.8726 12.5547 16.6052 13.3168 16.6052 14.3143V49.6939C16.6052 50.6914 16.8726 51.4535 17.3514 51.9323L17.475 52.04L37.2975 32.2176V31.7747L17.4591 11.9482L17.3354 12.056Z" fill="url(#paint0_linear)"/>
<path fill-rule="evenodd" clip-rule="evenodd" d="M43.8923 38.842L37.2808 32.2306V31.7677L43.8923 25.1562L44.0359 25.244L51.8564 29.6889C54.0948 30.9498 54.0948 33.0326 51.8564 34.3094L44.0359 38.7543L43.8923 38.842Z" fill="url(#paint1_linear)"/>
<path fill-rule="evenodd" clip-rule="evenodd" d="M44.0362 38.7551L37.2811 32L17.335 51.9461C18.0651 52.7282 19.2901 52.816 20.6587 52.0539L44.0362 38.7551Z" fill="url(#paint2_linear)"/>
<path fill-rule="evenodd" clip-rule="evenodd" d="M44.0362 25.2449L20.6587 11.9661C19.2901 11.1841 18.0611 11.2918 17.335 12.0738L37.2811 32L44.0362 25.2449Z" fill="url(#paint3_linear)"/>
<path opacity="0.2" fill-rule="evenodd" clip-rule="evenodd" d="M43.8933 38.6133L20.6753 51.8043C19.3785 52.5505 18.2214 52.4986 17.4753 51.8203L17.3516 51.944L17.4753 52.0517C18.2214 52.726 19.3785 52.7819 20.6753 52.0357L44.0529 38.7569L43.8933 38.6133Z" fill="black"/>
<path opacity="0.12" fill-rule="evenodd" clip-rule="evenodd" d="M51.8568 34.0788L43.8728 38.6115L44.0164 38.7551L51.8369 34.3102C52.9581 33.6718 53.5087 32.8339 53.5087 32C53.4409 32.7661 52.8703 33.4923 51.8568 34.0788Z" fill="black"/>
<path opacity="0.25" fill-rule="evenodd" clip-rule="evenodd" d="M20.6593 12.1996L51.8573 29.9233C52.8708 30.4939 53.4414 31.24 53.5292 32.0021C53.5292 31.1682 52.9785 30.3303 51.8573 29.6919L20.6593 11.9682C18.4209 10.6874 16.6055 11.7567 16.6055 14.3143V14.5457C16.6055 11.9842 18.4209 10.9348 20.6593 12.1996Z" fill="white"/>
</g>
<defs>
<linearGradient id="paint0_linear" x1="35.5195" y1="13.9326" x2="3.76732" y2="22.393" gradientUnits="userSpaceOnUse">
<stop stop-color="#00A0FF"/>
<stop offset="0.00657" stop-color="#00A1FF"/>
<stop offset="0.2601" stop-color="#00BEFF"/>
<stop offset="0.5122" stop-color="#00D2FF"/>
<stop offset="0.7604" stop-color="#00DFFF"/>
<stop offset="1" stop-color="#00E3FF"/>
</linearGradient>
<linearGradient id="paint1_linear" x1="54.7755" y1="31.9992" x2="16.0604" y2="31.9992" gradientUnits="userSpaceOnUse">
<stop stop-color="#FFE000"/>
<stop offset="0.4087" stop-color="#FFBD00"/>
<stop offset="0.7754" stop-color="#FFA500"/>
<stop offset="1" stop-color="#FF9C00"/>
</linearGradient>
<linearGradient id="paint2_linear" x1="40.363" y1="35.6757" x2="14.8726" y2="78.5783" gradientUnits="userSpaceOnUse">
<stop stop-color="#FF3A44"/>
<stop offset="1" stop-color="#C31162"/>
</linearGradient>
<linearGradient id="paint3_linear" x1="12.3123" y1="0.28609" x2="23.6846" y2="19.447" gradientUnits="userSpaceOnUse">
<stop stop-color="#32A071"/>
<stop offset="0.0685" stop-color="#2DA771"/>
<stop offset="0.4762" stop-color="#15CF74"/>
<stop offset="0.8009" stop-color="#06E775"/>
<stop offset="1" stop-color="#00F076"/>
</linearGradient>
<clipPath id="clip0">
<rect width="216.89" height="64" fill="white" transform="translate(0.640625)"/>
</clipPath>
</defs>
</svg>
