<svg width="32" height="32" viewBox="0 0 32 32" fill="none" xmlns="http://www.w3.org/2000/svg">
<path d="M23.6686 0H8.33136C3.73008 0 0 3.73008 0 8.33136V23.6686C0 28.2699 3.73008 32 8.33136 32H23.6686C28.2699 32 32 28.2699 32 23.6686V8.33136C32 3.73008 28.2699 0 23.6686 0Z" fill="url(#paint0_linear)"/>
<path d="M23.1843 4.26172C23.6101 4.52263 24.021 4.80709 24.415 5.11379H26.887V7.5848C27.1936 7.97892 27.4781 8.38981 27.7391 8.81556V4.26172H23.1843ZM16.7682 4.26172H15.9994C13.6775 4.26172 11.4078 4.95024 9.47722 6.24021C7.54664 7.53017 6.04194 9.36366 5.1534 11.5088C4.26485 13.6539 4.03237 16.0144 4.48534 18.2917C4.93832 20.5689 6.05641 22.6607 7.69823 24.3025C9.34005 25.9444 11.4319 27.0625 13.7091 27.5154C15.9864 27.9684 18.3468 27.7359 20.492 26.8474C22.6371 25.9588 24.4706 24.4541 25.7606 22.5236C27.0505 20.593 27.7391 18.3232 27.7391 16.0014V15.2326C27.5523 12.3843 26.3364 9.70108 24.3181 7.68272C22.2997 5.66436 19.6164 4.44853 16.7682 4.26172ZM15.9994 26.0369C14.0146 26.0369 12.0743 25.4483 10.424 24.3456C8.77366 23.2429 7.48738 21.6755 6.72782 19.8418C5.96826 18.008 5.76952 15.9902 6.15674 14.0435C6.54396 12.0968 7.49975 10.3087 8.90324 8.90519C10.3067 7.5017 12.0949 6.54591 14.0416 6.15869C15.9883 5.77147 18.0061 5.9702 19.8398 6.72977C21.6736 7.48933 23.2409 8.77561 24.3436 10.4259C25.4463 12.0763 26.0349 14.0165 26.0349 16.0014C26.0349 18.6629 24.9776 21.2155 23.0956 23.0975C21.2136 24.9796 18.661 26.0369 15.9994 26.0369Z" fill="white"/>
<defs>
<linearGradient id="paint0_linear" x1="16" y1="32" x2="16" y2="0" gradientUnits="userSpaceOnUse">
<stop stop-color="#07243C"/>
<stop offset="1" stop-color="#0F4C81"/>
</linearGradient>
</defs>
</svg>
