<svg width="344" height="330" viewBox="0 0 344 330" fill="none" xmlns="http://www.w3.org/2000/svg">
<g clip-path="url(#clip0)">
<path d="M500.254 207.092L460.363 225.978L495.668 199.57C489.93 190.61 483.484 182.124 476.391 174.194L303.388 217.21L459.659 157.578C452.518 151.275 444.934 145.492 436.966 140.275L173.35 182.751C145.36 217.764 130.103 261.256 130.081 306.087H526.895C526.879 271.318 517.689 237.17 500.254 207.092Z" fill="#F0F2F4"/>
<path d="M415.391 128.013C388.326 114.807 358.601 107.965 328.488 108.007C267.201 108.007 212.406 135.807 176.012 179.487C238.334 165.827 346.842 142.18 415.391 128.013Z" fill="#F0F2F4"/>
<path d="M444.874 301.653C439.398 300.725 434.131 299.928 429.074 299.262L431.073 295.384C430.399 295.15 427.437 297.371 427.437 297.371L430.061 286.115C426.67 286.524 424.946 298.017 424.946 298.017L421.158 294.131L422.992 298.5C409.689 296.891 396.304 296.048 382.904 295.976L384.615 292.657C383.941 292.423 380.979 294.643 380.979 294.643L383.603 283.388C380.212 283.797 378.488 295.289 378.488 295.289L374.7 291.404L376.643 296.031C368.939 296.158 361.247 296.681 353.597 297.597C355.328 292.427 361.208 287.51 361.208 287.51C356.717 288.845 354.362 291.084 353.132 293.171C353.022 282.503 354.795 271.9 358.369 261.849C358.369 261.849 349.089 282.052 350.273 295.613L350.415 298.021C342.547 299.148 338.591 300.321 338.591 300.321L444.874 301.653Z" fill="#212121"/>
<path d="M305.29 304.442C299.814 303.514 294.547 302.716 289.49 302.05L291.489 298.173C290.815 297.939 287.853 300.159 287.853 300.159L290.477 288.904C287.086 289.313 285.362 300.805 285.362 300.805L281.574 296.92L283.408 301.288C270.105 299.679 256.72 298.837 243.32 298.764L245.031 295.446C244.357 295.211 241.395 297.432 241.395 297.432L244.019 286.176C240.628 286.585 238.904 298.078 238.904 298.078L235.116 294.192L237.059 298.819C229.355 298.946 221.663 299.469 214.013 300.385C215.744 295.215 221.624 290.298 221.624 290.298C217.134 291.634 214.778 293.872 213.548 295.959C213.438 285.292 215.211 274.689 218.785 264.638C218.785 264.638 209.505 284.84 210.689 298.401L210.831 300.809C202.963 301.936 199.007 303.109 199.007 303.109L305.29 304.442Z" fill="#212121"/>
<path d="M454.628 305.884C454.628 311.899 352.856 330 227.314 330C101.772 330 0 311.899 0 305.884C0 299.869 101.772 308.218 227.314 308.218C352.856 308.218 454.628 299.869 454.628 305.884Z" fill="#212121"/>
<path opacity="0.1" d="M454.628 305.884C454.628 311.899 352.856 330 227.314 330C101.772 330 0 311.899 0 305.884C0 299.869 101.772 308.218 227.314 308.218C352.856 308.218 454.628 299.869 454.628 305.884Z" fill="black"/>
<path d="M227.314 316.853C352.856 316.853 454.628 311.849 454.628 305.677C454.628 299.505 352.856 294.502 227.314 294.502C101.772 294.502 0 299.505 0 305.677C0 311.849 101.772 316.853 227.314 316.853Z" fill="#212121"/>
<path opacity="0.1" d="M334.267 308.877C394.007 308.877 442.436 306.022 442.436 302.5C442.436 298.978 394.007 296.123 334.267 296.123C274.527 296.123 226.098 298.978 226.098 302.5C226.098 306.022 274.527 308.877 334.267 308.877Z" fill="black"/>
<path d="M335.65 298.699H367.154L356.689 281.779L349.317 281.164L353.637 276.843L327.31 234.278V227.326H323.77L302.292 175.882L305.999 170.784L302.292 168.003H300.235L288.211 58.8591H290.015L292.795 50.9804V35.6862H289.088V28.2709H284.455V13.9037H283.529V0H282.602V13.9037H281.212V28.2709H277.043V35.6862H272.873V50.9803L276.116 58.8591H277.99L268.973 168.003H268.935L262.912 169.857L266.155 175.419L266.387 175.882H266.155L248.125 227.326H243.454L243.917 234.278L205 298.699H236.968V291.283H235.114C235.114 291.283 241.137 250.499 284.687 246.791C329.164 245.864 337.503 290.356 337.503 290.356H335.65V298.699ZM357.348 283.636L358.583 287.962L353.023 284.254L357.348 283.636ZM350.553 284.872L357.348 289.198L349.935 288.58L350.553 284.872ZM342.522 289.198L346.846 284.254L348.699 289.198H342.522ZM335.286 261.854L336.874 265.561L329.991 261.854H335.286ZM333.234 259.47L333.764 256.292L339.588 260L333.234 259.47ZM343.14 276.221L344.993 280.546L336.962 276.221H343.14ZM334.756 272.977L338.463 268.739L340.051 272.977H334.756ZM341.11 272.447L341.64 269.269L347.464 272.977L341.11 272.447ZM347.464 281.164L344.993 276.221H351.788L347.464 281.164ZM348.523 271.917L343.757 268.739L347.464 268.21L348.523 271.917ZM346.934 266.621L340.581 266.091L344.287 262.383L346.934 266.621ZM338.992 266.091L336.874 261.854H342.699L338.992 266.091ZM340.647 258.94L335.881 255.762L339.588 255.233L340.647 258.94ZM339.058 253.644L332.705 253.114L336.411 249.406L339.058 253.644ZM331.116 253.114L328.998 248.877H334.822L331.116 253.114ZM323.968 246.03L324.498 242.852L330.322 246.56L323.968 246.03ZM328.998 252.584L322.115 248.877H327.41L328.998 252.584ZM331.381 245.5L326.615 242.322L330.322 241.793L331.381 245.5ZM329.792 240.204L323.439 239.674L327.145 235.966L329.792 240.204ZM325.556 235.437L321.85 239.674L319.732 235.437H325.556ZM319.732 239.144L312.849 235.437H318.144L319.732 239.144ZM267.701 227.326L277.274 184.688H292.1L304.771 227.326H267.701ZM300.274 239.608L293.39 235.9H298.685L300.274 239.608ZM288.096 238.681L286.242 240.799L285.183 238.681H288.096ZM285.183 240.535L281.742 238.681H284.389L285.183 240.535ZM262.217 214.117L269.167 209.946L267.313 217.825L262.217 214.117ZM265.924 218.752H254.804L260.827 215.044L265.924 218.752ZM282.976 70.8734L281.016 72.8342L279.056 70.8734H282.976ZM279.056 70.0178L281.016 68.057L282.976 70.0178H279.056ZM282.976 75.5793H279.056L281.016 73.6185L282.976 75.5793ZM281.408 73.2263L283.368 71.2656V75.1871L281.408 73.2263ZM283.297 77.3975V82.032L280.981 79.7147L283.297 77.3975ZM281.408 67.6649L283.368 65.7041V69.6256L281.408 67.6649ZM281.907 62.5668L283.452 61.0219V64.1117L281.907 62.5668ZM283.143 64.4206H280.054L281.598 62.8758L283.143 64.4206ZM281.598 62.2578L280.054 60.713H283.143L281.598 62.2578ZM281.29 62.5668L279.745 64.1117V61.0219L281.29 62.5668ZM282.976 65.3119L281.016 67.2727L279.056 65.3119H282.976ZM280.624 67.6649L278.664 69.6256V65.7041L280.624 67.6649ZM280.624 73.2263L278.664 75.1871V71.2655L280.624 73.2263ZM282.834 76.934L280.517 79.2513L278.201 76.934H282.834ZM282.834 82.4955H278.201L280.517 80.1782L282.834 82.4955ZM283.297 84.3493V88.9839L280.981 86.6666L283.297 84.3493ZM282.834 83.8859L280.517 86.2032L278.201 83.8859H282.834ZM282.834 89.4474H278.201L280.517 87.1301L282.834 89.4474ZM283.19 91.6933V97.3974L280.339 94.5454L283.19 91.6933ZM282.62 97.9678H276.918L279.769 95.1158L282.62 97.9678ZM283.19 100.036V105.74L280.339 102.888L283.19 100.036ZM282.62 99.4652L279.769 102.317L276.918 99.4652H282.62ZM282.62 106.31H276.918L279.769 103.458L282.62 106.31ZM283.066 108.681V115.633L279.591 112.157L283.066 108.681ZM282.371 116.328H275.421L278.896 112.852L282.371 116.328ZM283.066 118.877V125.829L279.591 122.353L283.066 118.877ZM282.371 118.182L278.896 121.658L275.421 118.182H282.371ZM282.371 126.524H275.421L278.896 123.048L282.371 126.524ZM282.941 129.376V137.576L278.842 133.476L282.941 129.376ZM282.121 138.396H273.924L278.023 134.296L282.121 138.396ZM282.834 142.745V152.014L278.201 147.38L282.834 142.745ZM281.907 152.941H272.641L277.274 148.306L281.907 152.941ZM282.763 156.756V166.738L277.773 161.747L282.763 156.756ZM281.765 155.757L276.775 160.749L271.786 155.757H281.765ZM281.765 167.736H271.786L276.775 162.745L281.765 167.736ZM270.557 196.97H261.291L266.85 193.725L270.557 196.97ZM267.777 192.798L273.8 189.091L272.41 197.433L267.777 192.798ZM271.483 199.287L270.093 207.166L266.387 202.994L271.483 199.287ZM269.167 198.36L264.534 202.068L261.291 198.36H269.167ZM268.703 207.629H258.974L264.07 203.921L268.703 207.629ZM271.88 235.437L269.762 239.674L266.056 235.437H271.88ZM273.469 235.437H278.764L271.88 239.144L273.469 235.437ZM308.341 213.056L303.508 217.101L301.124 209.367L308.341 213.056ZM300.011 206.655L298.089 198.889L303.425 202.242L300.011 206.655ZM305.799 203.009L311.135 206.362L301.429 207.023L305.799 203.009ZM305.211 201.191L300.337 197.807L308.195 197.272L305.211 201.191ZM298.856 196.514L302.333 193.026L308.1 195.884L298.856 196.514ZM297.038 197.103L295.085 188.874L301.346 192.164L297.038 197.103ZM285.756 167.736L290.746 162.745L295.735 167.736H285.756ZM284.758 166.738V156.756L289.748 161.747L284.758 166.738ZM285.756 155.757H295.735L290.746 160.749L285.756 155.757ZM285.614 152.941L290.247 148.306L294.88 152.941L285.614 152.941ZM284.687 152.014V142.745L289.32 147.38L284.687 152.014ZM284.58 137.576V129.376L288.679 133.476L284.58 137.576ZM289.498 134.296L293.597 138.396H285.4L289.498 134.296ZM286.113 73.2263L284.153 75.1871V71.2655L286.113 73.2263ZM284.545 70.8734H288.465L286.505 72.8342L284.545 70.8734ZM284.224 84.3493L286.54 86.6666L284.224 88.9839V84.3493ZM284.687 83.8858H289.32L287.004 86.2031L284.687 83.8858ZM284.331 100.036L287.182 102.888L284.331 105.74V100.036ZM284.901 99.4651H290.603L287.752 102.317L284.901 99.4651ZM284.455 118.877L287.93 122.353L284.455 125.829V118.877ZM285.15 118.182H292.1L288.625 121.658L285.15 118.182ZM288.625 123.048L292.1 126.524H285.15L288.625 123.048ZM289.32 122.353L292.795 118.877V125.829L289.32 122.353ZM285.15 116.328L288.625 112.852L292.1 116.328H285.15ZM284.455 115.633V108.681L287.93 112.157L284.455 115.633ZM287.752 103.458L290.603 106.31H284.901L287.752 103.458ZM288.322 102.888L291.173 100.036V105.74L288.322 102.888ZM284.901 97.9678L287.752 95.1158L290.603 97.9678H284.901ZM284.331 97.3974V91.6933L287.182 94.5454L284.331 97.3974ZM287.004 87.1301L289.32 89.4474H284.687L287.004 87.1301ZM287.467 86.6666L289.783 84.3493V88.9839L287.467 86.6666ZM284.687 82.4955L287.004 80.1782L289.32 82.4955H284.687ZM284.224 82.032V77.3974L286.54 79.7147L284.224 82.032ZM286.505 73.6185L288.465 75.5793H284.545L286.505 73.6185ZM286.897 73.2263L288.857 71.2656V75.1871L286.897 73.2263ZM284.545 70.0178L286.505 68.057L288.465 70.0178H284.545ZM284.153 69.6256V65.7041L286.113 67.6648L284.153 69.6256ZM286.231 62.5668L287.776 61.0219V64.1117L286.231 62.5668ZM287.467 64.4206H284.378L285.923 62.8758L287.467 64.4206ZM285.923 62.2578L284.378 60.713H287.467L285.923 62.2578ZM285.614 62.5668L284.069 64.1117V61.0219L285.614 62.5668ZM306.098 235.9L302.392 240.137L300.274 235.9H306.098ZM304.957 217.931L309.79 213.886L316.051 217.176L304.957 217.931ZM316.881 215.726L310.589 211.974L314.098 208.947L316.881 215.726ZM309.139 211.143L303.372 208.284L312.617 207.655L309.139 211.143ZM311.965 204.912L306.661 202.021L309.644 198.102L311.965 204.912ZM308.468 194.466L303.163 191.575L306.179 188.118L308.468 194.466ZM305.653 187.225L302.207 191.176L295.947 187.886L305.653 187.225ZM296.733 166.738L291.743 161.747L296.733 156.756V166.738ZM295.806 152.014L291.173 147.38L295.806 142.745V152.014ZM290.247 146.453L285.614 141.818H294.88L290.247 146.453ZM294.416 137.576L290.318 133.476L294.416 129.376V137.576ZM289.498 132.656L285.4 128.556H293.597L289.498 132.656ZM292.795 115.633L289.32 112.157L292.795 108.681V115.633ZM288.625 111.462L285.15 107.986H292.1L288.625 111.462ZM291.173 97.3974L288.322 94.5454L291.173 91.6933V97.3974ZM287.752 93.975L284.901 91.1229H290.603L287.752 93.975ZM289.783 82.032L287.467 79.7147L289.783 77.3975V82.032ZM287.004 79.2513L284.687 76.934H289.32L287.004 79.2513ZM288.857 69.6256L286.897 67.6648L288.857 65.7041V69.6256ZM286.505 67.2727L284.545 65.3119H288.465L286.505 67.2727ZM277.738 77.3974L280.054 79.7147L277.738 82.032V77.3974ZM277.738 84.3493L280.054 86.6666L277.738 88.9839V84.3493ZM282.62 91.1229L279.769 93.975L276.918 91.1229H282.62ZM276.348 91.6933L279.199 94.5454L276.348 97.3974V91.6933ZM276.348 100.036L279.199 102.888L276.348 105.74V100.036ZM282.371 107.986L278.896 111.462L275.421 107.986H282.371ZM274.726 108.681L278.201 112.157L274.726 115.633V108.681ZM274.726 118.877L278.201 122.353L274.726 125.829V118.877ZM282.121 128.556L278.023 132.656L273.924 128.556H282.121ZM273.105 129.376L277.203 133.476L273.105 137.576V129.376ZM281.907 141.818L277.274 146.453L272.641 141.818H281.907ZM271.715 142.745L276.348 147.38L271.715 152.014V142.745ZM270.788 156.756L275.778 161.747L270.788 166.738V156.756ZM272.873 188.164L266.85 191.871L263.144 188.164L272.873 188.164ZM262.68 189.091L265.924 192.335L260.827 195.579L262.68 189.091ZM259.901 199.287L263.144 202.994L258.048 206.239L259.901 199.287ZM266.85 209.019L261.291 212.264L257.584 209.019H266.85ZM256.194 210.41L259.901 213.191L253.878 217.362L256.194 210.41ZM258.842 235.437L251.958 239.144L253.547 235.437H258.842ZM251.958 235.437L249.841 239.674L246.134 235.437H251.958ZM244.546 235.966L248.252 239.674L241.898 240.204L244.546 235.966ZM250.502 248.877L243.619 252.584L245.208 248.877H250.502ZM241.369 246.56L247.193 242.852L247.723 246.03L241.369 246.56ZM241.369 241.793L245.075 242.322L240.31 245.5L241.369 241.793ZM243.619 248.877L241.501 253.114L237.795 248.877H243.619ZM236.206 249.406L239.913 253.114L233.559 253.644L236.206 249.406ZM235.655 276.221L227.624 280.546L229.478 276.221H235.655ZM225.153 272.977L230.978 269.269L231.507 272.447L225.153 272.977ZM232.566 272.977L234.155 268.739L237.861 272.977H232.566ZM242.626 261.854L235.743 265.561L237.332 261.854H242.626ZM233.029 260L238.854 256.292L239.383 259.47L233.029 260ZM233.029 255.233L236.736 255.762L231.971 258.94L233.029 255.233ZM235.743 261.854L233.625 266.091L229.919 261.854H235.743ZM228.33 262.383L232.037 266.091L225.683 266.621L228.33 262.383ZM225.153 268.21L228.86 268.739L224.094 271.917L225.153 268.21ZM227.624 276.221L225.153 281.164L220.829 276.221H227.624ZM215.27 283.636L219.594 284.254L214.034 287.962L215.27 283.636ZM215.27 289.198L222.065 284.872L222.683 288.58L215.27 289.198ZM215.887 281.782L218.976 276.839L223.3 281.164L215.887 281.782ZM223.918 289.198L225.771 284.254L230.095 289.198H223.918ZM232.566 288.58L228.242 283.636L235.655 283.018L232.566 288.58ZM236.273 281.164H229.478L238.126 276.839L236.273 281.164ZM239.979 272.447L236.273 268.21L242.626 267.68L239.979 272.447ZM243.156 266.091H237.332L244.744 262.383L243.156 266.091ZM240.442 260L242.031 255.762L245.737 260H240.442ZM247.855 259.47L244.149 255.233L250.502 254.703L247.855 259.47ZM251.032 253.114H245.208L252.62 249.406L251.032 253.114ZM248.782 246.56L250.37 242.322L254.076 246.56H248.782ZM256.194 246.03L252.488 241.793L258.842 241.263L256.194 246.03ZM253.547 239.674L260.96 235.966L259.371 239.674H253.547ZM261.291 241.793L264.997 242.322L260.232 245.5L261.291 241.793ZM261.291 246.56L267.115 242.852L267.644 246.03L261.291 246.56ZM261.82 240.204L264.467 235.966L268.174 239.674L261.82 240.204ZM268.703 246.56L270.292 242.322L273.998 246.56H268.703ZM276.116 246.03L272.41 241.793L278.764 241.263L276.116 246.03ZM273.469 239.674L280.881 235.966L279.293 239.674H273.469ZM280.683 238.946L284.389 240.799H281.477L280.683 238.946ZM281.742 241.594L284.919 241.859L283.066 243.977L281.742 241.594ZM284.125 244.242L285.978 242.124L286.772 244.242H284.125ZM288.89 238.946L290.214 241.064L287.037 240.799L288.89 238.946ZM287.301 243.977L287.566 242.388L290.478 244.242L287.301 243.977ZM288.625 242.124L290.478 241.859L291.008 243.713L288.625 242.124ZM291.273 236.43L298.685 240.137H292.861L291.273 236.43ZM293.39 241.726L299.744 242.256L296.038 246.493L293.39 241.726ZM298.156 247.023L301.862 242.786L303.451 247.023H298.156ZM307.687 236.43L310.334 240.667L303.98 240.137L307.687 236.43ZM304.51 246.493L305.039 243.315L310.863 247.023L304.51 246.493ZM307.157 242.786L310.863 242.256L311.922 245.964L307.157 242.786ZM310.731 235.966L318.144 239.674H312.319L310.731 235.966ZM312.849 241.263L319.203 241.793L315.496 246.03L312.849 241.263ZM321.321 242.322L322.909 246.56H317.614L321.321 242.322ZM321.585 253.114L319.997 249.407L327.41 253.114H321.585ZM322.115 254.703L328.469 255.233L324.762 259.47L322.115 254.703ZM330.587 255.763L332.175 260H326.88L330.587 255.763ZM327.873 262.383L335.286 266.091H329.461L327.873 262.383ZM329.991 267.68L336.345 268.21L332.638 272.447L329.991 267.68ZM334.492 276.839L343.14 281.164H336.345L334.492 276.839ZM336.962 283.018L344.375 283.636L340.051 288.58L336.962 283.018Z" fill="#212121"/>
<path opacity="0.1" d="M280.749 37.54H274.727V40.3208H280.749V37.54Z" fill="black"/>
<path opacity="0.1" d="M290.479 37.54H284.456V40.3208H290.479V37.54Z" fill="black"/>
<path d="M209.615 261.431C210.653 262.23 215.113 262.666 215.113 262.666C215.113 262.666 213.549 258.468 212.508 257.667C212.265 257.444 211.978 257.273 211.665 257.167C211.353 257.06 211.021 257.02 210.692 257.049C210.363 257.078 210.044 257.174 209.755 257.333C209.465 257.492 209.212 257.71 209.011 257.972C208.81 258.234 208.666 258.535 208.588 258.856C208.51 259.177 208.499 259.511 208.557 259.836C208.615 260.161 208.74 260.471 208.924 260.745C209.108 261.019 209.347 261.252 209.626 261.429L209.615 261.431Z" fill="#6C63FF"/>
<path opacity="0.1" d="M209.615 261.431C210.653 262.23 215.113 262.666 215.113 262.666C215.113 262.666 213.549 258.468 212.508 257.667C212.265 257.444 211.978 257.273 211.665 257.167C211.353 257.06 211.021 257.02 210.692 257.049C210.363 257.078 210.044 257.174 209.755 257.333C209.465 257.492 209.212 257.71 209.011 257.972C208.81 258.234 208.666 258.535 208.588 258.856C208.51 259.177 208.499 259.511 208.557 259.836C208.615 260.161 208.74 260.471 208.924 260.745C209.108 261.019 209.347 261.252 209.626 261.429L209.615 261.431Z" fill="#6C63FF"/>
<path d="M235.736 266.184C234.556 266.753 230.112 266.26 230.112 266.26C230.112 266.26 232.508 262.473 233.689 261.905C233.972 261.742 234.286 261.639 234.612 261.603C234.937 261.567 235.266 261.598 235.578 261.695C235.891 261.792 236.18 261.952 236.428 262.166C236.675 262.379 236.876 262.642 237.018 262.937C237.16 263.231 237.239 263.552 237.252 263.879C237.264 264.206 237.208 264.532 237.089 264.837C236.969 265.142 236.788 265.418 236.557 265.65C236.326 265.881 236.049 266.063 235.745 266.182L235.736 266.184Z" fill="#6C63FF"/>
<path d="M233.317 275.509C232.25 276.268 227.776 276.536 227.776 276.536C227.776 276.536 229.498 272.399 230.568 271.638C231.081 271.339 231.688 271.243 232.269 271.369C232.85 271.496 233.362 271.834 233.706 272.32C234.049 272.805 234.199 273.401 234.125 273.991C234.051 274.58 233.759 275.121 233.307 275.507L233.317 275.509Z" fill="#6C63FF"/>
<path d="M223.64 267.781C224.799 268.394 229.258 268.069 229.258 268.069C229.258 268.069 227.006 264.195 225.847 263.582C225.297 263.341 224.676 263.318 224.109 263.516C223.542 263.714 223.071 264.12 222.791 264.651C222.51 265.182 222.441 265.8 222.597 266.38C222.753 266.96 223.122 267.46 223.631 267.779L223.64 267.781Z" fill="#6C63FF"/>
<path d="M222.481 278.766C223.519 279.564 227.979 280.001 227.979 280.001C227.979 280.001 226.415 275.802 225.374 275.002C225.131 274.778 224.844 274.608 224.532 274.501C224.219 274.395 223.888 274.355 223.559 274.383C223.23 274.412 222.91 274.509 222.621 274.668C222.331 274.827 222.078 275.044 221.877 275.306C221.676 275.569 221.532 275.87 221.454 276.191C221.376 276.512 221.365 276.845 221.423 277.171C221.481 277.496 221.606 277.805 221.79 278.08C221.974 278.354 222.213 278.587 222.492 278.764L222.481 278.766Z" fill="#6C63FF"/>
<path opacity="0.1" d="M235.736 266.184C234.556 266.753 230.112 266.26 230.112 266.26C230.112 266.26 232.508 262.473 233.689 261.905C233.972 261.742 234.286 261.639 234.612 261.603C234.937 261.567 235.266 261.598 235.578 261.695C235.891 261.792 236.18 261.952 236.428 262.166C236.675 262.379 236.876 262.642 237.018 262.937C237.16 263.231 237.239 263.552 237.252 263.879C237.264 264.206 237.208 264.532 237.089 264.837C236.969 265.142 236.788 265.418 236.557 265.65C236.326 265.881 236.049 266.063 235.745 266.182L235.736 266.184Z" fill="#6C63FF"/>
<path opacity="0.1" d="M233.317 275.509C232.25 276.268 227.776 276.536 227.776 276.536C227.776 276.536 229.498 272.399 230.568 271.638C231.081 271.339 231.688 271.243 232.269 271.369C232.85 271.496 233.362 271.834 233.706 272.32C234.049 272.805 234.199 273.401 234.125 273.991C234.051 274.58 233.759 275.121 233.307 275.507L233.317 275.509Z" fill="#6C63FF"/>
<path opacity="0.1" d="M223.64 267.781C224.799 268.394 229.258 268.069 229.258 268.069C229.258 268.069 227.006 264.195 225.847 263.582C225.297 263.341 224.676 263.318 224.109 263.516C223.542 263.714 223.071 264.12 222.791 264.651C222.51 265.182 222.441 265.8 222.597 266.38C222.753 266.96 223.122 267.46 223.631 267.779L223.64 267.781Z" fill="#6C63FF"/>
<path opacity="0.1" d="M222.481 278.766C223.519 279.564 227.979 280.001 227.979 280.001C227.979 280.001 226.415 275.802 225.374 275.002C225.131 274.778 224.844 274.608 224.532 274.501C224.219 274.395 223.888 274.355 223.559 274.383C223.23 274.412 222.91 274.509 222.621 274.668C222.331 274.827 222.078 275.044 221.877 275.306C221.676 275.569 221.532 275.87 221.454 276.191C221.376 276.512 221.365 276.845 221.423 277.171C221.481 277.496 221.606 277.805 221.79 278.08C221.974 278.354 222.213 278.587 222.492 278.764L222.481 278.766Z" fill="#6C63FF"/>
<path d="M237.204 265.972L173.012 264.762L172.524 290.666L236.716 291.876L237.204 265.972Z" fill="#6F7D95"/>
<path d="M156.919 252.323L165.652 272.927L183.728 272.174L184.615 263.796L185.347 253.954L159.851 251.647L156.919 252.323Z" fill="#4B5C7A"/>
<path d="M156.92 252.321C156.92 252.321 160.441 249.104 164.655 248.452C168.87 247.8 182.879 249.525 182.879 249.525L184.82 253.023L184.413 254.664L156.92 252.321Z" fill="#0F4C81"/>
<path d="M191.097 263.461L126.357 262.241L126 281.213L190.74 282.434L191.097 263.461Z" fill="#4B5C7A"/>
<path d="M174.926 276.068C176.744 270.38 173.405 266.556 173.405 266.556L167.827 262.505C167.823 262.518 167.816 262.531 167.809 262.543C167.091 261.668 166.584 260.638 166.328 259.534C166.312 259.464 166.299 259.393 166.283 259.317C166.807 258.942 167.268 258.487 167.649 257.969C168.581 257.421 169.009 256.521 169.181 255.618C169.79 254.749 170.28 253.803 170.638 252.804C170.697 252.643 170.748 252.478 170.79 252.312C170.905 252.002 170.959 251.673 170.951 251.343C170.912 250.975 170.796 250.619 170.612 250.298C169.693 248.55 168.003 247.313 166.286 246.298C165.686 245.922 165.045 245.616 164.376 245.384C163.562 245.133 162.7 245.075 161.86 245.216C161.02 245.358 160.224 245.693 159.537 246.197C159.202 246.429 158.927 246.736 158.735 247.095C158.66 247.258 158.604 247.429 158.565 247.605C158.476 247.904 158.402 248.207 158.343 248.513C158.293 248.66 158.222 248.797 158.132 248.923C157.894 249.243 157.496 249.48 157.437 249.875C157.435 249.898 157.435 249.921 157.436 249.944C157.393 250.018 157.363 250.1 157.349 250.184C157.33 250.359 157.364 250.536 157.448 250.69C157.46 250.717 157.475 250.741 157.489 250.765C157.199 251.169 156.959 251.608 156.777 252.071C156.697 252.113 156.62 252.159 156.545 252.21L156.482 252.254L156.479 252.384L156.442 252.411L156.322 254.505L156.365 254.541C156.41 255.519 156.687 256.474 157.172 257.325C157.657 258.176 158.337 258.9 159.156 259.438C159.181 259.572 159.205 259.709 159.226 259.852C159.342 260.609 159.38 261.376 159.339 262.141C159.331 262.075 159.333 262.008 159.342 261.942C157.792 261.206 154.346 263.096 152.957 263.936C152.747 264.03 152.55 264.153 152.372 264.299L152.348 264.316C151.389 265.064 149.483 267.157 147.899 272.599C145.701 280.192 145.883 281.927 144.353 283.668C142.824 285.409 141.104 297.845 141.104 297.845L144.1 298.713L144.508 297.483C148.027 300.816 158.023 302.578 158.023 302.578L158.348 301.63C159.875 302.212 162.462 301.42 162.462 301.42C166.245 300.163 167.716 296.819 170.526 292.426C173.336 288.033 174.926 276.068 174.926 276.068ZM159.336 298.78L166.682 277.375C167.249 280.731 164.373 285.945 164.062 289.383C163.867 291.595 161.207 295.948 159.336 298.78Z" fill="url(#paint0_linear)"/>
<path d="M168.879 253.286C168.879 253.286 170.001 257.913 166.399 258.648C162.797 259.383 165.214 256.555 165.214 256.555L168.737 253.248L168.879 253.286Z" fill="#472727"/>
<path d="M153.676 263.977C153.676 263.977 150.988 265.009 148.89 272.256C146.792 279.503 146.955 281.151 145.511 282.818C144.068 284.485 142.397 296.34 142.397 296.34L145.207 297.154L147.815 289.259L154.971 268.407L153.676 263.977Z" fill="#DDE0E4"/>
<path opacity="0.05" d="M153.676 263.977C153.676 263.977 150.988 265.009 148.89 272.256C146.792 279.503 146.955 281.151 145.511 282.818C144.068 284.485 142.397 296.34 142.397 296.34L145.207 297.154L147.815 289.259L154.971 268.407L153.676 263.977Z" fill="black"/>
<path d="M168.506 263.434C168.506 263.434 157.23 268.903 158.934 265.229C159.777 263.415 159.782 261.517 159.574 260.049C159.456 259.184 159.236 258.336 158.919 257.522C158.919 257.522 166.625 251.657 166.088 256.554C165.961 257.608 166.014 258.675 166.244 259.711C166.853 262.326 168.506 263.434 168.506 263.434Z" fill="#FFE2C9"/>
<path opacity="0.1" d="M166.245 259.72C165.516 260.283 164.663 260.666 163.758 260.837C162.853 261.008 161.92 260.962 161.035 260.703C160.518 260.554 160.024 260.334 159.566 260.05C159.448 259.185 159.228 258.337 158.911 257.524C158.911 257.524 166.617 251.659 166.079 256.556C165.955 257.612 166.011 258.682 166.245 259.72Z" fill="black"/>
<path d="M168.372 256.423C169.271 253.32 167.484 250.076 164.382 249.177C161.28 248.279 158.037 250.066 157.139 253.169C156.241 256.272 158.027 259.516 161.129 260.414C164.231 261.313 167.474 259.526 168.372 256.423Z" fill="#FFE2C9"/>
<path opacity="0.1" d="M159.873 251.889C159.711 251.984 159.531 252.045 159.344 252.069C159.158 252.093 158.969 252.079 158.788 252.027C158.607 251.976 158.438 251.889 158.292 251.771C158.146 251.653 158.025 251.506 157.937 251.34C157.859 251.192 157.828 251.024 157.846 250.858C157.903 250.483 158.279 250.256 158.512 249.949C158.874 249.452 158.82 248.76 159.086 248.205C159.268 247.866 159.527 247.575 159.842 247.354C160.483 246.872 161.229 246.548 162.019 246.409C162.809 246.271 163.621 246.321 164.388 246.557C165.015 246.775 165.615 247.064 166.175 247.419C167.784 248.378 169.364 249.543 170.213 251.21C170.386 251.516 170.493 251.855 170.528 252.205C170.53 252.582 170.457 252.956 170.312 253.304C169.969 254.267 169.499 255.18 168.914 256.019C168.728 255.779 168.493 255.582 168.224 255.441C168.088 255.374 167.935 255.351 167.785 255.376C167.635 255.401 167.498 255.472 167.391 255.579C167.198 255.816 167.075 256.272 166.791 256.159C166.607 256.086 166.614 255.829 166.626 255.63C166.681 254.765 166.225 253.941 165.603 253.345C164.98 252.749 164.203 252.35 163.436 251.956C162.885 251.673 162.156 251.034 161.548 250.913C160.794 250.758 160.422 251.564 159.873 251.889Z" fill="black"/>
<path d="M159.959 251.595C159.797 251.69 159.617 251.751 159.43 251.775C159.244 251.798 159.055 251.784 158.874 251.733C158.693 251.682 158.524 251.594 158.378 251.476C158.232 251.358 158.111 251.212 158.023 251.045C157.945 250.897 157.914 250.73 157.932 250.563C157.989 250.188 158.365 249.962 158.598 249.654C158.96 249.157 158.906 248.466 159.172 247.911C159.354 247.572 159.613 247.28 159.927 247.059C160.569 246.577 161.315 246.254 162.105 246.115C162.895 245.976 163.707 246.027 164.474 246.262C165.101 246.48 165.701 246.769 166.261 247.125C167.87 248.083 169.45 249.249 170.299 250.916C170.472 251.222 170.579 251.561 170.614 251.91C170.616 252.288 170.543 252.661 170.398 253.01C170.055 253.973 169.585 254.886 169 255.725C168.814 255.485 168.579 255.288 168.31 255.147C168.174 255.08 168.021 255.057 167.871 255.081C167.722 255.106 167.584 255.177 167.477 255.285C167.284 255.521 167.161 255.978 166.878 255.864C166.693 255.791 166.7 255.534 166.712 255.335C166.767 254.471 166.311 253.647 165.689 253.051C165.066 252.455 164.289 252.055 163.522 251.662C162.971 251.379 162.242 250.74 161.634 250.618C160.88 250.461 160.508 251.27 159.959 251.595Z" fill="#472727"/>
<path d="M162.785 264.101C162.785 264.101 167.427 263.282 167.642 262.544L172.86 266.379C172.86 266.379 175.976 270.006 174.245 275.434C174.245 275.434 172.704 286.848 170.047 291.045C167.39 295.242 165.805 300.714 162.25 301.933C162.25 301.933 158.897 299.68 157.776 299.685C157.776 299.685 163.682 291.46 163.99 288.183C164.299 284.907 167.02 279.926 166.505 276.731L158.266 300.787C158.266 300.787 145.762 298.603 144.569 294.416C144.569 294.416 145.681 292.812 145.511 291.162C145.341 289.513 150.506 277.224 150.506 277.224L153.11 264.356C153.11 264.356 157.842 261.18 159.685 262.063C159.677 262.05 159.309 263.655 162.785 264.101Z" fill="#DDE0E4"/>
<g opacity="0.1">
<path opacity="0.1" d="M164.66 254.095C163.548 252.516 161.346 253.753 160.985 253.969L160.426 253.903C159.948 253.361 158.476 251.919 157.049 252.932L156.988 252.977L156.866 254.971L156.925 255.02C157.326 255.342 157.783 255.586 158.272 255.742C158.582 255.84 158.911 255.862 159.231 255.808C159.468 255.758 159.692 255.656 159.886 255.51C160.079 255.364 160.239 255.178 160.352 254.963L160.644 254.988L160.861 254.951C160.9 255.182 160.988 255.402 161.118 255.596C161.249 255.791 161.419 255.955 161.618 256.078C162.574 256.643 163.997 256.123 164.055 256.113L164.129 256.086L164.684 254.165L164.66 254.095ZM163.894 255.837C163.604 255.929 162.513 256.229 161.792 255.798C161.613 255.68 161.463 255.524 161.354 255.339C161.245 255.155 161.18 254.948 161.163 254.734L161.14 254.576L160.665 254.664L160.19 254.638L160.143 254.728C160.052 254.923 159.918 255.094 159.751 255.229C159.584 255.364 159.388 255.459 159.179 255.506C158.36 255.666 157.429 255.016 157.186 254.832L157.289 253.147C158.529 252.346 159.853 253.708 160.234 254.152L160.274 254.198L161.061 254.291L161.11 254.259C161.132 254.247 163.117 252.967 164.215 254.048C164.27 254.1 164.32 254.157 164.366 254.217L163.894 255.837Z" fill="black"/>
<path opacity="0.1" d="M168.183 255.165L164.513 254.791L164.212 254.727L164.357 254.219C164.312 254.159 164.262 254.102 164.207 254.05L164.652 254.101L167.654 254.452L168.183 255.165Z" fill="black"/>
</g>
<path d="M164.701 253.955C163.589 252.376 161.387 253.613 161.026 253.829L160.467 253.762C159.989 253.221 158.517 251.778 157.09 252.792L157.029 252.836L156.907 254.831L156.966 254.88C157.367 255.201 157.824 255.446 158.313 255.602C158.623 255.699 158.952 255.722 159.272 255.668C159.509 255.618 159.733 255.516 159.927 255.37C160.12 255.224 160.28 255.038 160.393 254.823L160.685 254.848L160.902 254.811C160.941 255.042 161.028 255.262 161.159 255.456C161.29 255.65 161.46 255.815 161.659 255.938C162.615 256.503 164.038 255.982 164.096 255.973L164.17 255.946L164.725 254.024L164.701 253.955ZM163.935 255.697C163.645 255.789 162.554 256.089 161.833 255.657C161.654 255.54 161.504 255.383 161.395 255.199C161.286 255.015 161.221 254.808 161.204 254.594L161.181 254.436L160.706 254.524L160.238 254.485L160.19 254.575C160.101 254.771 159.969 254.944 159.802 255.08C159.636 255.217 159.44 255.313 159.23 255.362C158.412 255.522 157.481 254.872 157.238 254.688L157.341 253.002C158.581 252.201 159.904 253.564 160.285 254.008L160.326 254.054L161.113 254.147L161.162 254.115C161.183 254.103 163.169 252.822 164.267 253.903C164.322 253.956 164.372 254.012 164.417 254.073L163.935 255.697Z" fill="#472727"/>
<path d="M168.219 255.025L164.562 254.651L164.26 254.587L164.406 254.079C164.361 254.019 164.31 253.962 164.256 253.91L164.7 253.961L167.702 254.312L168.219 255.025Z" fill="#472727"/>
<path d="M142.673 277.33L78.4805 276.12L77.9926 302.023L142.185 303.234L142.673 277.33Z" fill="#6F7D95"/>
<path d="M107.051 319.543C116.944 319.73 125.13 311.101 125.334 300.271C125.538 289.44 117.683 280.509 107.79 280.323C97.8969 280.136 89.7116 288.765 89.5076 299.595C89.3037 310.426 97.1583 319.357 107.051 319.543Z" fill="#4B5C7A"/>
<path opacity="0.05" d="M107.051 319.543C116.944 319.73 125.13 311.101 125.334 300.271C125.538 289.44 117.683 280.509 107.79 280.323C97.8969 280.136 89.7116 288.765 89.5076 299.595C89.3037 310.426 97.1583 319.357 107.051 319.543Z" fill="black"/>
<path d="M111.033 319.618C120.926 319.805 129.111 311.176 129.315 300.346C129.519 289.515 121.664 280.584 111.771 280.397C101.878 280.211 93.6931 288.84 93.4891 299.67C93.2851 310.501 101.14 319.432 111.033 319.618Z" fill="#4B5C7A"/>
<path opacity="0.05" d="M110.851 308.062C115.248 308.145 118.879 304.647 118.962 300.249C119.045 295.851 115.548 292.218 111.151 292.135C106.755 292.052 103.123 295.55 103.04 299.949C102.958 304.347 106.455 307.979 110.851 308.062Z" fill="black"/>
<path d="M110.956 302.488C112.276 302.513 113.366 301.463 113.39 300.143C113.415 298.823 112.366 297.733 111.046 297.708C109.727 297.683 108.637 298.733 108.612 300.053C108.587 301.373 109.637 302.463 110.956 302.488Z" stroke="#6F7D95" stroke-width="2" stroke-miterlimit="10"/>
<path d="M111.069 296.515C111.399 296.522 111.671 296.259 111.677 295.93C111.684 295.6 111.421 295.328 111.092 295.322C110.762 295.315 110.49 295.578 110.484 295.907C110.478 296.237 110.74 296.509 111.069 296.515Z" fill="#6F7D95"/>
<path d="M114.7 297.598C114.956 297.391 114.996 297.015 114.789 296.758C114.582 296.502 114.206 296.462 113.95 296.669C113.693 296.876 113.653 297.252 113.86 297.508C114.067 297.765 114.443 297.805 114.7 297.598Z" fill="#6F7D95"/>
<path d="M116.069 300.514C116.133 300.19 115.922 299.877 115.598 299.813C115.275 299.75 114.961 299.961 114.898 300.285C114.835 300.608 115.045 300.922 115.369 300.985C115.692 301.049 116.006 300.838 116.069 300.514Z" fill="#6F7D95"/>
<path d="M114.009 303.91C114.297 303.75 114.402 303.387 114.243 303.098C114.083 302.81 113.72 302.705 113.432 302.864C113.143 303.024 113.038 303.387 113.198 303.676C113.357 303.964 113.72 304.069 114.009 303.91Z" fill="#6F7D95"/>
<path d="M110.862 304.174C110.98 303.867 110.827 303.521 110.519 303.403C110.212 303.284 109.866 303.437 109.748 303.745C109.629 304.053 109.783 304.398 110.09 304.517C110.398 304.635 110.743 304.482 110.862 304.174Z" fill="#6F7D95"/>
<path d="M107.863 302.275C108.175 302.168 108.341 301.828 108.234 301.516C108.127 301.204 107.788 301.038 107.476 301.145C107.164 301.252 106.998 301.591 107.105 301.903C107.212 302.215 107.551 302.382 107.863 302.275Z" fill="#6F7D95"/>
<path d="M108.211 298.55C108.381 298.267 108.291 297.9 108.008 297.73C107.726 297.56 107.359 297.651 107.189 297.933C107.019 298.216 107.11 298.583 107.392 298.753C107.674 298.923 108.041 298.832 108.211 298.55Z" fill="#6F7D95"/>
<path d="M240.398 287.277C239.707 291.492 237.918 296.086 237.918 296.086C237.935 295.798 237.948 295.513 237.956 295.232C237.963 294.869 237.97 294.51 237.976 294.151C237.98 282.498 231.769 275.191 227.741 271.673C226.694 270.746 225.565 269.917 224.368 269.195L235.492 269.404C235.492 269.404 239.7 278.426 240.53 282.821C240.771 284.054 240.667 285.638 240.398 287.277Z" fill="#0F4C81"/>
<path opacity="0.05" d="M240.398 287.277C239.707 291.492 237.918 296.086 237.918 296.086C237.935 295.798 237.948 295.513 237.956 295.232C237.963 294.869 237.97 294.51 237.976 294.151C237.98 282.498 231.769 275.191 227.741 271.673C226.694 270.746 225.565 269.917 224.368 269.195L235.492 269.404C235.492 269.404 239.7 278.426 240.53 282.821C240.771 284.054 240.667 285.638 240.398 287.277Z" fill="black"/>
<path d="M221.144 302.214C228.668 302.356 234.893 295.794 235.048 287.556C235.203 279.319 229.229 272.526 221.705 272.385C214.181 272.243 207.956 278.805 207.801 287.043C207.646 295.28 213.62 302.072 221.144 302.214Z" fill="#4B5C7A"/>
<path opacity="0.05" d="M221.144 302.214C228.668 302.356 234.893 295.794 235.048 287.556C235.203 279.319 229.229 272.526 221.705 272.385C214.181 272.243 207.956 278.805 207.801 287.043C207.646 295.28 213.62 302.072 221.144 302.214Z" fill="black"/>
<path d="M224.171 302.271C231.695 302.413 237.92 295.851 238.075 287.613C238.23 279.376 232.257 272.583 224.733 272.442C217.209 272.3 210.984 278.862 210.828 287.1C210.673 295.337 216.647 302.129 224.171 302.271Z" fill="#4B5C7A"/>
<path opacity="0.05" d="M224.035 293.483C227.378 293.546 230.14 290.886 230.203 287.541C230.266 284.197 227.606 281.434 224.263 281.371C220.919 281.308 218.158 283.968 218.095 287.313C218.032 290.658 220.691 293.42 224.035 293.483Z" fill="black"/>
<path d="M224.113 289.242C225.116 289.261 225.944 288.463 225.963 287.459C225.982 286.456 225.184 285.627 224.181 285.608C223.178 285.59 222.35 286.388 222.331 287.391C222.312 288.394 223.11 289.223 224.113 289.242Z" stroke="#6F7D95" stroke-width="2" stroke-miterlimit="10"/>
<path d="M224.199 284.702C224.449 284.706 224.657 284.507 224.661 284.256C224.666 284.005 224.467 283.798 224.216 283.793C223.965 283.789 223.758 283.988 223.753 284.239C223.748 284.49 223.948 284.697 224.199 284.702Z" fill="#6F7D95"/>
<path d="M226.962 285.523C227.157 285.366 227.188 285.08 227.03 284.885C226.872 284.689 226.587 284.659 226.391 284.817C226.196 284.974 226.166 285.26 226.323 285.455C226.481 285.651 226.767 285.681 226.962 285.523Z" fill="#6F7D95"/>
<path d="M228.002 287.745C228.05 287.498 227.89 287.26 227.644 287.211C227.397 287.163 227.159 287.324 227.111 287.57C227.063 287.816 227.223 288.055 227.469 288.103C227.715 288.151 227.954 287.991 228.002 287.745Z" fill="#6F7D95"/>
<path d="M226.437 290.326C226.657 290.205 226.736 289.928 226.615 289.709C226.494 289.489 226.218 289.409 225.998 289.531C225.779 289.652 225.699 289.928 225.82 290.148C225.941 290.368 226.218 290.447 226.437 290.326Z" fill="#6F7D95"/>
<path d="M224.042 290.527C224.132 290.293 224.016 290.03 223.782 289.94C223.548 289.849 223.285 289.966 223.195 290.2C223.104 290.434 223.221 290.697 223.455 290.787C223.689 290.878 223.952 290.761 224.042 290.527Z" fill="#6F7D95"/>
<path d="M221.761 289.08C221.998 288.998 222.125 288.74 222.044 288.503C221.962 288.265 221.704 288.139 221.467 288.22C221.229 288.302 221.103 288.56 221.184 288.797C221.266 289.035 221.524 289.161 221.761 289.08Z" fill="#6F7D95"/>
<path d="M222.028 286.247C222.157 286.032 222.088 285.753 221.873 285.624C221.659 285.494 221.38 285.563 221.25 285.778C221.121 285.993 221.19 286.272 221.405 286.402C221.619 286.531 221.898 286.462 222.028 286.247Z" fill="#6F7D95"/>
<path d="M34.8772 300.572L33.4736 287.588L52.9865 287.956L62.8482 297.084L57.7086 308.485C57.7086 308.485 37.9073 304.827 34.8772 300.572Z" fill="#0F4C81"/>
<path opacity="0.05" d="M62.8546 297.084L57.7151 308.485C57.7151 308.485 37.9073 304.827 34.8772 300.572L34.8165 300.006L33.5286 288L33.5157 287.881L33.4844 287.59L52.9973 287.958L62.8546 297.084Z" fill="black"/>
<path d="M144.562 249.899L144.483 254.095C144.483 254.095 134.244 262.124 131.698 269.832C131.255 271.083 131.072 272.411 131.159 273.736C131.91 282.326 105.034 266.307 105.034 266.307L106.253 265.741C112.556 262.846 141.319 249.674 144.562 249.899Z" fill="#7597CE"/>
<path d="M167.158 270.584C167.158 270.584 176.689 266.121 178.27 262.715C178.482 262.258 178.683 261.797 178.916 261.349C179.888 259.483 181.939 255.101 180.988 252.961C179.764 250.201 184.082 253.385 184.082 253.385L181.285 266.285L175.018 269.629L166.974 270.581" fill="#0F4C81"/>
<path opacity="0.05" d="M167.158 270.584C167.158 270.584 176.689 266.121 178.27 262.715C178.482 262.258 178.683 261.797 178.916 261.349C179.888 259.483 181.939 255.101 180.988 252.961C179.764 250.201 184.082 253.385 184.082 253.385L181.285 266.285L175.018 269.629L166.974 270.581" fill="black"/>
<path opacity="0.05" d="M62.8553 297.084L57.7158 308.484C57.7158 308.484 37.9079 304.826 34.8779 300.572L34.8171 300.006C34.8982 299.953 34.9835 299.899 35.0732 299.846C35.0732 299.846 41.001 304.703 54.6599 306.057C54.6599 306.057 62.9996 299.644 49.8141 292.097C49.8141 292.097 38.2185 292.242 33.5227 288.002L33.4716 287.958L33.5098 287.883C33.5427 287.821 33.5957 287.726 33.6688 287.596L52.9914 287.96L62.8553 297.084Z" fill="black"/>
<path opacity="0.05" d="M131.159 273.735C131.91 282.328 105.033 266.308 105.033 266.308L106.253 265.742C107.036 266.61 110.176 269.544 116.566 269.353C120.678 269.229 126.912 269.531 131.708 269.831C131.262 271.082 131.075 272.41 131.159 273.735Z" fill="black"/>
<path opacity="0.05" d="M142.676 277.33L142.188 303.234L130.262 303.009C131.162 296.998 130.874 288.207 123.319 283.027C120.501 281.108 117.208 280.005 113.803 279.839C110.398 279.673 107.013 280.451 104.023 282.088C98.9547 284.857 93.2388 290.573 89.4547 302.239L77.9956 302.023L78.4834 276.12L142.676 277.33Z" fill="black"/>
<path opacity="0.05" d="M240.398 287.277C239.895 290.128 239.12 292.892 237.958 295.237C237.808 295.553 237.645 295.86 237.469 296.16C237.499 296.054 237.719 295.319 237.978 294.16C239.244 288.515 241.522 272.872 228.255 271.726C228.082 271.712 227.911 271.698 227.741 271.688C226.695 270.756 225.566 269.921 224.368 269.195L235.492 269.404C235.492 269.404 239.7 278.426 240.53 282.821C240.771 284.054 240.667 285.638 240.398 287.277Z" fill="black"/>
<path d="M237.834 295.991C238.018 295.369 244.605 272.94 228.619 271.559C212.409 270.159 210.172 282.343 208.037 298.91C208.037 298.91 156.723 301.774 129.032 309.283C129.032 309.283 135.985 291.283 123.69 282.852C120.872 280.932 117.579 279.829 114.174 279.663C110.768 279.497 107.384 280.276 104.393 281.912C98.1866 285.304 91.0035 293.127 87.5915 310.873L56.9504 310.295C56.9504 310.295 51.1059 310.55 49.1533 307.768C49.1533 307.768 40.9339 307.795 35.9203 303.321C35.9203 303.321 30.4708 302.123 34.8984 299.47C34.8984 299.47 41.01 304.33 54.6667 305.684C54.6667 305.684 63.0064 299.271 49.8209 291.725C49.8209 291.725 38.1388 291.87 33.4806 287.585C33.4806 287.585 35.2081 284.175 39.081 280.083C44.3784 274.471 51.071 270.366 58.4744 268.188C63.4624 266.748 68.6455 266.1 73.8344 266.267L106.04 265.87C106.04 265.87 109.074 269.943 116.549 269.718C124.023 269.494 138.605 270.682 138.605 270.682L138.749 270.684L168.811 269.89C169.676 269.785 170.532 269.62 171.374 269.398C175.751 268.297 184.078 264.865 182.777 254.816L229.955 258.627C231.734 258.742 233.498 259.025 235.223 259.473C237.637 260.141 239.834 261.321 239.17 263.363C237.816 267.535 241.269 268.148 241.269 268.148C241.269 268.148 241.332 268.709 241.405 269.684C241.751 274.282 242.34 288.096 237.834 295.991Z" fill="#0F4C81"/>
<path opacity="0.05" d="M93.7706 273.213C93.7706 273.213 74.0706 273.023 60.9031 284.276L68.198 284.414C68.198 284.414 88.7229 279.509 93.725 275.406L93.7706 273.213Z" fill="black"/>
<path d="M93.59 273.028C93.59 273.028 73.8899 272.838 60.7224 284.091L68.0173 284.229C68.0173 284.229 88.5422 279.324 93.5444 275.221L93.59 273.028Z" fill="#FFEC9F"/>
<path opacity="0.05" d="M58.6527 268.376L58.5604 273.279L41.8241 280.629L39.2614 280.271C44.5582 274.658 51.2501 270.553 58.6527 268.376Z" fill="black"/>
<path d="M58.4722 268.191L58.3799 273.094L41.6415 280.441L39.0788 280.084C44.3765 274.472 51.069 270.367 58.4722 268.191Z" fill="#FFEC9F"/>
<path opacity="0.05" d="M81.5789 290.868C81.5789 290.868 72.5398 296.171 71.4005 308.201L76.5074 308.297C76.5074 308.297 78.7612 295.2 84.6793 290.926L81.5789 290.868Z" fill="black"/>
<path opacity="0.05" d="M187.164 293.225L140.738 297.823C140.738 297.823 138.042 278.257 138.751 270.678L168.813 269.884C169.677 269.781 170.532 269.619 171.374 269.398L171.34 271.209L194.056 266.163C194.056 266.163 197.781 271.889 187.164 293.225Z" fill="black"/>
<path d="M182.879 249.525C182.879 249.525 192.751 248.435 196.969 256.909L182.895 256.101L182.879 249.525Z" fill="#0F4C81"/>
<path opacity="0.05" d="M196.231 259.838C195.821 261.044 196.087 262.384 198.312 263.35C200.163 264.155 202.368 263.305 203.042 261.403C203.435 260.294 203.204 259.026 201.212 257.961C199.221 256.896 196.947 257.731 196.231 259.838Z" fill="black"/>
<path d="M33.7744 290.328C33.7744 290.328 45.3486 296.604 53.7807 294.47" stroke="#0F4C81" stroke-miterlimit="10"/>
<path d="M34.126 293.606C34.126 293.606 41.5684 299.575 56.8583 298.509" stroke="#0F4C81" stroke-miterlimit="10"/>
<path d="M34.4229 296.357C34.4229 296.357 41.792 303.002 57.2249 301.231" stroke="#0F4C81" stroke-miterlimit="10"/>
<path opacity="0.05" d="M196.422 255.92C196.422 255.92 190.23 261.067 184.625 263.341C184.625 263.341 193.041 265.004 196.422 255.92Z" fill="black"/>
<path opacity="0.1" d="M131.585 270.189C131.585 270.189 160.445 273.466 171.433 271.118C171.433 271.118 172.009 271.516 168.556 269.889L131.585 270.189Z" fill="black"/>
<path opacity="0.05" d="M241.407 269.684C239.628 268.467 236.819 265.958 237.259 263.234C237.48 261.868 236.535 260.569 235.226 259.469C237.64 260.138 239.837 261.318 239.173 263.361C237.818 267.532 241.272 268.145 241.272 268.145C241.272 268.145 241.333 268.709 241.407 269.684Z" fill="black"/>
<path opacity="0.02" d="M89.9628 279.474L87.385 287.152L87.3238 287.302C86.9959 287.369 80.0733 288.825 78.5766 289.283L78.4274 289.281L82.4702 279.155L82.586 278.863L83.8363 278.967L89.9628 279.474Z" fill="black"/>
<path opacity="0.1" d="M95.0734 283.849C94.2615 283.204 92.7254 282.195 91.2901 282.384L91.5605 281.348C91.5605 281.348 93.7788 280.7 94.5441 281.405C94.8248 281.661 95.003 282.653 95.0734 283.849Z" fill="black"/>
<path opacity="0.1" d="M67.447 268.744C67.447 268.744 72.4349 269.182 73.8316 268.174C71.993 269.529 69.8343 270.383 67.5668 270.653L67.447 268.744Z" fill="black"/>
<path d="M240.604 270.518C238.522 271.63 236.672 263.858 236.672 263.858L236.593 262.769L236.442 260.71L238.986 261.035C238.947 261.479 238.947 261.927 238.986 262.371C239.03 262.899 239.16 263.45 239.463 263.671C240.14 264.183 242.683 269.408 240.604 270.518Z" fill="#FFE2C9"/>
<path d="M209.233 315.902L209.41 315.768C209.356 315.819 209.297 315.864 209.233 315.902Z" fill="#FFE2C9"/>
<path d="M214.476 273.202V278.512C214.476 278.742 214.476 278.971 214.476 279.2C214.421 281.184 214.245 283.162 213.949 285.124C213.878 285.603 213.866 286.089 213.914 286.571C214.099 288.377 213.651 295.272 213.651 295.272L212.86 304.201C212.86 304.201 213.321 309.057 213.124 309.738C213.071 310.016 213.054 310.301 213.074 310.584C213.1 311.375 213.237 312.39 213.282 312.693V312.785L213.253 312.806L209.386 315.756C210.003 315.195 210.161 313.887 210.159 312.675C210.159 312.543 210.159 312.411 210.159 312.279C210.159 311.145 210.203 310.012 210.29 308.878C210.417 307.014 209.674 304.159 209.131 302.382C208.438 300.117 207.742 286.885 208.114 286.192C208.485 285.498 208.066 283.692 207.605 282.675C207.333 282.055 207.07 279.888 206.912 278.306C206.812 277.347 206.751 276.619 206.751 276.619L214.476 273.202Z" fill="#FFE2C9"/>
<path d="M222.688 314.715L222.877 314.573C222.819 314.627 222.755 314.675 222.688 314.715Z" fill="#FFE2C9"/>
<path d="M227.93 272.015V277.325C227.93 277.652 227.93 277.981 227.93 278.308C227.87 280.193 227.7 282.072 227.421 283.937C227.351 284.416 227.339 284.902 227.387 285.384C227.571 287.19 227.123 294.085 227.123 294.085L226.333 303.014C226.333 303.014 226.797 307.87 226.612 308.551C226.558 308.828 226.542 309.112 226.562 309.394C226.588 310.185 226.728 311.216 226.77 311.503C226.77 311.561 226.783 311.59 226.783 311.59L226.754 311.611L222.883 314.562C223.481 313.987 223.637 312.695 223.634 311.498C223.634 311.366 223.634 311.234 223.634 311.1C223.634 309.966 223.687 308.833 223.763 307.699C223.887 305.835 223.146 302.983 222.603 301.206C221.908 298.941 221.215 285.709 221.586 285.015C221.958 284.322 221.539 282.516 221.078 281.498C220.911 281.14 220.753 280.267 220.616 279.297C220.371 277.536 220.197 275.44 220.197 275.44L227.93 272.015Z" fill="#FFE2C9"/>
<path opacity="0.1" d="M220.708 221.668L220.668 221.729C220.261 222.306 219.738 222.792 219.132 223.155C218.526 223.518 217.851 223.751 217.15 223.838C216.945 223.867 216.738 223.881 216.531 223.88C216.515 223.817 216.502 223.754 216.486 223.693C216.183 222.375 215.861 221.32 215.861 221.32C215.861 221.32 216.207 220.822 216.71 220.187C218.078 218.457 220.597 215.723 220.4 219.377C220.357 220.118 220.446 220.859 220.663 221.568C220.682 221.587 220.692 221.624 220.708 221.668Z" fill="black"/>
<path d="M221.612 218.593C221.613 219.834 221.159 221.032 220.337 221.962C219.516 222.892 218.382 223.489 217.151 223.641C216.943 223.668 216.733 223.681 216.523 223.681H216.486C215.482 223.673 214.503 223.368 213.671 222.804C212.84 222.24 212.194 221.443 211.815 220.512C211.436 219.582 211.341 218.56 211.542 217.576C211.743 216.591 212.23 215.688 212.943 214.981C213.656 214.273 214.562 213.792 215.548 213.599C216.534 213.406 217.554 213.509 218.481 213.895C219.409 214.282 220.201 214.934 220.758 215.77C221.315 216.606 221.612 217.588 221.612 218.593Z" fill="#FFE2C9"/>
<path d="M226.546 233.419L221.613 237.637C221.613 237.637 216.234 229.96 216.869 228.386C217.072 227.893 217.048 227.017 216.919 226.042C216.848 225.515 216.745 224.932 216.629 224.384C216.595 224.212 216.558 224.044 216.521 223.877C216.505 223.814 216.492 223.751 216.476 223.69C216.173 222.372 215.852 221.317 215.852 221.317C215.852 221.317 216.197 220.819 216.7 220.184C218.068 218.454 220.588 215.72 220.39 219.374C220.348 220.115 220.437 220.856 220.653 221.565C220.653 221.607 220.677 221.65 220.693 221.689C221.394 223.846 223.102 225.567 224.414 226.635C224.952 227.077 225.52 227.481 226.114 227.843L226.546 233.419Z" fill="#FFE2C9"/>
<path opacity="0.1" d="M206.751 276.628L214.476 273.201V278.51C214.476 278.741 214.476 278.97 214.476 279.198C214.301 279.138 214.133 279.059 213.975 278.964C212.449 278.02 210.549 278.753 210.414 278.753C210.28 278.753 208.749 279.401 207.13 278.429C207.059 278.386 206.988 278.347 206.92 278.313C206.806 277.356 206.751 276.628 206.751 276.628Z" fill="black"/>
<path opacity="0.1" d="M227.93 272.015V277.325C227.93 277.652 227.93 277.981 227.93 278.308C227.82 278.492 227.732 278.687 227.666 278.891C227.387 279.54 225.492 279.772 223.826 279.497C222.768 279.359 221.702 279.292 220.635 279.297C220.39 277.536 220.216 275.44 220.216 275.44L227.93 272.015Z" fill="black"/>
<path d="M235.518 273.526C234.221 273.711 230.985 276.487 229.366 277.043C227.748 277.6 227.933 277.689 227.656 278.338C227.379 278.986 225.482 279.216 223.816 278.942C222.15 278.667 219.006 278.754 219.006 278.754C219.006 278.754 215.504 279.361 213.967 278.409C212.431 277.457 210.541 278.198 210.407 278.198C210.272 278.198 208.741 278.847 207.123 277.874C205.505 276.901 203.33 277.273 203.33 277.273C203.33 277.273 201.572 276.255 200.555 276.811C199.538 277.368 197.319 275.701 196.763 275.193C196.207 274.684 197.817 273.065 199.029 272.601C200.241 272.137 202.545 265.106 202.774 264.876C203.003 264.647 204.023 262.192 203.884 261.222C203.744 260.252 206.519 255.807 206.519 255.807L208.274 249.833L208.802 247.987L208.823 246.888C208.823 246.392 208.846 245.757 208.86 245.043C208.907 242.09 208.957 237.711 208.86 235.731C208.844 235.425 208.828 235.177 208.807 234.998C208.575 233.01 210.652 228.671 211.166 227.782C211.545 227.126 214.001 226.627 215.464 226.319C215.813 226.256 216.158 226.173 216.497 226.071C216.63 226.038 216.767 226.027 216.903 226.039C218.284 226.095 222.356 226.949 222.356 226.949C221.987 238.098 222.728 236.155 222.728 236.155C223.929 235.23 223.189 227.041 223.189 227.041C223.79 227.318 224.404 226.622 224.404 226.622L226.749 227.595C227.464 228.024 228.154 228.491 228.818 228.995C229.375 229.387 229.864 229.868 230.265 230.418C230.958 231.576 231.931 234.861 231.931 234.861L231.098 236.179C230.37 237.347 229.253 239.142 228.107 240.961L226.072 244.202C225.163 245.646 224.422 246.82 224.114 247.297C224.044 247.411 223.995 247.537 223.969 247.668C223.951 247.755 223.94 247.844 223.935 247.932C223.922 248.301 223.958 248.67 224.043 249.029C224.625 251.792 227.258 256.319 227.258 256.319C227.258 256.319 229.893 260.342 229.941 261.636C229.988 262.931 232.808 264.32 233.457 266.079C234.105 267.837 235.536 268.483 235.352 269.548C235.167 270.613 237.196 271.075 237.571 271.768C237.945 272.461 236.812 273.342 235.518 273.526Z" fill="#FA595F"/>
<path opacity="0.1" d="M238.98 262.371C238.266 262.854 237.009 262.835 236.593 262.769L236.442 260.71L238.986 261.035C238.945 261.479 238.944 261.926 238.98 262.371Z" fill="black"/>
<path d="M230.059 233.512L231.957 234.854C231.957 234.854 232.835 238.368 233.62 239.618C234.405 240.868 234.313 242.486 234.313 242.486C234.578 242.78 234.825 243.089 235.054 243.412C235.61 244.153 236.348 247.867 236.071 248.347C235.794 248.827 237.668 252.803 237.668 252.803C237.668 252.803 237.932 253.066 238.477 254.514C239.023 255.961 238.477 257.614 238.477 257.614C238.477 257.614 239.911 260.807 239.31 261.685C238.709 262.563 236.764 262.476 236.487 262.378C236.211 262.281 237.228 261.777 235.433 261.637C233.638 261.498 231.269 258.307 231.269 258.307C230.331 256.612 229.645 254.789 229.234 252.895C228.824 250.944 228.269 249.026 227.571 247.158C227.34 246.465 226.322 241.977 226.322 241.977L230.059 233.512Z" fill="#FA595F"/>
<path opacity="0.1" d="M215.861 233.512C215.861 233.512 215.722 244.245 214.428 246.372L215.861 233.512Z" fill="black"/>
<path opacity="0.1" d="M223.355 237.305C223.355 237.305 222.153 248.038 221.204 248.592C220.255 249.145 223.355 237.305 223.355 237.305Z" fill="black"/>
<path opacity="0.1" d="M221.612 235.779C221.612 235.779 221.319 245.9 219.793 246.899C218.267 247.898 221.612 235.779 221.612 235.779Z" fill="black"/>
<path opacity="0.1" d="M208.325 254.93C208.325 254.93 206.411 260.527 206.627 262.839C206.843 265.152 208.325 254.93 208.325 254.93Z" fill="black"/>
<path opacity="0.1" d="M224.069 249.398C221.565 249.959 214.792 250.966 208.836 247.259C208.836 246.764 208.86 246.128 208.873 245.414C211.134 246.658 217.486 249.896 220.719 248.989C222.332 248.528 223.355 248.235 223.995 248.045C223.931 248.496 223.956 248.956 224.069 249.398Z" fill="black"/>
<path opacity="0.1" d="M224.069 248.844C221.565 249.403 214.792 250.41 208.836 246.706C208.836 246.211 208.86 245.573 208.873 244.861C211.134 246.105 217.486 249.343 220.719 248.436C222.332 247.977 223.355 247.682 223.995 247.495C223.932 247.945 223.957 248.404 224.069 248.844Z" fill="black"/>
<path d="M224.069 249.042C221.565 249.601 214.792 250.608 208.836 246.903C208.836 246.408 208.86 245.772 208.873 245.058C211.134 246.302 217.486 249.54 220.719 248.633C222.332 248.174 223.355 247.879 223.995 247.692C223.932 248.142 223.957 248.601 224.069 249.042Z" fill="#212121"/>
<path opacity="0.1" d="M224.069 249.042C221.565 249.601 214.792 250.608 208.836 246.903C208.836 246.408 208.86 245.772 208.873 245.058C211.134 246.302 217.486 249.54 220.719 248.633C222.332 248.174 223.355 247.879 223.995 247.692C223.932 248.142 223.957 248.601 224.069 249.042Z" fill="black"/>
<path opacity="0.1" d="M213.292 312.704C213.292 312.765 213.279 312.804 213.276 312.817L209.41 315.768C210.027 315.206 210.185 313.898 210.182 312.686C210.182 312.554 210.182 312.422 210.182 312.29C210.523 311.452 211.006 310.68 211.611 310.007C212.27 309.836 212.683 310.007 212.929 310.305C212.929 310.334 212.929 310.363 212.929 310.389C212.981 310.453 213.027 310.522 213.066 310.595C213.453 311.262 213.342 312.351 213.292 312.704Z" fill="black"/>
<path opacity="0.1" d="M212.992 311.206L210.074 313.21C210.074 313.21 210.093 312.975 210.119 312.63C210.466 311.734 210.973 310.908 211.613 310.191C212.272 310.023 212.686 310.191 212.931 310.489C212.955 310.922 212.992 311.206 212.992 311.206Z" fill="black"/>
<path d="M213.273 313.008C212.864 313.947 212.657 314.962 212.667 315.987C212.684 316.829 212.47 317.66 212.048 318.389C211.989 318.492 211.921 318.59 211.845 318.681C211.845 318.681 209.818 318.666 209.109 318.078C209.029 318.018 208.962 317.941 208.914 317.854C208.508 317.044 209.705 313.944 209.705 313.944C210.332 311.553 211.608 310.277 211.608 310.277C213.882 309.681 213.273 313.008 213.273 313.008Z" fill="#5A5773"/>
<path opacity="0.1" d="M212.048 318.38C211.989 318.483 211.921 318.581 211.845 318.673C211.845 318.673 209.818 318.657 209.109 318.069C209.457 316.914 210.572 313.421 211.091 314.014C211.61 314.607 211.924 317.265 212.048 318.38Z" fill="black"/>
<path d="M211.769 314.239L211.629 319.475H212.309C212.309 319.475 212.417 314.882 212.723 314.239C213.028 313.595 211.769 314.239 211.769 314.239Z" fill="#5A5773"/>
<path opacity="0.1" d="M226.746 311.525L226.731 311.633L222.883 314.562C223.481 313.987 223.637 312.696 223.634 311.499C223.634 311.367 223.634 311.235 223.634 311.101C223.974 310.264 224.456 309.492 225.06 308.82C225.719 308.649 226.135 308.82 226.391 309.115C226.391 309.147 226.391 309.173 226.391 309.202C226.444 309.265 226.49 309.333 226.528 309.405C226.91 310.083 226.797 311.174 226.746 311.525Z" fill="black"/>
<path opacity="0.1" d="M226.446 310.017L223.528 312.024C223.528 312.024 223.547 311.789 223.576 311.444C223.921 310.547 224.426 309.72 225.067 309.005C225.726 308.836 226.14 308.992 226.398 309.303C226.409 309.735 226.446 310.017 226.446 310.017Z" fill="black"/>
<path d="M226.731 311.82C226.319 312.759 226.112 313.775 226.122 314.8C226.139 315.642 225.925 316.473 225.503 317.201C225.443 317.304 225.375 317.402 225.3 317.494C225.3 317.494 223.273 317.478 222.564 316.89C222.486 316.828 222.421 316.751 222.374 316.663C221.971 315.854 223.165 312.754 223.165 312.754C223.792 310.362 225.068 309.086 225.068 309.086C227.337 308.499 226.731 311.82 226.731 311.82Z" fill="#5A5773"/>
<path opacity="0.1" d="M225.502 317.202C225.442 317.304 225.374 317.402 225.299 317.494C225.299 317.494 223.272 317.478 222.563 316.891C222.911 315.736 224.026 312.24 224.545 312.833C225.065 313.426 225.378 316.079 225.502 317.202Z" fill="black"/>
<path d="M225.225 313.052L225.083 318.285H225.763C225.763 318.285 225.871 313.695 226.177 313.052C226.482 312.408 225.225 313.052 225.225 313.052Z" fill="#5A5773"/>
<path opacity="0.1" d="M231.285 237.629C231.253 238.947 230.534 240.352 229.271 240.745C228.902 240.859 228.51 240.885 228.133 240.961C227.952 240.995 227.775 241.049 227.606 241.122C226.797 241.494 226.393 242.417 226.23 243.292C226.172 243.592 226.135 243.896 226.098 244.202C226.055 244.784 225.933 245.357 225.737 245.907C225.376 246.754 224.754 247.464 223.961 247.932C223.04 248.479 222.048 248.895 221.012 249.166C221.535 248.36 221.877 247.449 222.013 246.498C222.15 245.546 222.078 244.577 221.802 243.656C221.634 243.115 221.275 242.512 220.703 242.527C220.258 242.541 219.939 242.936 219.607 243.237C217.973 244.708 215.417 244.051 213.348 243.31C217.037 239.559 218.063 233.466 215.838 228.707C215.636 228.336 215.484 227.94 215.385 227.529C215.319 227.12 215.358 226.701 215.498 226.311C215.678 225.812 215.93 225.342 216.247 224.916C216.376 224.734 216.51 224.555 216.647 224.373C216.824 224.133 217.001 223.891 217.159 223.64C217.393 223.29 217.571 222.904 217.686 222.499C217.92 221.602 217.591 220.469 216.724 220.163L216.676 220.144C215.717 219.844 215.419 219.754 214.766 218.984C214.328 218.473 214.08 217.666 213.332 217.516C212.757 217.397 212.114 217.653 211.511 217.808C211.628 217.049 211.916 216.326 212.353 215.693C212.789 215.061 213.363 214.536 214.032 214.157C214.701 213.778 215.446 213.556 216.213 213.506C216.98 213.457 217.748 213.582 218.459 213.871C219.171 214.161 219.808 214.609 220.322 215.18C220.836 215.751 221.214 216.431 221.428 217.169C221.642 217.908 221.686 218.685 221.557 219.442C221.428 220.2 221.129 220.919 220.682 221.544C221.357 223.759 223.104 225.525 224.443 226.614L226.789 227.587C227.503 228.016 228.194 228.483 228.858 228.987C229.22 230.633 229.719 232.246 230.349 233.809C230.671 234.579 230.935 235.372 231.14 236.182C231.248 236.656 231.297 237.142 231.285 237.629Z" fill="black"/>
<path d="M216.847 219.961C217.749 220.243 218.097 221.403 217.857 222.315C217.617 223.227 216.971 223.965 216.426 224.732C215.88 225.5 215.395 226.417 215.561 227.345C215.66 227.756 215.812 228.152 216.015 228.524C218.239 233.282 217.2 239.372 213.524 243.127C215.593 243.868 218.152 244.524 219.783 243.053C220.115 242.752 220.434 242.357 220.88 242.344C221.446 242.325 221.813 242.932 221.979 243.472C222.254 244.393 222.326 245.362 222.189 246.313C222.053 247.264 221.711 248.174 221.188 248.98C223.093 248.426 225.186 247.569 225.916 245.724C226.243 244.898 226.243 243.981 226.406 243.106C226.57 242.23 226.973 241.31 227.782 240.938C228.309 240.701 228.902 240.73 229.448 240.561C230.71 240.169 231.43 238.766 231.461 237.445C231.493 236.124 230.987 234.856 230.512 233.625C227.877 226.77 230.354 232.262 228.91 224.013C228.615 222.328 229.076 221.321 229.453 219.655C229.83 217.988 229.748 216.059 228.591 214.798C227.434 213.538 225.637 213.304 224.2 212.449C222.927 211.69 221.807 210.411 220.326 210.435C219.24 210.451 219.243 210.628 218.242 211.049C216.51 211.777 214.568 211.558 212.807 212.159C211.226 212.702 209.218 214.479 209.697 216.378C210.343 218.932 212.114 217.053 213.495 217.34C214.243 217.498 214.491 218.294 214.929 218.808C215.593 219.568 215.888 219.66 216.847 219.961Z" fill="#212121"/>
<path d="M200.217 251.122C200.217 251.122 199.469 251.043 198.462 250.887C195.827 250.486 191.37 249.569 193.905 248.251C196.232 247.033 199.44 248.066 201.316 248.894C201.85 249.13 202.371 249.394 202.876 249.685L200.217 251.122Z" fill="#FFE2C9"/>
<path opacity="0.1" d="M214.244 235.038C214.244 235.038 213.042 241.102 212.441 242.438C211.84 243.775 210.86 247.297 210.86 247.297C210.86 247.297 209.439 248.584 208.267 249.833L208.794 247.988L208.815 246.888C208.815 246.393 208.839 245.757 208.852 245.043C208.899 242.09 208.949 237.711 208.852 235.731C208.954 235.539 209.02 235.42 209.02 235.42L209.956 233.936C209.956 233.936 211.482 229.865 212.36 228.708C213.237 227.55 214.244 235.038 214.244 235.038Z" fill="black"/>
<path opacity="0.1" d="M200.952 250.318C200.952 250.318 200.818 250.845 200.591 251.557C200.304 251.441 200.064 251.349 199.888 251.293C199.097 251.03 200.027 250.692 199.795 249.999C199.598 249.403 199.231 249.59 198.81 249.424C199.085 249.049 199.384 248.69 199.703 248.351L200.952 250.318Z" fill="black"/>
<path d="M209.803 233.927L208.868 235.411C208.868 235.411 207.597 237.766 207.4 238.496C207.202 239.226 206.807 242.021 206.016 242.67C205.225 243.318 203.61 245.398 203.842 245.815C204.074 246.231 201.667 246.74 201.667 246.74C201.667 246.74 200.049 247.389 200.142 247.898C200.234 248.406 198.8 248.823 199.309 249.192C199.817 249.561 200.281 249.192 200.513 249.885C200.745 250.579 199.817 250.906 200.605 251.182C201.393 251.459 203.981 252.543 203.981 252.543C203.981 252.543 206.061 252.894 206.662 251.644C207.263 250.394 210.686 247.296 210.686 247.296C210.686 247.296 211.656 243.779 212.267 242.438C212.879 241.096 214.073 235.037 214.073 235.037C214.073 235.037 213.1 227.542 212.228 228.71C211.356 229.878 209.803 233.927 209.803 233.927Z" fill="#FA595F"/>
<path opacity="0.1" d="M207.167 245.863C207.167 245.863 202.589 246.464 205.04 247.481C207.491 248.499 208.324 247.481 208.324 247.481L207.167 245.863Z" fill="black"/>
<path opacity="0.1" d="M201.479 248.591C201.479 248.591 204.162 248.038 204.856 248.591C205.549 249.145 201.479 248.591 201.479 248.591Z" fill="black"/>
<path opacity="0.1" d="M201.203 249.981C201.203 249.981 201.388 249.517 202.313 249.981C203.238 250.445 201.203 249.981 201.203 249.981Z" fill="black"/>
<path opacity="0.1" d="M231.469 254.401C231.469 254.401 231.748 258.619 232.884 258.756C234.02 258.893 231.469 254.401 231.469 254.401Z" fill="black"/>
<path opacity="0.1" d="M233.898 244.851C233.898 244.851 234.091 246.14 232.884 246.372C231.677 246.604 233.898 244.851 233.898 244.851Z" fill="black"/>
<path opacity="0.1" d="M220.207 257.397C220.207 257.397 220.147 270.413 222.798 272.016L220.207 257.397Z" fill="black"/>
<path opacity="0.1" d="M223.721 257.953C223.721 257.953 223.673 270.966 226.309 272.572L223.721 257.953Z" fill="black"/>
<path opacity="0.1" d="M209.632 286.134C210.232 286.079 210.837 286.079 211.437 286.134C212.441 286.216 209.632 286.134 209.632 286.134Z" fill="black"/>
<path opacity="0.1" d="M209.632 287.043C210.232 286.988 210.837 286.988 211.437 287.043C212.441 287.136 209.632 287.043 209.632 287.043Z" fill="black"/>
<path opacity="0.1" d="M223.349 285.067C223.949 285.011 224.553 285.011 225.154 285.067C226.158 285.161 223.349 285.067 223.349 285.067Z" fill="black"/>
<path opacity="0.1" d="M223.657 285.793C224.258 285.737 224.862 285.737 225.463 285.793C226.464 285.885 223.657 285.793 223.657 285.793Z" fill="black"/>
<g opacity="0.1">
<path opacity="0.1" d="M214.497 242.67C218.186 238.919 219.212 232.829 216.987 228.067C216.785 227.696 216.633 227.3 216.534 226.889C216.368 225.961 216.85 225.043 217.398 224.276C217.947 223.509 218.592 222.771 218.829 221.859C219.067 220.946 218.721 219.786 217.82 219.507C216.861 219.206 216.563 219.114 215.909 218.344C215.472 217.833 215.224 217.026 214.476 216.878C213.095 216.591 211.313 218.46 210.678 215.913C210.314 214.485 211.376 213.119 212.602 212.304C211.071 212.94 209.3 214.627 209.753 216.412C210.399 218.966 212.17 217.089 213.551 217.377C214.299 217.532 214.547 218.331 214.984 218.843C215.64 219.612 215.936 219.705 216.895 220.005C217.796 220.285 218.144 221.445 217.904 222.357C217.665 223.269 217.019 224.007 216.473 224.774C215.928 225.542 215.443 226.459 215.609 227.39C215.708 227.8 215.861 228.195 216.062 228.566C218.287 233.327 217.248 239.417 213.572 243.169C215.564 243.883 218.007 244.516 219.633 243.25C218.091 243.794 216.141 243.258 214.497 242.67Z" fill="black"/>
<path opacity="0.1" d="M228.762 240.484C228.567 240.573 228.388 240.696 228.235 240.848C228.652 240.745 229.092 240.732 229.5 240.603C229.817 240.505 230.11 240.341 230.36 240.123C229.835 240.271 229.261 240.255 228.762 240.484Z" fill="black"/>
<path opacity="0.1" d="M224.172 247.8C223.523 248.09 222.853 248.333 222.169 248.525C222.692 247.72 223.033 246.81 223.17 245.859C223.306 244.908 223.235 243.938 222.959 243.018C222.793 242.491 222.432 241.871 221.86 241.887C221.517 241.94 221.205 242.118 220.985 242.388C221.512 242.406 221.874 242.991 222.04 243.516C222.315 244.437 222.387 245.406 222.25 246.357C222.114 247.308 221.772 248.218 221.249 249.024C222.275 248.752 223.258 248.34 224.172 247.8Z" fill="black"/>
</g>
</g>
<defs>
<linearGradient id="paint0_linear" x1="14249.6" y1="38201.2" x2="18464.3" y2="23651.5" gradientUnits="userSpaceOnUse">
<stop stop-color="#808080" stop-opacity="0.25"/>
<stop offset="0.54" stop-color="#808080" stop-opacity="0.12"/>
<stop offset="1" stop-color="#808080" stop-opacity="0.1"/>
</linearGradient>
<clipPath id="clip0">
<rect width="452" height="330" fill="white"/>
</clipPath>
</defs>
</svg>
