<svg width="996" height="828" viewBox="0 0 996 828" fill="none" xmlns="http://www.w3.org/2000/svg">
<g clip-path="url(#clip0)">
<path d="M929.119 519.611L828.994 566.999L917.609 500.737C903.206 478.256 887.027 456.965 869.225 437.068L434.994 544.999L827.227 395.375C809.303 379.561 790.269 365.052 770.269 351.961L108.603 458.538C38.3507 546.388 0.0540841 655.513 0 767.999H995.987C995.947 680.761 972.881 595.079 929.119 519.611Z" fill="#F0F2F4"/>
<path d="M716.117 321.195C648.184 288.062 573.576 270.893 497.994 271C344.164 271 206.632 340.753 115.283 450.349C271.71 416.074 544.061 356.743 716.117 321.195Z" fill="#F0F2F4"/>
<path d="M790.117 756.876C776.371 754.547 763.151 752.547 750.458 750.876L755.476 741.147C753.784 740.559 746.35 746.13 746.35 746.13L752.935 717.889C744.425 718.916 740.099 747.752 740.099 747.752L730.591 738.002L735.194 748.963C701.803 744.926 668.207 742.812 634.573 742.63L638.868 734.303C637.176 733.716 629.742 739.287 629.742 739.287L636.328 711.046C627.818 712.072 623.491 740.908 623.491 740.908L613.983 731.159L618.858 742.768C599.523 743.088 580.217 744.399 561.016 746.697C565.36 733.725 580.117 721.388 580.117 721.388C568.847 724.74 562.935 730.356 559.846 735.593C559.57 708.827 564.021 682.222 572.993 657.004C572.993 657.004 549.699 707.694 552.671 741.72L553.027 747.762C533.279 750.59 523.35 753.532 523.35 753.532L790.117 756.876Z" fill="#212121"/>
<path d="M439.767 763.872C426.021 761.543 412.801 759.543 400.108 757.872L405.126 748.143C403.434 747.555 396 753.127 396 753.127L402.585 724.886C394.075 725.912 389.749 754.748 389.749 754.748L380.241 744.999L384.844 755.959C351.453 751.923 317.857 749.808 284.224 749.627L288.518 741.3C286.826 740.712 279.392 746.284 279.392 746.284L285.978 718.042C277.468 719.069 273.141 747.905 273.141 747.905L263.633 738.155L268.508 749.765C249.173 750.084 229.867 751.395 210.666 753.694C215.01 740.722 229.767 728.384 229.767 728.384C218.497 731.736 212.586 737.353 209.497 742.589C209.221 715.823 213.671 689.219 222.643 664C222.643 664 199.349 714.691 202.322 748.716L202.677 754.758C182.929 757.586 173 760.528 173 760.528L439.767 763.872Z" fill="#212121"/>
<path d="M814.997 766C814.997 781.464 671.28 828 493.997 828C316.713 828 172.997 781.464 172.997 766C172.997 750.536 316.713 772 493.997 772C671.28 772 814.997 750.536 814.997 766Z" fill="#212121"/>
<path opacity="0.1" d="M814.997 766C814.997 781.464 671.28 828 493.997 828C316.713 828 172.997 781.464 172.997 766C172.997 750.536 316.713 772 493.997 772C671.28 772 814.997 750.536 814.997 766Z" fill="black"/>
<path d="M493.997 794C671.28 794 814.997 781.464 814.997 766C814.997 750.536 671.28 738 493.997 738C316.713 738 172.997 750.536 172.997 766C172.997 781.464 316.713 794 493.997 794Z" fill="#212121"/>
<path opacity="0.1" d="M512.497 775C662.442 775 783.997 767.837 783.997 759C783.997 750.163 662.442 743 512.497 743C362.552 743 240.997 750.163 240.997 759C240.997 767.837 362.552 775 512.497 775Z" fill="black"/>
<path d="M626.897 749.462H705.971L679.705 707.009L661.201 705.467L672.043 694.625L605.965 587.824V570.382H597.079L543.171 441.304L552.474 428.513L543.171 421.536H538.007L507.827 147.683H512.355L519.333 127.914V89.54H510.03V70.9343H498.401V34.8857H496.075V0H493.75V34.8857H490.261V70.9343H479.795V89.54H469.33V127.914L477.47 147.683H482.174L459.541 421.536H459.445L444.328 426.187L452.468 440.142L453.05 441.304H452.468L407.213 570.382H395.488L396.651 587.824L298.971 749.462H379.208V730.856H374.557C374.557 730.856 389.674 628.525 498.983 619.222C610.617 616.896 631.548 728.53 631.548 728.53H626.897V749.462ZM681.357 711.669L684.458 722.522L670.504 713.219L681.357 711.669ZM664.302 714.77L681.357 725.623L662.752 724.073L664.302 714.77ZM644.146 725.623L654.999 713.219L659.651 725.623H644.146ZM625.983 657.015L629.97 666.317L612.693 657.015H625.983ZM620.833 651.034L622.162 643.06L636.781 652.363L620.833 651.034ZM645.696 693.063L650.348 703.916L630.192 693.063H645.696ZM624.654 684.923L633.957 674.291L637.944 684.923H624.654ZM640.602 683.594L641.931 675.62L656.55 684.923L640.602 683.594ZM656.55 705.467L650.348 693.063H667.403L656.55 705.467ZM659.208 682.265L647.247 674.291L656.55 672.962L659.208 682.265ZM655.221 668.975L639.273 667.646L648.576 658.343L655.221 668.975ZM635.286 667.646L629.97 657.015H644.589L635.286 667.646ZM639.439 649.705L627.478 641.731L636.781 640.402L639.439 649.705ZM635.452 636.415L619.504 635.086L628.807 625.783L635.452 636.415ZM615.517 635.086L610.201 624.455H624.82L615.517 635.086ZM597.576 617.311L598.905 609.337L613.524 618.64L597.576 617.311ZM610.201 633.757L592.925 624.455H606.215L610.201 633.757ZM616.182 615.982L604.221 608.008L613.524 606.679L616.182 615.982ZM612.195 602.692L596.247 601.363L605.55 592.061L612.195 602.692ZM601.563 590.732L592.26 601.363L586.944 590.732H601.563ZM586.944 600.034L569.668 590.732H582.957L586.944 600.034ZM456.349 570.382L480.377 463.399H517.588L549.393 570.382H456.349ZM538.104 601.197L520.828 591.894H534.118L538.104 601.197ZM507.538 598.872L502.886 604.188L500.228 598.872H507.538ZM500.228 603.523L491.59 598.872H498.235L500.228 603.523ZM442.584 537.24L460.027 526.774L455.375 546.543L442.584 537.24ZM451.887 548.869H423.978L439.095 539.566L451.887 548.869ZM494.689 177.828L489.769 182.748L484.849 177.828H494.689ZM484.849 175.681L489.769 170.761L494.689 175.681H484.849ZM494.689 189.635H484.849L489.769 184.715L494.689 189.635ZM490.753 183.732L495.673 178.812V188.651L490.753 183.732ZM495.494 194.197V205.826L489.68 200.012L495.494 194.197ZM490.753 169.777L495.673 164.857V174.697L490.753 169.777ZM492.005 156.986L495.882 153.11V160.862L492.005 156.986ZM495.106 161.637H487.354L491.23 157.761L495.106 161.637ZM491.23 156.211L487.354 152.334H495.106L491.23 156.211ZM490.455 156.986L486.579 160.862V153.11L490.455 156.986ZM494.689 163.873L489.769 168.793L484.849 163.873H494.689ZM488.785 169.777L483.865 174.697V164.857L488.785 169.777ZM488.785 183.732L483.865 188.651V178.812L488.785 183.732ZM494.331 193.034L488.517 198.849L482.703 193.034H494.331ZM494.331 206.989H482.703L488.517 201.174L494.331 206.989ZM495.494 211.64V223.269L489.68 217.454L495.494 211.64ZM494.331 210.477L488.517 216.292L482.703 210.477H494.331ZM494.331 224.432H482.703L488.517 218.617L494.331 224.432ZM495.226 230.067V244.379L488.07 237.223L495.226 230.067ZM493.794 245.81H479.482L486.638 238.654L493.794 245.81ZM495.226 250.998V265.31L488.07 258.154L495.226 250.998ZM493.794 249.567L486.638 256.723L479.482 249.567H493.794ZM493.794 266.742H479.482L486.638 259.586L493.794 266.742ZM494.913 272.69V290.133L486.191 281.412L494.913 272.69ZM493.168 291.877H475.725L484.447 283.156L493.168 291.877ZM494.913 298.273V315.716L486.191 306.994L494.913 298.273ZM493.168 296.529L484.447 305.25L475.725 296.529H493.168ZM493.168 317.46H475.725L484.447 308.739L493.168 317.46ZM494.599 324.616V345.19L484.313 334.903L494.599 324.616ZM492.542 347.247H471.968L482.255 336.96L492.542 347.247ZM494.331 358.16V381.417L482.703 369.789L494.331 358.16ZM492.005 383.743H468.748L480.377 372.114L492.005 383.743ZM494.152 393.314V418.36L481.629 405.837L494.152 393.314ZM491.648 390.81L479.125 403.333L466.601 390.81H491.648ZM491.648 420.865H466.601L479.125 408.342L491.648 420.865ZM463.515 494.214H440.258L454.212 486.074L463.515 494.214ZM456.538 483.749L471.655 474.446L468.167 495.377L456.538 483.749ZM465.841 500.029L462.353 519.797L453.05 509.332L465.841 500.029ZM460.027 497.703L448.398 507.006L440.258 497.703H460.027ZM458.864 520.96H434.444L447.235 511.657L458.864 520.96ZM466.838 590.732L461.522 601.363L452.219 590.732H466.838ZM470.825 590.732H484.115L466.838 600.034L470.825 590.732ZM558.352 534.576L546.222 544.727L540.238 525.32L558.352 534.576ZM537.444 518.517L532.62 499.031L546.014 507.443L537.444 518.517ZM551.973 509.368L565.367 517.781L541.003 519.44L551.973 509.368ZM550.497 504.807L538.263 496.315L557.986 494.972L550.497 504.807ZM534.545 493.072L543.274 484.319L557.749 491.492L534.545 493.072ZM529.984 494.548L525.081 473.902L540.795 482.156L529.984 494.548ZM501.666 420.865L514.189 408.342L526.712 420.865H501.666ZM499.161 418.36V393.314L511.684 405.837L499.161 418.36ZM501.666 390.81H526.712L514.189 403.333L501.666 390.81ZM501.308 383.743L512.937 372.114L524.565 383.743L501.308 383.743ZM498.983 381.417V358.16L510.611 369.789L498.983 381.417ZM498.714 345.19V324.616L509.001 334.903L498.714 345.19ZM511.058 336.96L521.345 347.247H500.772L511.058 336.96ZM502.561 183.731L497.641 188.651V178.812L502.561 183.731ZM498.625 177.828H508.464L503.545 182.747L498.625 177.828ZM497.82 211.64L503.634 217.454L497.82 223.269V211.64ZM498.983 210.477H510.611L504.797 216.292L498.983 210.477ZM498.088 250.998L505.244 258.154L498.088 265.31V250.998ZM499.519 249.567H513.831L506.675 256.723L499.519 249.567ZM498.401 298.273L507.123 306.994L498.401 315.716V298.273ZM500.145 296.529H517.588L508.867 305.25L500.145 296.529ZM508.867 308.739L517.588 317.46H500.145L508.867 308.739ZM510.611 306.994L519.333 298.273V315.716L510.611 306.994ZM500.145 291.877L508.867 283.156L517.588 291.877H500.145ZM498.401 290.133V272.69L507.123 281.412L498.401 290.133ZM506.675 259.586L513.831 266.742H499.519L506.675 259.586ZM508.106 258.154L515.263 250.998V265.31L508.106 258.154ZM499.519 245.81L506.675 238.654L513.831 245.81H499.519ZM498.088 244.379V230.067L505.244 237.223L498.088 244.379ZM504.797 218.617L510.611 224.432H498.983L504.797 218.617ZM505.96 217.454L511.774 211.64V223.269L505.96 217.454ZM498.983 206.989L504.797 201.174L510.611 206.989H498.983ZM497.82 205.826V194.197L503.634 200.011L497.82 205.826ZM503.545 184.715L508.464 189.635H498.625L503.545 184.715ZM504.528 183.732L509.448 178.812V188.651L504.528 183.732ZM498.625 175.681L503.545 170.761L508.464 175.681H498.625ZM497.641 174.697V164.857L502.561 169.777L497.641 174.697ZM502.859 156.986L506.735 153.11V160.862L502.859 156.986ZM505.96 161.637H498.207L502.084 157.761L505.96 161.637ZM502.084 156.211L498.207 152.334H505.96L502.084 156.211ZM501.308 156.986L497.432 160.862V153.11L501.308 156.986ZM552.723 591.894L543.42 602.526L538.104 591.894H552.723ZM549.86 546.81L561.99 536.659L577.705 544.914L549.86 546.81ZM579.788 541.275L563.995 531.861L572.802 524.268L579.788 541.275ZM560.356 529.777L545.881 522.604L569.084 521.024L560.356 529.777ZM567.45 514.142L554.135 506.89L561.624 497.056L567.45 514.142ZM558.672 487.932L545.357 480.68L552.925 472.006L558.672 487.932ZM551.607 469.765L542.958 479.678L527.243 471.424L551.607 469.765ZM529.217 418.36L516.694 405.837L529.217 393.314V418.36ZM526.891 381.417L515.263 369.789L526.891 358.16V381.417ZM512.937 367.463L501.308 355.834H524.565L512.937 367.463ZM523.403 345.19L513.116 334.903L523.403 324.616V345.19ZM511.058 332.846L500.772 322.559H521.345L511.058 332.846ZM519.333 290.133L510.611 281.412L519.333 272.69V290.133ZM508.867 279.667L500.145 270.946H517.588L508.867 279.667ZM515.263 244.379L508.106 237.223L515.263 230.067V244.379ZM506.675 235.792L499.519 228.636H513.831L506.675 235.792ZM511.774 205.826L505.96 200.012L511.774 194.197V205.826ZM504.797 198.849L498.983 193.034H510.611L504.797 198.849ZM509.448 174.697L504.528 169.777L509.448 164.857V174.697ZM503.545 168.793L498.625 163.873H508.464L503.545 168.793ZM481.54 194.197L487.354 200.012L481.54 205.826V194.197ZM481.54 211.64L487.354 217.454L481.54 223.269V211.64ZM493.794 228.636L486.638 235.792L479.482 228.636H493.794ZM478.051 230.067L485.207 237.223L478.051 244.379V230.067ZM478.051 250.998L485.207 258.154L478.051 265.31V250.998ZM493.168 270.946L484.447 279.667L475.725 270.946H493.168ZM473.981 272.69L482.703 281.412L473.981 290.133V272.69ZM473.981 298.273L482.703 306.994L473.981 315.716V298.273ZM492.542 322.559L482.255 332.846L471.968 322.559H492.542ZM469.911 324.616L480.198 334.903L469.911 345.19V324.616ZM492.005 355.834L480.377 367.463L468.748 355.834H492.005ZM466.423 358.16L478.051 369.789L466.423 381.417V358.16ZM464.097 393.314L476.62 405.837L464.097 418.36V393.314ZM469.33 472.12L454.212 481.423L444.91 472.12L469.33 472.12ZM443.747 474.446L451.887 482.586L439.095 490.726L443.747 474.446ZM436.77 500.029L444.91 509.332L432.118 517.472L436.77 500.029ZM454.213 524.449L440.258 532.589L430.955 524.449H454.213ZM427.467 527.937L436.77 534.914L421.653 545.38L427.467 527.937ZM434.112 590.732L416.835 600.034L420.822 590.732H434.112ZM416.835 590.732L411.519 601.363L402.216 590.732H416.835ZM398.229 592.061L407.532 601.363L391.584 602.692L398.229 592.061ZM413.18 624.454L395.904 633.757L399.891 624.454H413.18ZM390.255 618.64L404.874 609.337L406.203 617.311L390.255 618.64ZM390.255 606.679L399.558 608.008L387.597 615.982L390.255 606.679ZM395.904 624.454L390.588 635.086L381.285 624.454H395.904ZM377.298 625.783L386.601 635.086L370.653 636.415L377.298 625.783ZM375.913 693.063L355.757 703.916L360.409 693.063H375.913ZM349.555 684.923L364.174 675.62L365.503 683.594L349.555 684.923ZM368.161 684.923L372.148 674.291L381.451 684.923H368.161ZM393.412 657.015L376.135 666.317L380.122 657.015H393.412ZM369.324 652.363L383.943 643.06L385.272 651.034L369.324 652.363ZM369.324 640.402L378.627 641.731L366.666 649.705L369.324 640.402ZM376.135 657.015L370.819 667.646L361.516 657.015H376.135ZM357.529 658.343L366.832 667.646L350.884 668.975L357.529 658.343ZM349.555 672.962L358.858 674.291L346.897 682.265L349.555 672.962ZM355.757 693.063L349.555 705.467L338.702 693.063H355.757ZM324.748 711.669L335.601 713.219L321.647 722.522L324.748 711.669ZM324.748 725.623L341.803 714.77L343.353 724.073L324.748 725.623ZM326.298 707.017L334.051 694.614L344.904 705.467L326.298 707.017ZM346.454 725.623L351.106 713.219L361.959 725.623H346.454ZM368.161 724.073L357.308 711.669L375.913 710.118L368.161 724.073ZM377.464 705.467H360.409L382.115 694.614L377.464 705.467ZM386.767 683.594L377.464 672.962L393.412 671.633L386.767 683.594ZM394.741 667.646H380.122L398.728 658.343L394.741 667.646ZM387.93 652.363L391.917 641.731L401.22 652.363H387.93ZM406.535 651.034L397.233 640.402L413.18 639.073L406.535 651.034ZM414.509 635.086H399.89L418.496 625.783L414.509 635.086ZM408.861 618.64L412.848 608.008L422.151 618.64H408.861ZM427.467 617.311L418.164 606.679L434.112 605.35L427.467 617.311ZM420.822 601.363L439.428 592.061L435.441 601.363H420.822ZM440.258 606.679L449.561 608.008L437.6 615.982L440.258 606.679ZM440.258 618.64L454.877 609.337L456.206 617.311L440.258 618.64ZM441.587 602.692L448.232 592.061L457.535 601.363L441.587 602.692ZM458.864 618.64L462.851 608.008L472.154 618.64H458.864ZM477.47 617.311L468.167 606.679L484.115 605.35L477.47 617.311ZM470.825 601.363L489.43 592.061L485.443 601.363H470.825ZM488.932 599.536L498.235 604.188H490.926L488.932 599.536ZM491.59 606.181L499.564 606.846L494.913 612.161L491.59 606.181ZM497.571 612.826L502.222 607.51L504.215 612.826H497.571ZM509.531 599.536L512.854 604.852L504.88 604.188L509.531 599.536ZM505.544 612.161L506.209 608.174L513.518 612.826L505.544 612.161ZM508.867 607.51L513.518 606.846L514.847 611.497L508.867 607.51ZM515.512 593.223L534.118 602.526H519.499L515.512 593.223ZM520.828 606.513L536.775 607.842L527.473 618.474L520.828 606.513ZM532.788 619.803L542.091 609.171L546.078 619.803H532.788ZM556.71 593.223L563.355 603.855L547.407 602.526L556.71 593.223ZM548.736 618.474L550.065 610.5L564.684 619.803L548.736 618.474ZM555.381 609.171L564.684 607.842L567.342 617.145L555.381 609.171ZM564.352 592.061L582.957 601.363H568.339L564.352 592.061ZM569.668 605.35L585.615 606.679L576.313 617.311L569.668 605.35ZM590.931 608.008L594.918 618.64H581.628L590.931 608.008ZM591.596 635.086L587.609 625.784L606.215 635.086H591.596ZM592.925 639.073L608.873 640.402L599.57 651.034L592.925 639.073ZM614.189 641.731L618.176 652.363H604.886L614.189 641.731ZM607.378 658.344L625.983 667.646H611.364L607.378 658.344ZM612.693 671.633L628.641 672.962L619.338 683.594L612.693 671.633ZM623.99 694.614L645.696 705.467H628.641L623.99 694.614ZM630.192 710.118L648.797 711.669L637.944 724.073L630.192 710.118Z" fill="#212121"/>
<path opacity="0.1" d="M489.098 94.1915H473.981V101.169H489.098V94.1915Z" fill="black"/>
<path opacity="0.1" d="M513.518 94.1915H498.401V101.169H513.518V94.1915Z" fill="black"/>
<path d="M682.673 655.955C685.279 657.958 696.474 659.054 696.474 659.054C696.474 659.054 692.547 648.519 689.936 646.51C689.325 645.949 688.605 645.522 687.82 645.255C687.036 644.988 686.204 644.887 685.378 644.959C684.553 645.031 683.751 645.274 683.024 645.673C682.298 646.072 681.662 646.617 681.158 647.275C680.654 647.933 680.292 648.688 680.096 649.494C679.9 650.299 679.873 651.136 680.018 651.952C680.163 652.768 680.477 653.545 680.939 654.234C681.4 654.922 682 655.506 682.701 655.95L682.673 655.955Z" fill="#6C63FF"/>
<path opacity="0.1" d="M682.673 655.955C685.279 657.958 696.474 659.054 696.474 659.054C696.474 659.054 692.547 648.519 689.936 646.51C689.325 645.949 688.605 645.522 687.82 645.255C687.036 644.988 686.204 644.887 685.378 644.959C684.553 645.031 683.751 645.274 683.024 645.673C682.298 646.072 681.662 646.617 681.158 647.275C680.654 647.933 680.292 648.688 680.096 649.494C679.9 650.299 679.873 651.136 680.018 651.952C680.163 652.768 680.477 653.545 680.939 654.234C681.4 654.922 682 655.506 682.701 655.95L682.673 655.955Z" fill="#6C63FF"/>
<path d="M748.24 667.879C745.276 669.305 734.122 668.069 734.122 668.069C734.122 668.069 740.136 658.568 743.1 657.142C743.812 656.733 744.601 656.474 745.417 656.384C746.233 656.293 747.059 656.371 747.843 656.614C748.627 656.857 749.353 657.259 749.975 657.795C750.597 658.331 751.101 658.99 751.457 659.73C751.813 660.47 752.012 661.275 752.043 662.096C752.073 662.916 751.934 663.734 751.635 664.498C751.335 665.263 750.88 665.957 750.3 666.538C749.72 667.119 749.026 667.573 748.262 667.874L748.24 667.879Z" fill="#6C63FF"/>
<path d="M742.167 691.277C739.488 693.181 728.259 693.854 728.259 693.854C728.259 693.854 732.581 683.474 735.266 681.565C736.555 680.815 738.078 680.574 739.536 680.89C740.993 681.207 742.28 682.057 743.142 683.274C744.004 684.491 744.379 685.987 744.194 687.467C744.008 688.947 743.276 690.304 742.14 691.271L742.167 691.277Z" fill="#6C63FF"/>
<path d="M717.877 671.886C720.785 673.423 731.978 672.608 731.978 672.608C731.978 672.608 726.326 662.887 723.418 661.35C722.037 660.746 720.478 660.687 719.055 661.184C717.632 661.681 716.45 662.699 715.746 664.032C715.042 665.365 714.868 666.915 715.259 668.37C715.651 669.826 716.578 671.08 717.856 671.88L717.877 671.886Z" fill="#6C63FF"/>
<path d="M714.969 699.45C717.575 701.454 728.77 702.549 728.77 702.549C728.77 702.549 724.842 692.014 722.231 690.005C721.621 689.445 720.9 689.017 720.116 688.75C719.331 688.483 718.499 688.382 717.674 688.454C716.848 688.526 716.046 688.769 715.32 689.168C714.593 689.567 713.957 690.112 713.453 690.77C712.949 691.428 712.587 692.184 712.391 692.989C712.195 693.794 712.169 694.632 712.314 695.448C712.459 696.264 712.772 697.04 713.234 697.729C713.696 698.417 714.296 699.002 714.996 699.445L714.969 699.45Z" fill="#6C63FF"/>
<path opacity="0.1" d="M748.24 667.879C745.276 669.305 734.122 668.069 734.122 668.069C734.122 668.069 740.136 658.568 743.1 657.142C743.812 656.733 744.601 656.474 745.417 656.384C746.233 656.293 747.059 656.371 747.843 656.614C748.627 656.857 749.353 657.259 749.975 657.795C750.597 658.331 751.101 658.99 751.457 659.73C751.813 660.47 752.012 661.275 752.043 662.096C752.073 662.916 751.934 663.734 751.635 664.498C751.335 665.263 750.88 665.957 750.3 666.538C749.72 667.119 749.026 667.573 748.262 667.874L748.24 667.879Z" fill="#6C63FF"/>
<path opacity="0.1" d="M742.167 691.277C739.488 693.181 728.259 693.854 728.259 693.854C728.259 693.854 732.581 683.474 735.266 681.565C736.555 680.815 738.078 680.574 739.536 680.89C740.993 681.207 742.28 682.057 743.142 683.274C744.004 684.491 744.379 685.987 744.194 687.467C744.008 688.947 743.276 690.304 742.14 691.271L742.167 691.277Z" fill="#6C63FF"/>
<path opacity="0.1" d="M717.877 671.886C720.785 673.423 731.978 672.608 731.978 672.608C731.978 672.608 726.326 662.887 723.418 661.35C722.037 660.746 720.478 660.687 719.055 661.184C717.632 661.681 716.45 662.699 715.746 664.032C715.042 665.365 714.868 666.915 715.259 668.37C715.651 669.826 716.578 671.08 717.856 671.88L717.877 671.886Z" fill="#6C63FF"/>
<path opacity="0.1" d="M714.969 699.45C717.575 701.454 728.77 702.549 728.77 702.549C728.77 702.549 724.842 692.014 722.231 690.005C721.621 689.445 720.9 689.017 720.116 688.75C719.331 688.483 718.499 688.382 717.674 688.454C716.848 688.526 716.046 688.769 715.32 689.168C714.593 689.567 713.957 690.112 713.453 690.77C712.949 691.428 712.587 692.184 712.391 692.989C712.195 693.794 712.169 694.632 712.314 695.448C712.459 696.264 712.772 697.04 713.234 697.729C713.696 698.417 714.296 699.002 714.996 699.445L714.969 699.45Z" fill="#6C63FF"/>
<path d="M751.924 667.349L590.804 664.312L589.579 729.309L750.699 732.345L751.924 667.349Z" fill="#6F7D95"/>
<path d="M550.411 633.104L572.329 684.802L617.7 682.91L619.925 661.888L621.764 637.195L557.771 631.408L550.411 633.104Z" fill="#4B5C7A"/>
<path d="M550.411 633.098C550.411 633.098 559.249 625.023 569.827 623.388C580.406 621.752 615.568 626.079 615.568 626.079L620.44 634.857L619.418 638.974L550.411 633.098Z" fill="#0F4C81"/>
<path d="M636.194 661.047L473.701 657.984L472.804 705.588L635.297 708.65L636.194 661.047Z" fill="#4B5C7A"/>
<path d="M595.606 692.68C600.169 678.407 591.789 668.814 591.789 668.814L577.79 658.648C577.777 658.681 577.762 658.714 577.744 658.745C575.94 656.548 574.668 653.964 574.027 651.194C573.987 651.02 573.952 650.84 573.912 650.649C575.227 649.71 576.385 648.568 577.342 647.266C579.68 645.894 580.754 643.634 581.188 641.367C582.717 639.188 583.946 636.814 584.844 634.308C584.992 633.903 585.12 633.491 585.226 633.072C585.514 632.296 585.651 631.471 585.63 630.643C585.532 629.719 585.242 628.826 584.778 628.021C582.472 623.634 578.231 620.531 573.92 617.985C572.414 617.041 570.806 616.271 569.126 615.69C567.083 615.059 564.921 614.915 562.812 615.27C560.703 615.624 558.707 616.467 556.982 617.731C556.142 618.311 555.452 619.084 554.969 619.984C554.781 620.393 554.639 620.822 554.543 621.262C554.318 622.012 554.132 622.773 553.984 623.543C553.859 623.909 553.681 624.255 553.455 624.57C552.859 625.373 551.859 625.967 551.71 626.958C551.706 627.016 551.705 627.074 551.707 627.132C551.599 627.318 551.525 627.523 551.489 627.735C551.441 628.174 551.527 628.617 551.737 629.005C551.768 629.071 551.805 629.131 551.842 629.192C551.112 630.206 550.512 631.307 550.054 632.469C549.853 632.573 549.659 632.689 549.472 632.817L549.312 632.928L549.306 633.253L549.213 633.322L548.913 638.577L549.02 638.666C549.134 641.121 549.828 643.515 551.046 645.651C552.263 647.787 553.969 649.603 556.025 650.952C556.089 651.29 556.147 651.633 556.2 651.993C556.492 653.892 556.587 655.817 556.483 657.736C556.465 657.57 556.468 657.402 556.492 657.237C552.602 655.388 543.952 660.133 540.465 662.239C539.938 662.476 539.445 662.783 538.998 663.15L538.938 663.192C536.53 665.069 531.746 670.32 527.77 683.975C522.254 703.029 522.709 707.38 518.87 711.748C515.031 716.117 510.714 747.321 510.714 747.321L518.235 749.498L519.259 746.412C528.092 754.776 553.181 759.196 553.181 759.196L553.997 756.817C557.829 758.279 564.321 756.289 564.321 756.289C573.816 753.135 577.508 744.747 584.561 733.724C591.615 722.701 595.606 692.68 595.606 692.68ZM556.477 749.665L574.915 695.959C576.336 704.379 569.119 717.462 568.338 726.089C567.848 731.639 561.171 742.561 556.477 749.665Z" fill="url(#paint0_linear)"/>
<path d="M580.431 635.517C580.431 635.517 583.246 647.127 574.205 648.971C565.165 650.815 571.232 643.72 571.232 643.72L580.074 635.423L580.431 635.517Z" fill="#472727"/>
<path d="M542.271 662.344C542.271 662.344 535.523 664.932 530.257 683.116C524.99 701.301 525.401 705.434 521.777 709.616C518.154 713.799 513.961 743.545 513.961 743.545L521.013 745.589L527.558 725.778L545.52 673.458L542.271 662.344Z" fill="#DDE0E4"/>
<path opacity="0.05" d="M542.271 662.344C542.271 662.344 535.523 664.932 530.257 683.116C524.99 701.301 525.401 705.434 521.777 709.616C518.154 713.799 513.961 743.545 513.961 743.545L521.013 745.589L527.558 725.778L545.52 673.458L542.271 662.344Z" fill="black"/>
<path d="M579.492 660.98C579.492 660.98 551.189 674.703 555.467 665.484C557.583 660.931 557.597 656.17 557.075 652.485C556.778 650.315 556.226 648.187 555.43 646.146C555.43 646.146 574.773 631.43 573.423 643.717C573.105 646.361 573.238 649.04 573.816 651.639C575.343 658.199 579.492 660.98 579.492 660.98Z" fill="#FFE2C9"/>
<path opacity="0.1" d="M573.817 651.659C571.987 653.073 569.849 654.033 567.576 654.462C565.303 654.891 562.962 654.776 560.742 654.127C559.444 653.751 558.203 653.2 557.054 652.488C556.758 650.318 556.205 648.19 555.409 646.149C555.409 646.149 574.752 631.433 573.402 643.72C573.09 646.37 573.23 649.055 573.817 651.659Z" fill="black"/>
<path d="M579.159 643.387C581.413 635.602 576.929 627.462 569.144 625.208C561.358 622.953 553.219 627.437 550.964 635.223C548.71 643.009 553.193 651.148 560.979 653.403C568.765 655.657 576.904 651.173 579.159 643.387Z" fill="#FFE2C9"/>
<path opacity="0.1" d="M557.826 632.014C557.418 632.253 556.967 632.406 556.499 632.466C556.031 632.525 555.556 632.49 555.102 632.361C554.648 632.232 554.225 632.013 553.858 631.717C553.491 631.42 553.187 631.053 552.966 630.636C552.771 630.264 552.692 629.843 552.739 629.427C552.881 628.485 553.826 627.916 554.41 627.145C555.319 625.898 555.183 624.163 555.85 622.77C556.307 621.92 556.957 621.188 557.747 620.634C559.356 619.424 561.229 618.612 563.212 618.265C565.195 617.917 567.233 618.044 569.158 618.634C570.731 619.181 572.237 619.907 573.644 620.798C577.681 623.203 581.649 626.128 583.78 630.31C584.213 631.078 584.481 631.928 584.569 632.806C584.575 633.752 584.391 634.69 584.028 635.564C583.166 637.981 581.985 640.272 580.518 642.376C580.051 641.774 579.461 641.28 578.786 640.927C578.445 640.758 578.06 640.7 577.685 640.762C577.309 640.824 576.963 641.003 576.695 641.273C576.211 641.866 575.902 643.011 575.191 642.726C574.727 642.544 574.745 641.898 574.776 641.399C574.915 639.231 573.77 637.162 572.208 635.667C570.645 634.172 568.694 633.169 566.769 632.183C565.387 631.473 563.555 629.869 562.03 629.564C560.137 629.175 559.203 631.199 557.826 632.014Z" fill="black"/>
<path d="M558.039 631.276C557.632 631.514 557.181 631.668 556.713 631.727C556.245 631.787 555.77 631.751 555.316 631.623C554.862 631.494 554.439 631.275 554.071 630.978C553.704 630.682 553.401 630.314 553.18 629.898C552.985 629.526 552.906 629.105 552.953 628.688C553.095 627.746 554.04 627.178 554.624 626.407C555.533 625.159 555.397 623.425 556.064 622.032C556.521 621.182 557.17 620.45 557.961 619.896C559.57 618.686 561.443 617.874 563.426 617.526C565.409 617.179 567.447 617.306 569.371 617.896C570.945 618.442 572.451 619.169 573.858 620.06C577.895 622.465 581.863 625.39 583.993 629.572C584.427 630.34 584.695 631.19 584.782 632.068C584.789 633.014 584.605 633.952 584.242 634.826C583.38 637.243 582.199 639.534 580.731 641.638C580.265 641.036 579.675 640.542 579 640.188C578.659 640.019 578.274 639.962 577.898 640.024C577.523 640.086 577.177 640.265 576.909 640.535C576.425 641.128 576.116 642.273 575.405 641.988C574.941 641.806 574.959 641.16 574.99 640.661C575.129 638.492 573.984 636.424 572.422 634.929C570.859 633.434 568.908 632.431 566.983 631.444C565.601 630.734 563.769 629.131 562.244 628.825C560.351 628.431 559.417 630.46 558.039 631.276Z" fill="#472727"/>
<path d="M565.135 662.653C565.135 662.653 576.786 660.597 577.326 658.746L590.423 668.368C590.423 668.368 598.242 677.467 593.898 691.087C593.898 691.087 590.03 719.727 583.361 730.257C576.691 740.788 572.714 754.518 563.791 757.575C563.791 757.575 555.375 751.922 552.563 751.935C552.563 751.935 567.386 731.297 568.16 723.076C568.934 714.856 575.765 702.357 574.472 694.342L553.792 754.699C553.792 754.699 522.409 749.222 519.415 738.715C519.415 738.715 522.205 734.691 521.778 730.552C521.351 726.412 534.315 695.578 534.315 695.578L540.851 663.292C540.851 663.292 552.728 655.323 557.354 657.539C557.333 657.506 556.411 661.533 565.135 662.653Z" fill="#DDE0E4"/>
<g opacity="0.1">
<path opacity="0.1" d="M569.838 637.545C567.047 633.584 561.522 636.688 560.616 637.23L559.213 637.063C558.012 635.705 554.318 632.085 550.736 634.629L550.582 634.74L550.276 639.745L550.425 639.867C551.431 640.674 552.577 641.288 553.806 641.679C554.584 641.923 555.409 641.98 556.213 641.843C556.808 641.718 557.369 641.463 557.855 641.097C558.342 640.731 558.742 640.262 559.027 639.725L559.759 639.788L560.303 639.695C560.401 640.274 560.621 640.825 560.949 641.313C561.277 641.8 561.705 642.212 562.204 642.521C564.604 643.94 568.174 642.633 568.321 642.609L568.507 642.542L569.9 637.72L569.838 637.545ZM567.916 641.917C567.189 642.148 564.45 642.9 562.641 641.818C562.191 641.524 561.815 641.13 561.541 640.668C561.267 640.205 561.104 639.686 561.063 639.15L561.005 638.752L559.812 638.974L558.619 638.908L558.501 639.134C558.273 639.623 557.937 640.053 557.518 640.392C557.098 640.73 556.606 640.968 556.081 641.086C554.026 641.487 551.69 639.858 551.08 639.396L551.339 635.166C554.449 633.157 557.773 636.574 558.729 637.689L558.83 637.805L560.807 638.038L560.928 637.958C560.983 637.927 565.967 634.715 568.722 637.427C568.859 637.558 568.985 637.7 569.1 637.852L567.916 641.917Z" fill="black"/>
<path opacity="0.1" d="M578.681 640.233L569.47 639.294L568.713 639.133L569.079 637.859C568.964 637.707 568.838 637.565 568.701 637.434L569.817 637.563L577.352 638.444L578.681 640.233Z" fill="black"/>
</g>
<path d="M569.942 637.194C567.15 633.233 561.625 636.337 560.719 636.879L559.316 636.711C558.115 635.353 554.421 631.733 550.839 634.277L550.685 634.388L550.379 639.393L550.529 639.515C551.534 640.322 552.68 640.936 553.909 641.327C554.687 641.572 555.512 641.628 556.316 641.492C556.912 641.366 557.473 641.111 557.959 640.745C558.445 640.379 558.845 639.911 559.13 639.373L559.862 639.436L560.407 639.343C560.504 639.922 560.725 640.474 561.052 640.961C561.38 641.449 561.808 641.86 562.308 642.169C564.708 643.588 568.277 642.282 568.424 642.257L568.61 642.19L570.004 637.369L569.942 637.194ZM568.019 641.566C567.293 641.796 564.554 642.548 562.744 641.466C562.294 641.172 561.918 640.779 561.644 640.316C561.371 639.854 561.207 639.334 561.166 638.798L561.108 638.401L559.915 638.623L558.739 638.525L558.621 638.75C558.398 639.242 558.064 639.676 557.646 640.018C557.228 640.36 556.738 640.602 556.211 640.724C554.157 641.125 551.821 639.496 551.211 639.034L551.47 634.805C554.58 632.795 557.903 636.212 558.86 637.327L558.961 637.443L560.938 637.676L561.059 637.596C561.113 637.565 566.098 634.353 568.853 637.065C568.99 637.196 569.116 637.339 569.231 637.49L568.019 641.566Z" fill="#472727"/>
<path d="M578.772 639.881L569.594 638.943L568.837 638.782L569.203 637.508C569.088 637.356 568.962 637.214 568.825 637.082L569.941 637.212L577.476 638.092L578.772 639.881Z" fill="#472727"/>
<path d="M514.654 695.845L353.533 692.809L352.308 757.805L513.429 760.841L514.654 695.845Z" fill="#6F7D95"/>
<path d="M425.245 801.763C450.076 802.231 470.621 780.581 471.133 753.406C471.645 726.231 451.93 703.822 427.099 703.354C402.268 702.886 381.723 724.536 381.211 751.711C380.699 778.886 400.414 801.295 425.245 801.763Z" fill="#4B5C7A"/>
<path opacity="0.05" d="M425.245 801.763C450.076 802.231 470.621 780.581 471.133 753.406C471.645 726.231 451.93 703.822 427.099 703.354C402.268 702.886 381.723 724.536 381.211 751.711C380.699 778.886 400.414 801.295 425.245 801.763Z" fill="black"/>
<path d="M435.236 801.951C460.067 802.419 480.612 780.769 481.124 753.594C481.636 726.419 461.922 704.011 437.091 703.543C412.26 703.075 391.715 724.725 391.203 751.9C390.691 779.074 410.405 801.483 435.236 801.951Z" fill="#4B5C7A"/>
<path opacity="0.05" d="M434.782 772.956C445.817 773.164 454.932 764.387 455.14 753.351C455.348 742.316 446.57 733.202 435.535 732.994C424.5 732.786 415.385 741.563 415.177 752.598C414.969 763.634 423.746 772.748 434.782 772.956Z" fill="black"/>
<path d="M435.046 758.97C438.358 759.032 441.093 756.398 441.156 753.086C441.218 749.774 438.584 747.039 435.272 746.977C431.96 746.914 429.225 749.548 429.162 752.86C429.1 756.172 431.734 758.907 435.046 758.97Z" stroke="#6F7D95" stroke-width="2" stroke-miterlimit="10"/>
<path d="M435.33 743.984C436.157 744 436.84 743.342 436.856 742.515C436.871 741.687 436.214 741.004 435.386 740.989C434.559 740.973 433.876 741.631 433.86 742.458C433.845 743.285 434.503 743.969 435.33 743.984Z" fill="#6F7D95"/>
<path d="M444.44 746.698C445.084 746.179 445.185 745.236 444.665 744.592C444.145 743.948 443.202 743.848 442.558 744.367C441.914 744.887 441.814 745.83 442.334 746.474C442.853 747.118 443.797 747.218 444.44 746.698Z" fill="#6F7D95"/>
<path d="M447.88 754.016C448.039 753.204 447.509 752.417 446.697 752.258C445.885 752.099 445.098 752.628 444.939 753.44C444.78 754.252 445.31 755.039 446.121 755.198C446.933 755.357 447.721 754.828 447.88 754.016Z" fill="#6F7D95"/>
<path d="M442.707 762.539C443.432 762.139 443.694 761.227 443.294 760.503C442.894 759.779 441.983 759.516 441.259 759.916C440.534 760.316 440.272 761.228 440.672 761.952C441.072 762.676 441.983 762.939 442.707 762.539Z" fill="#6F7D95"/>
<path d="M434.809 763.199C435.107 762.427 434.722 761.56 433.95 761.263C433.178 760.965 432.311 761.35 432.013 762.122C431.716 762.894 432.1 763.761 432.872 764.058C433.644 764.356 434.511 763.971 434.809 763.199Z" fill="#6F7D95"/>
<path d="M427.282 758.434C428.065 758.166 428.482 757.314 428.213 756.532C427.945 755.749 427.093 755.332 426.311 755.6C425.528 755.868 425.111 756.72 425.379 757.503C425.647 758.286 426.499 758.703 427.282 758.434Z" fill="#6F7D95"/>
<path d="M428.156 749.088C428.583 748.38 428.355 747.459 427.646 747.032C426.937 746.605 426.017 746.833 425.59 747.542C425.163 748.25 425.391 749.171 426.099 749.598C426.808 750.025 427.729 749.797 428.156 749.088Z" fill="#6F7D95"/>
<path d="M759.94 720.805C758.205 731.38 753.715 742.907 753.715 742.907C753.758 742.184 753.789 741.47 753.81 740.765C753.827 739.853 753.844 738.952 753.861 738.051C753.869 708.813 738.281 690.479 728.171 681.652C725.544 679.326 722.711 677.245 719.706 675.434L747.626 675.96C747.626 675.96 758.187 698.596 760.271 709.623C760.874 712.718 760.615 716.692 759.94 720.805Z" fill="#0F4C81"/>
<path opacity="0.05" d="M759.94 720.805C758.205 731.38 753.715 742.907 753.715 742.907C753.758 742.184 753.789 741.47 753.81 740.765C753.827 739.853 753.844 738.952 753.861 738.051C753.869 708.813 738.281 690.479 728.171 681.652C725.544 679.326 722.711 677.245 719.706 675.434L747.626 675.96C747.626 675.96 758.187 698.596 760.271 709.623C760.874 712.718 760.615 716.692 759.94 720.805Z" fill="black"/>
<path d="M711.612 758.283C730.496 758.639 746.121 742.173 746.511 721.505C746.9 700.837 731.907 683.793 713.022 683.437C694.137 683.081 678.512 699.548 678.123 720.216C677.733 740.884 692.727 757.927 711.612 758.283Z" fill="#4B5C7A"/>
<path opacity="0.05" d="M711.612 758.283C730.496 758.639 746.121 742.173 746.511 721.505C746.9 700.837 731.907 683.793 713.022 683.437C694.137 683.081 678.512 699.548 678.123 720.216C677.733 740.884 692.727 757.927 711.612 758.283Z" fill="black"/>
<path d="M719.209 758.428C738.094 758.784 753.719 742.317 754.108 721.649C754.498 700.981 739.505 683.938 720.62 683.582C701.735 683.226 686.11 699.692 685.721 720.36C685.331 741.028 700.324 758.072 719.209 758.428Z" fill="#4B5C7A"/>
<path opacity="0.05" d="M718.867 736.376C727.259 736.534 734.19 729.859 734.348 721.467C734.506 713.075 727.831 706.144 719.44 705.986C711.048 705.828 704.116 712.503 703.958 720.894C703.8 729.286 710.475 736.218 718.867 736.376Z" fill="black"/>
<path d="M719.065 725.735C721.583 725.782 723.662 723.78 723.71 721.262C723.757 718.744 721.755 716.665 719.237 716.618C716.719 716.57 714.64 718.573 714.593 721.09C714.545 723.608 716.548 725.687 719.065 725.735Z" stroke="#6F7D95" stroke-width="2" stroke-miterlimit="10"/>
<path d="M719.28 714.344C719.91 714.356 720.429 713.855 720.441 713.226C720.453 712.596 719.953 712.076 719.323 712.064C718.694 712.053 718.174 712.553 718.162 713.183C718.15 713.812 718.651 714.332 719.28 714.344Z" fill="#6F7D95"/>
<path d="M726.214 716.405C726.704 716.01 726.781 715.292 726.385 714.802C725.99 714.313 725.272 714.236 724.782 714.632C724.293 715.027 724.216 715.745 724.612 716.234C725.007 716.724 725.725 716.801 726.214 716.405Z" fill="#6F7D95"/>
<path d="M728.825 721.976C728.946 721.358 728.544 720.759 727.926 720.638C727.308 720.517 726.709 720.92 726.588 721.538C726.467 722.155 726.87 722.754 727.488 722.875C728.105 722.996 728.704 722.594 728.825 721.976Z" fill="#6F7D95"/>
<path d="M724.899 728.456C725.45 728.151 725.65 727.458 725.345 726.907C725.041 726.356 724.347 726.156 723.796 726.461C723.245 726.765 723.046 727.458 723.35 728.009C723.654 728.56 724.348 728.76 724.899 728.456Z" fill="#6F7D95"/>
<path d="M718.888 728.959C719.114 728.372 718.821 727.712 718.234 727.486C717.647 727.26 716.987 727.552 716.761 728.14C716.534 728.727 716.827 729.387 717.414 729.613C718.002 729.839 718.661 729.547 718.888 728.959Z" fill="#6F7D95"/>
<path d="M713.162 725.326C713.758 725.122 714.075 724.474 713.871 723.878C713.667 723.283 713.018 722.965 712.423 723.169C711.827 723.374 711.51 724.022 711.714 724.617C711.918 725.213 712.567 725.53 713.162 725.326Z" fill="#6F7D95"/>
<path d="M713.832 718.22C714.157 717.681 713.983 716.981 713.444 716.656C712.905 716.331 712.204 716.504 711.879 717.043C711.554 717.582 711.728 718.283 712.267 718.608C712.806 718.933 713.507 718.759 713.832 718.22Z" fill="#6F7D95"/>
<path d="M244.091 754.164L240.568 721.585L289.545 722.508L314.297 745.411L301.396 774.016C301.396 774.016 251.696 764.839 244.091 754.164Z" fill="#0F4C81"/>
<path opacity="0.05" d="M314.313 745.411L301.413 774.016C301.413 774.016 251.696 764.838 244.091 754.163L243.938 752.743L240.706 722.618L240.674 722.319L240.595 721.59L289.572 722.513L314.313 745.411Z" fill="black"/>
<path d="M519.393 627.019L519.195 637.547C519.195 637.547 493.496 657.691 487.105 677.033C485.994 680.172 485.534 683.505 485.754 686.828C487.638 708.383 420.179 668.188 420.179 668.188L423.24 666.769C439.061 659.505 511.255 626.453 519.393 627.019Z" fill="#7597CE"/>
<path d="M576.108 678.92C576.108 678.92 600.032 667.721 603.998 659.175C604.53 658.029 605.035 656.871 605.621 655.747C608.06 651.065 613.207 640.071 610.822 634.701C607.75 627.776 618.587 635.765 618.587 635.765L611.565 668.134L595.838 676.523L575.647 678.911" fill="#0F4C81"/>
<path opacity="0.05" d="M576.108 678.92C576.108 678.92 600.032 667.721 603.998 659.175C604.53 658.029 605.035 656.871 605.621 655.747C608.06 651.065 613.207 640.071 610.822 634.701C607.75 627.776 618.587 635.765 618.587 635.765L611.565 668.134L595.838 676.523L575.647 678.911" fill="black"/>
<path opacity="0.05" d="M314.314 745.41L301.414 774.015C301.414 774.015 251.697 764.837 244.092 754.162L243.939 752.743C244.143 752.611 244.357 752.474 244.582 752.342C244.582 752.342 259.46 764.528 293.744 767.926C293.744 767.926 314.676 751.834 281.581 732.899C281.581 732.899 252.477 733.262 240.691 722.623L240.562 722.512L240.658 722.324C240.741 722.169 240.874 721.929 241.057 721.604L289.556 722.518L314.314 745.41Z" fill="black"/>
<path opacity="0.05" d="M485.754 686.825C487.638 708.386 420.179 668.191 420.179 668.191L423.24 666.772C425.208 668.948 433.087 676.311 449.127 675.832C459.447 675.521 475.095 676.278 487.132 677.031C486.012 680.168 485.543 683.501 485.754 686.825Z" fill="black"/>
<path opacity="0.05" d="M514.659 695.845L513.435 760.842L483.501 760.277C485.761 745.196 485.037 723.136 466.075 710.141C459.002 705.325 450.736 702.557 442.19 702.141C433.643 701.725 425.148 703.678 417.641 707.784C404.921 714.732 390.574 729.076 381.076 758.347L352.314 757.805L353.539 692.809L514.659 695.845Z" fill="black"/>
<path opacity="0.05" d="M759.94 720.805C758.676 727.958 756.733 734.892 753.815 740.776C753.438 741.568 753.029 742.341 752.588 743.092C752.663 742.828 753.214 740.981 753.866 738.073C757.043 723.91 762.76 684.66 729.461 681.785C729.027 681.749 728.599 681.714 728.171 681.69C725.545 679.351 722.712 677.257 719.706 675.434L747.626 675.96C747.626 675.96 758.187 698.596 760.271 709.623C760.874 712.718 760.615 716.692 759.94 720.805Z" fill="black"/>
<path d="M753.502 742.665C753.966 741.105 770.498 684.828 730.375 681.362C689.688 677.849 684.074 708.42 678.714 749.99C678.714 749.99 549.919 757.177 480.413 776.018C480.413 776.018 497.865 730.855 467.006 709.699C459.933 704.883 451.667 702.115 443.121 701.699C434.574 701.283 426.079 703.236 418.572 707.342C402.994 715.854 384.965 735.481 376.401 780.008L299.493 778.559C299.493 778.559 284.823 779.2 279.922 772.218C279.922 772.218 259.292 772.286 246.708 761.061C246.708 761.061 233.03 758.056 244.143 751.398C244.143 751.398 259.483 763.593 293.761 766.991C293.761 766.991 314.693 750.898 281.598 731.964C281.598 731.964 252.277 732.329 240.585 721.577C240.585 721.577 244.921 713.021 254.642 702.754C267.938 688.671 284.736 678.371 303.319 672.907C315.838 669.294 328.848 667.667 341.872 668.086L422.707 667.09C422.707 667.09 430.321 677.309 449.082 676.745C467.844 676.182 504.442 679.162 504.442 679.162L504.805 679.169L580.258 677.176C582.429 676.911 584.579 676.499 586.693 675.94C597.678 673.178 618.578 664.566 615.313 639.353L733.728 648.913C738.192 649.203 742.619 649.913 746.95 651.035C753.009 652.713 758.523 655.672 756.858 660.798C753.458 671.266 762.125 672.803 762.125 672.803C762.125 672.803 762.284 674.212 762.465 676.658C763.334 688.194 764.814 722.857 753.502 742.665Z" fill="#0F4C81"/>
<path opacity="0.05" d="M391.91 685.517C391.91 685.517 342.463 685.041 309.414 713.277L327.723 713.622C327.723 713.622 379.24 701.314 391.795 691.019L391.91 685.517Z" fill="black"/>
<path d="M391.458 685.052C391.458 685.052 342.011 684.576 308.961 712.812L327.271 713.157C327.271 713.157 378.788 700.85 391.343 690.555L391.458 685.052Z" fill="#FFEC9F"/>
<path opacity="0.05" d="M303.765 673.379L303.533 685.681L261.526 704.123L255.094 703.226C268.389 689.143 285.185 678.843 303.765 673.379Z" fill="black"/>
<path d="M303.313 672.914L303.081 685.217L261.068 703.653L254.636 702.756C267.933 688.674 284.731 678.376 303.313 672.914Z" fill="#FFEC9F"/>
<path opacity="0.05" d="M361.311 729.813C361.311 729.813 338.623 743.12 335.763 773.304L348.581 773.545C348.581 773.545 354.238 740.684 369.093 729.96L361.311 729.813Z" fill="black"/>
<path opacity="0.05" d="M626.325 735.727L509.798 747.265C509.798 747.265 503.03 698.171 504.811 679.156L580.264 677.163C582.432 676.903 584.58 676.496 586.693 675.943L586.607 680.485L643.624 667.825C643.624 667.825 652.973 682.192 626.325 735.727Z" fill="black"/>
<path d="M615.569 626.08C615.569 626.08 640.348 623.344 650.935 644.607L615.611 642.579L615.569 626.08Z" fill="#0F4C81"/>
<path opacity="0.05" d="M649.079 651.958C648.051 654.984 648.72 658.346 654.304 660.769C658.951 662.789 664.485 660.657 666.176 655.885C667.162 653.102 666.582 649.921 661.583 647.248C656.585 644.575 650.878 646.672 649.079 651.958Z" fill="black"/>
<path d="M241.323 728.461C241.323 728.461 270.374 744.209 291.538 738.853" stroke="#0F4C81" stroke-miterlimit="10"/>
<path d="M242.205 736.684C242.205 736.684 260.885 751.66 299.262 748.985" stroke="#0F4C81" stroke-miterlimit="10"/>
<path d="M242.95 743.586C242.95 743.586 261.446 760.259 300.182 755.815" stroke="#0F4C81" stroke-miterlimit="10"/>
<path opacity="0.05" d="M649.563 642.126C649.563 642.126 634.021 655.041 619.951 660.747C619.951 660.747 641.077 664.918 649.563 642.126Z" fill="black"/>
<path opacity="0.1" d="M486.822 677.931C486.822 677.931 559.259 686.153 586.839 680.261C586.839 680.261 588.286 681.26 579.618 677.178L486.822 677.931Z" fill="black"/>
<path opacity="0.05" d="M762.471 676.659C758.007 673.606 750.954 667.311 752.06 660.476C752.613 657.05 750.243 653.791 746.956 651.031C753.015 652.709 758.529 655.668 756.864 660.794C753.464 671.262 762.132 672.799 762.132 672.799C762.132 672.799 762.284 674.213 762.471 676.659Z" fill="black"/>
<path opacity="0.02" d="M382.354 701.228L375.883 720.491L375.73 720.869C374.907 721.038 357.531 724.689 353.775 725.84L353.4 725.833L363.548 700.428L363.838 699.695L366.977 699.955L382.354 701.228Z" fill="black"/>
<path opacity="0.1" d="M395.18 712.203C393.143 710.585 389.287 708.053 385.684 708.528L386.363 705.93C386.363 705.93 391.931 704.303 393.852 706.071C394.556 706.714 395.004 709.203 395.18 712.203Z" fill="black"/>
<path opacity="0.1" d="M325.838 674.305C325.838 674.305 338.358 675.404 341.864 672.876C337.249 676.274 331.83 678.417 326.139 679.094L325.838 674.305Z" fill="black"/>
<path d="M742.103 678.752C736.877 681.544 732.234 662.043 732.234 662.043L732.035 659.311L731.658 654.145L738.042 654.958C737.945 656.074 737.945 657.196 738.042 658.312C738.154 659.635 738.478 661.017 739.239 661.573C740.939 662.856 747.323 675.967 742.103 678.752Z" fill="#FFE2C9"/>
<path d="M663.365 792.627L663.808 792.29C663.674 792.419 663.525 792.533 663.365 792.627Z" fill="#FFE2C9"/>
<path d="M676.522 685.489V698.812C676.522 699.389 676.522 699.965 676.522 700.538C676.386 705.515 675.944 710.479 675.199 715.402C675.022 716.604 674.993 717.824 675.113 719.034C675.576 723.565 674.452 740.863 674.452 740.863L672.467 763.268C672.467 763.268 673.625 775.453 673.129 777.16C672.997 777.859 672.955 778.573 673.003 779.283C673.069 781.268 673.413 783.814 673.526 784.575V784.807L673.453 784.859L663.749 792.262C665.297 790.853 665.693 787.572 665.687 784.529C665.687 784.198 665.687 783.867 665.687 783.536C665.687 780.692 665.797 777.848 666.018 775.003C666.335 770.326 664.47 763.162 663.107 758.704C661.367 753.022 659.621 719.821 660.554 718.081C661.486 716.341 660.435 711.81 659.277 709.257C658.596 707.702 657.934 702.265 657.537 698.296C657.286 695.888 657.134 694.062 657.134 694.062L676.522 685.489Z" fill="#FFE2C9"/>
<path d="M697.134 789.651L697.611 789.293C697.465 789.429 697.305 789.549 697.134 789.651Z" fill="#FFE2C9"/>
<path d="M710.292 682.511V695.833C710.292 696.654 710.292 697.48 710.292 698.301C710.141 703.029 709.715 707.745 709.015 712.424C708.838 713.626 708.809 714.846 708.929 716.055C709.392 720.587 708.268 737.885 708.268 737.885L706.283 760.29C706.283 760.29 707.448 772.475 706.984 774.181C706.85 774.878 706.808 775.59 706.859 776.298C706.925 778.283 707.276 780.869 707.381 781.59C707.381 781.736 707.414 781.808 707.414 781.808L707.342 781.861L697.624 789.264C699.126 787.822 699.516 784.58 699.509 781.577C699.509 781.246 699.509 780.915 699.509 780.578C699.509 777.734 699.642 774.889 699.834 772.045C700.145 767.368 698.286 760.21 696.923 755.752C695.177 750.07 693.437 716.869 694.37 715.129C695.302 713.39 694.251 708.858 693.093 706.305C692.676 705.405 692.279 703.216 691.935 700.781C691.32 696.363 690.884 691.104 690.884 691.104L710.292 682.511Z" fill="#FFE2C9"/>
<path opacity="0.1" d="M692.167 556.186L692.068 556.338C691.045 557.786 689.732 559.005 688.211 559.916C686.69 560.827 684.996 561.411 683.237 561.63C682.722 561.703 682.203 561.738 681.683 561.736C681.643 561.577 681.61 561.419 681.57 561.267C680.809 557.959 680.002 555.313 680.002 555.313C680.002 555.313 680.869 554.063 682.132 552.469C685.566 548.129 691.889 541.269 691.393 550.438C691.287 552.295 691.511 554.156 692.055 555.935C692.101 555.981 692.128 556.074 692.167 556.186Z" fill="black"/>
<path d="M694.435 548.47C694.436 551.584 693.298 554.591 691.235 556.925C689.172 559.258 686.327 560.756 683.236 561.137C682.714 561.204 682.188 561.237 681.662 561.237H681.569C679.048 561.217 676.59 560.452 674.503 559.037C672.417 557.622 670.796 555.622 669.845 553.287C668.894 550.953 668.655 548.389 669.159 545.919C669.663 543.449 670.886 541.183 672.676 539.408C674.465 537.632 676.74 536.426 679.214 535.941C681.688 535.457 684.25 535.715 686.577 536.684C688.904 537.654 690.892 539.29 692.29 541.387C693.689 543.484 694.435 545.949 694.435 548.47Z" fill="#FFE2C9"/>
<path d="M706.819 585.669L694.436 596.253C694.436 596.253 680.935 576.99 682.529 573.041C683.038 571.804 682.979 569.607 682.655 567.16C682.476 565.837 682.218 564.375 681.927 562.999C681.841 562.569 681.748 562.146 681.656 561.729C681.616 561.57 681.583 561.411 681.543 561.259C680.783 557.952 679.976 555.306 679.976 555.306C679.976 555.306 680.842 554.056 682.106 552.461C685.539 548.122 691.863 541.262 691.367 550.43C691.26 552.288 691.484 554.149 692.028 555.928C692.028 556.033 692.088 556.139 692.127 556.238C693.887 561.65 698.173 565.969 701.468 568.648C702.817 569.758 704.242 570.77 705.734 571.678L706.819 585.669Z" fill="#FFE2C9"/>
<path opacity="0.1" d="M657.134 694.085L676.522 685.485V698.808C676.522 699.386 676.522 699.961 676.522 700.534C676.084 700.382 675.663 700.185 675.265 699.946C671.435 697.577 666.666 699.416 666.329 699.416C665.991 699.416 662.148 701.044 658.086 698.603C657.908 698.497 657.729 698.398 657.557 698.312C657.273 695.91 657.134 694.085 657.134 694.085Z" fill="black"/>
<path opacity="0.1" d="M710.292 682.511V695.833C710.292 696.654 710.292 697.48 710.292 698.301C710.017 698.761 709.795 699.252 709.63 699.763C708.929 701.39 704.173 701.972 699.992 701.284C697.336 700.937 694.66 700.769 691.981 700.781C691.366 696.363 690.93 691.104 690.93 691.104L710.292 682.511Z" fill="black"/>
<path d="M729.337 686.303C726.083 686.766 717.959 693.731 713.898 695.127C709.836 696.523 710.299 696.748 709.605 698.375C708.91 700.002 704.147 700.578 699.967 699.89C695.786 699.202 687.894 699.42 687.894 699.42C687.894 699.42 679.103 700.942 675.246 698.554C671.39 696.166 666.647 698.024 666.31 698.024C665.972 698.024 662.129 699.652 658.067 697.211C654.006 694.77 648.548 695.703 648.548 695.703C648.548 695.703 644.136 693.149 641.583 694.545C639.029 695.941 633.459 691.76 632.064 690.483C630.668 689.207 634.71 685.145 637.753 683.981C640.795 682.817 646.577 665.174 647.153 664.599C647.728 664.023 650.288 657.865 649.937 655.43C649.587 652.996 656.552 641.843 656.552 641.843L660.958 626.854L662.281 622.223L662.334 619.465C662.334 618.221 662.393 616.627 662.427 614.834C662.546 607.425 662.671 596.438 662.427 591.47C662.387 590.703 662.347 590.081 662.294 589.631C661.712 584.643 666.925 573.755 668.215 571.526C669.167 569.879 675.332 568.628 679.004 567.855C679.879 567.696 680.745 567.489 681.597 567.233C681.929 567.149 682.274 567.122 682.615 567.153C686.082 567.292 696.302 569.436 696.302 569.436C695.376 597.41 697.235 592.535 697.235 592.535C700.251 590.213 698.392 569.667 698.392 569.667C699.9 570.362 701.442 568.615 701.442 568.615L707.329 571.056C709.122 572.133 710.855 573.306 712.522 574.569C713.919 575.553 715.146 576.76 716.154 578.141C717.893 581.045 720.334 589.287 720.334 589.287L718.244 592.595C716.418 595.525 713.613 600.03 710.736 604.594L705.629 612.724C703.347 616.349 701.488 619.293 700.714 620.49C700.54 620.777 700.416 621.093 700.35 621.423C700.307 621.641 700.278 621.862 700.264 622.084C700.232 623.01 700.323 623.935 700.536 624.836C701.997 631.769 708.606 643.127 708.606 643.127C708.606 643.127 715.221 653.221 715.34 656.469C715.459 659.717 722.537 663.203 724.164 667.615C725.792 672.028 729.384 673.648 728.92 676.321C728.457 678.993 733.551 680.151 734.49 681.89C735.43 683.63 732.585 685.84 729.337 686.303Z" fill="#E84336"/>
<path opacity="0.1" d="M738.028 658.312C736.236 659.523 733.08 659.476 732.035 659.311L731.658 654.145L738.042 654.958C737.941 656.074 737.936 657.196 738.028 658.312Z" fill="black"/>
<path d="M715.637 585.903L720.4 589.27C720.4 589.27 722.603 598.088 724.574 601.223C726.545 604.359 726.314 608.42 726.314 608.42C726.979 609.157 727.599 609.932 728.172 610.742C729.568 612.601 731.42 621.921 730.726 623.125C730.031 624.329 734.735 634.305 734.735 634.305C734.735 634.305 735.396 634.966 736.765 638.598C738.135 642.23 736.765 646.377 736.765 646.377C736.765 646.377 740.364 654.388 738.856 656.591C737.347 658.793 732.466 658.575 731.771 658.33C731.076 658.086 733.63 656.822 729.125 656.472C724.62 656.121 718.673 648.117 718.673 648.117C716.319 643.863 714.598 639.288 713.567 634.536C712.537 629.641 711.142 624.829 709.392 620.142C708.81 618.402 706.257 607.144 706.257 607.144L715.637 585.903Z" fill="#E84336"/>
<path opacity="0.1" d="M680.002 585.903C680.002 585.903 679.651 612.832 676.403 618.171L680.002 585.903Z" fill="black"/>
<path opacity="0.1" d="M698.809 595.422C698.809 595.422 695.793 622.352 693.411 623.741C691.03 625.13 698.809 595.422 698.809 595.422Z" fill="black"/>
<path opacity="0.1" d="M694.436 591.59C694.436 591.59 693.702 616.985 689.871 619.492C686.041 621.999 694.436 591.59 694.436 591.59Z" fill="black"/>
<path opacity="0.1" d="M661.083 639.645C661.083 639.645 656.281 653.688 656.823 659.49C657.365 665.291 661.083 639.645 661.083 639.645Z" fill="black"/>
<path opacity="0.1" d="M700.601 625.761C694.317 627.17 677.317 629.697 662.367 620.396C662.367 619.153 662.426 617.558 662.459 615.766C668.135 618.888 684.077 627.011 692.194 624.736C696.242 623.578 698.809 622.844 700.416 622.368C700.255 623.5 700.318 624.653 700.601 625.761Z" fill="black"/>
<path opacity="0.1" d="M700.601 624.373C694.317 625.776 677.317 628.303 662.367 619.009C662.367 617.765 662.426 616.164 662.459 614.378C668.135 617.5 684.077 625.624 692.194 623.348C696.242 622.197 698.809 621.456 700.416 620.987C700.256 622.117 700.319 623.267 700.601 624.373Z" fill="black"/>
<path d="M700.602 624.866C694.318 626.269 677.317 628.796 662.367 619.502C662.367 618.258 662.427 616.664 662.46 614.871C668.135 617.993 684.078 626.117 692.194 623.841C696.243 622.69 698.809 621.949 700.417 621.479C700.257 622.61 700.32 623.76 700.602 624.866Z" fill="#212121"/>
<path opacity="0.1" d="M700.602 624.866C694.318 626.269 677.317 628.796 662.367 619.502C662.367 618.258 662.427 616.664 662.46 614.871C668.135 617.993 684.078 626.117 692.194 623.841C696.243 622.69 698.809 621.949 700.417 621.479C700.257 622.61 700.32 623.76 700.602 624.866Z" fill="black"/>
<path opacity="0.1" d="M673.552 784.603C673.552 784.755 673.519 784.854 673.512 784.887L663.808 792.29C665.356 790.881 665.753 787.599 665.746 784.557C665.746 784.226 665.746 783.895 665.746 783.564C666.6 781.461 667.813 779.523 669.331 777.836C670.985 777.406 672.024 777.836 672.639 778.583C672.639 778.656 672.639 778.729 672.639 778.795C672.771 778.955 672.886 779.128 672.983 779.311C673.955 780.984 673.677 783.716 673.552 784.603Z" fill="black"/>
<path opacity="0.1" d="M672.799 780.845L665.476 785.872C665.476 785.872 665.522 785.283 665.588 784.417C666.46 782.168 667.731 780.095 669.339 778.298C670.993 777.874 672.031 778.298 672.646 779.045C672.706 780.13 672.799 780.845 672.799 780.845Z" fill="black"/>
<path d="M673.506 785.365C672.478 787.722 671.96 790.269 671.984 792.84C672.028 794.953 671.49 797.038 670.43 798.866C670.282 799.125 670.111 799.371 669.921 799.601C669.921 799.601 664.834 799.561 663.054 798.086C662.852 797.936 662.685 797.744 662.565 797.524C661.546 795.493 664.549 787.713 664.549 787.713C666.124 781.714 669.325 778.512 669.325 778.512C675.034 777.017 673.506 785.365 673.506 785.365Z" fill="#5A5773"/>
<path opacity="0.1" d="M670.429 798.846C670.281 799.105 670.111 799.351 669.92 799.58C669.92 799.58 664.833 799.54 663.054 798.065C663.927 795.168 666.725 786.403 668.028 787.891C669.331 789.38 670.119 796.048 670.429 798.846Z" fill="black"/>
<path d="M669.729 788.452L669.378 801.589H671.085C671.085 801.589 671.356 790.066 672.123 788.452C672.891 786.838 669.729 788.452 669.729 788.452Z" fill="#5A5773"/>
<path opacity="0.1" d="M707.322 781.645L707.282 781.916L697.624 789.265C699.126 787.823 699.516 784.582 699.509 781.578C699.509 781.248 699.509 780.917 699.509 780.58C700.362 778.479 701.573 776.543 703.088 774.858C704.742 774.428 705.787 774.858 706.429 775.598C706.429 775.678 706.429 775.744 706.429 775.817C706.562 775.973 706.677 776.144 706.773 776.326C707.732 778.026 707.447 780.765 707.322 781.645Z" fill="black"/>
<path opacity="0.1" d="M706.568 777.862L699.245 782.896C699.245 782.896 699.291 782.307 699.364 781.44C700.23 779.19 701.499 777.117 703.108 775.321C704.762 774.898 705.801 775.288 706.449 776.069C706.475 777.154 706.568 777.862 706.568 777.862Z" fill="black"/>
<path d="M707.282 782.386C706.249 784.741 705.728 787.289 705.754 789.861C705.798 791.974 705.26 794.058 704.199 795.887C704.049 796.144 703.879 796.39 703.69 796.621C703.69 796.621 698.603 796.581 696.824 795.106C696.628 794.951 696.466 794.758 696.347 794.537C695.335 792.507 698.332 784.727 698.332 784.727C699.906 778.727 703.108 775.526 703.108 775.526C708.803 774.051 707.282 782.386 707.282 782.386Z" fill="#5A5773"/>
<path opacity="0.1" d="M704.199 795.888C704.049 796.145 703.878 796.391 703.69 796.622C703.69 796.622 698.603 796.582 696.823 795.107C697.696 792.21 700.495 783.438 701.798 784.927C703.101 786.415 703.888 793.07 704.199 795.888Z" fill="black"/>
<path d="M703.505 785.475L703.148 798.606H704.854C704.854 798.606 705.126 787.089 705.893 785.475C706.66 783.861 703.505 785.475 703.505 785.475Z" fill="#5A5773"/>
<path opacity="0.1" d="M718.713 596.233C718.634 599.54 716.828 603.066 713.659 604.051C712.733 604.336 711.747 604.402 710.801 604.594C710.347 604.678 709.903 604.813 709.478 604.997C707.448 605.93 706.435 608.245 706.025 610.442C705.88 611.196 705.787 611.956 705.695 612.724C705.585 614.184 705.28 615.624 704.788 617.004C703.882 619.129 702.32 620.909 700.33 622.084C698.02 623.457 695.528 624.499 692.928 625.18C694.241 623.157 695.098 620.873 695.441 618.485C695.784 616.098 695.603 613.665 694.912 611.354C694.489 609.998 693.589 608.483 692.154 608.523C691.036 608.556 690.235 609.549 689.402 610.303C685.301 613.994 678.884 612.347 673.691 610.488C682.952 601.075 685.525 585.787 679.942 573.847C679.435 572.916 679.053 571.922 678.805 570.89C678.64 569.864 678.738 568.813 679.089 567.834C679.54 566.582 680.173 565.403 680.968 564.335C681.292 563.879 681.629 563.429 681.973 562.972C682.416 562.37 682.86 561.762 683.257 561.133C683.845 560.254 684.291 559.287 684.58 558.269C685.168 556.02 684.341 553.176 682.165 552.408L682.046 552.362C679.638 551.608 678.891 551.383 677.25 549.451C676.152 548.168 675.53 546.144 673.652 545.767C672.209 545.469 670.595 546.111 669.081 546.501C669.375 544.595 670.098 542.781 671.194 541.194C672.29 539.607 673.731 538.289 675.409 537.339C677.087 536.388 678.958 535.83 680.883 535.706C682.808 535.582 684.735 535.896 686.521 536.623C688.307 537.35 689.906 538.472 691.196 539.906C692.487 541.339 693.436 543.045 693.973 544.898C694.51 546.75 694.62 548.7 694.296 550.601C693.972 552.502 693.221 554.305 692.101 555.874C693.794 561.431 698.18 565.863 701.54 568.595L707.428 571.036C709.22 572.113 710.954 573.285 712.62 574.549C713.53 578.679 714.782 582.726 716.365 586.647C717.171 588.58 717.835 590.57 718.349 592.601C718.621 593.792 718.743 595.012 718.713 596.233Z" fill="black"/>
<path d="M682.476 551.901C684.739 552.609 685.612 555.519 685.01 557.808C684.408 560.097 682.787 561.949 681.418 563.874C680.049 565.799 678.831 568.101 679.248 570.429C679.496 571.461 679.879 572.455 680.386 573.386C685.969 585.326 683.363 600.607 674.135 610.027C679.328 611.886 685.751 613.533 689.845 609.842C690.679 609.087 691.479 608.095 692.597 608.062C694.019 608.016 694.939 609.537 695.356 610.893C696.047 613.203 696.227 615.635 695.884 618.021C695.542 620.407 694.684 622.69 693.371 624.712C698.154 623.323 703.406 621.173 705.238 616.543C706.059 614.472 706.059 612.17 706.469 609.974C706.879 607.778 707.891 605.469 709.922 604.536C711.245 603.941 712.733 604.014 714.103 603.59C717.271 602.605 719.077 599.086 719.156 595.771C719.236 592.457 717.966 589.276 716.775 586.186C710.16 568.987 716.378 582.766 712.753 562.068C712.012 557.841 713.17 555.314 714.116 551.133C715.062 546.953 714.857 542.111 711.953 538.949C709.049 535.787 704.537 535.198 700.932 533.055C697.737 531.15 694.926 527.941 691.208 528.001C688.483 528.041 688.489 528.484 685.976 529.542C681.63 531.368 676.754 530.819 672.336 532.327C668.367 533.69 663.326 538.148 664.53 542.911C666.15 549.321 670.596 544.604 674.062 545.325C675.941 545.722 676.562 547.72 677.661 549.01C679.328 550.915 680.068 551.147 682.476 551.901Z" fill="#212121"/>
<path d="M640.735 630.086C640.735 630.086 638.856 629.887 636.33 629.497C629.715 628.492 618.529 626.189 624.892 622.882C630.733 619.826 638.784 622.419 643.494 624.496C644.833 625.087 646.141 625.75 647.41 626.481L640.735 630.086Z" fill="#FFE2C9"/>
<path opacity="0.1" d="M675.94 589.731C675.94 589.731 672.924 604.946 671.416 608.3C669.908 611.653 667.447 620.491 667.447 620.491C667.447 620.491 663.881 623.719 660.938 626.855L662.261 622.224L662.314 619.466C662.314 618.222 662.373 616.628 662.406 614.835C662.525 607.426 662.651 596.439 662.406 591.471C662.664 590.988 662.83 590.69 662.83 590.69L665.178 586.966C665.178 586.966 669.008 576.753 671.211 573.849C673.414 570.945 675.94 589.731 675.94 589.731Z" fill="black"/>
<path opacity="0.1" d="M642.58 628.072C642.58 628.072 642.243 629.394 641.674 631.181C640.953 630.889 640.351 630.658 639.908 630.519C637.923 629.858 640.258 629.011 639.676 627.271C639.18 625.776 638.261 626.246 637.202 625.829C637.895 624.887 638.643 623.988 639.445 623.137L642.58 628.072Z" fill="black"/>
<path d="M664.794 586.945L662.446 590.669C662.446 590.669 659.258 596.576 658.762 598.409C658.265 600.241 657.273 607.253 655.289 608.88C653.304 610.507 649.249 615.727 649.831 616.772C650.413 617.817 644.374 619.094 644.374 619.094C644.374 619.094 640.312 620.721 640.544 621.998C640.775 623.274 637.177 624.319 638.454 625.246C639.73 626.172 640.894 625.246 641.477 626.985C642.059 628.725 639.73 629.545 641.708 630.24C643.686 630.934 650.182 633.653 650.182 633.653C650.182 633.653 655.401 634.533 656.909 631.397C658.418 628.262 667.01 620.489 667.01 620.489C667.01 620.489 669.445 611.665 670.979 608.298C672.514 604.931 675.511 589.73 675.511 589.73C675.511 589.73 673.07 570.923 670.88 573.854C668.691 576.784 664.794 586.945 664.794 586.945Z" fill="#E84336"/>
<path opacity="0.1" d="M658.179 616.891C658.179 616.891 646.688 618.4 652.84 620.953C658.992 623.506 661.083 620.953 661.083 620.953L658.179 616.891Z" fill="black"/>
<path opacity="0.1" d="M643.903 623.738C643.903 623.738 650.638 622.349 652.377 623.738C654.117 625.127 643.903 623.738 643.903 623.738Z" fill="black"/>
<path opacity="0.1" d="M643.21 627.225C643.21 627.225 643.673 626.061 645.995 627.225C648.317 628.39 643.21 627.225 643.21 627.225Z" fill="black"/>
<path opacity="0.1" d="M719.176 638.312C719.176 638.312 719.877 648.897 722.728 649.24C725.579 649.584 719.176 638.312 719.176 638.312Z" fill="black"/>
<path opacity="0.1" d="M725.274 614.352C725.274 614.352 725.757 617.587 722.728 618.169C719.698 618.751 725.274 614.352 725.274 614.352Z" fill="black"/>
<path opacity="0.1" d="M690.91 645.832C690.91 645.832 690.758 678.49 697.412 682.512L690.91 645.832Z" fill="black"/>
<path opacity="0.1" d="M699.728 647.227C699.728 647.227 699.609 679.878 706.224 683.907L699.728 647.227Z" fill="black"/>
<path opacity="0.1" d="M664.364 717.937C665.871 717.797 667.388 717.797 668.895 717.937C671.416 718.142 664.364 717.937 664.364 717.937Z" fill="black"/>
<path opacity="0.1" d="M664.364 720.218C665.871 720.078 667.388 720.078 668.895 720.218C671.416 720.449 664.364 720.218 664.364 720.218Z" fill="black"/>
<path opacity="0.1" d="M698.795 715.258C700.302 715.118 701.819 715.118 703.326 715.258C705.846 715.496 698.795 715.258 698.795 715.258Z" fill="black"/>
<path opacity="0.1" d="M699.569 717.081C701.076 716.941 702.593 716.941 704.1 717.081C706.614 717.312 699.569 717.081 699.569 717.081Z" fill="black"/>
<g opacity="0.1">
<path opacity="0.1" d="M676.575 608.882C685.836 599.469 688.409 584.188 682.826 572.242C682.319 571.31 681.936 570.316 681.688 569.285C681.272 566.956 682.482 564.654 683.858 562.729C685.234 560.804 686.855 558.952 687.45 556.663C688.045 554.375 687.179 551.464 684.916 550.763C682.509 550.009 681.761 549.777 680.121 547.846C679.022 546.562 678.401 544.538 676.522 544.168C673.056 543.447 668.584 548.137 666.99 541.746C666.077 538.161 668.743 534.735 671.819 532.691C667.975 534.285 663.53 538.518 664.668 542.997C666.289 549.407 670.734 544.697 674.2 545.418C676.079 545.808 676.701 547.812 677.799 549.096C679.446 551.027 680.187 551.259 682.595 552.013C684.857 552.714 685.73 555.625 685.128 557.914C684.526 560.202 682.905 562.055 681.536 563.98C680.167 565.904 678.95 568.206 679.366 570.542C679.616 571.57 679.998 572.562 680.504 573.492C686.087 585.439 683.481 600.719 674.253 610.132C679.254 611.925 685.386 613.513 689.468 610.337C685.598 611.7 680.703 610.357 676.575 608.882Z" fill="black"/>
<path opacity="0.1" d="M712.382 603.397C711.89 603.62 711.442 603.929 711.059 604.309C712.104 604.051 713.209 604.018 714.234 603.694C715.029 603.448 715.764 603.038 716.39 602.49C715.074 602.861 713.632 602.821 712.382 603.397Z" fill="black"/>
<path opacity="0.1" d="M700.858 621.755C699.229 622.483 697.549 623.091 695.831 623.574C697.144 621.553 698.001 619.27 698.344 616.883C698.687 614.497 698.506 612.065 697.815 609.756C697.399 608.433 696.492 606.878 695.057 606.918C694.195 607.051 693.412 607.498 692.861 608.175C694.184 608.221 695.09 609.69 695.507 611.006C696.198 613.315 696.378 615.748 696.036 618.134C695.693 620.52 694.835 622.803 693.522 624.825C696.097 624.143 698.565 623.11 700.858 621.755Z" fill="black"/>
</g>
</g>
<defs>
<linearGradient id="paint0_linear" x1="35921.4" y1="95850.6" x2="46493.4" y2="59341.8" gradientUnits="userSpaceOnUse">
<stop stop-color="#808080" stop-opacity="0.25"/>
<stop offset="0.54" stop-color="#808080" stop-opacity="0.12"/>
<stop offset="1" stop-color="#808080" stop-opacity="0.1"/>
</linearGradient>
<clipPath id="clip0">
<rect width="995.987" height="828" fill="white"/>
</clipPath>
</defs>
</svg>
